<svg width="80" height="108" viewBox="0 0 80 108" fill="none" xmlns="http://www.w3.org/2000/svg">
<g opacity="0.75">
<path fill-rule="evenodd" clip-rule="evenodd" d="M53.9032 51.9268C53.8467 51.8953 53.8965 51.8145 53.9532 51.8412C56.6817 53.1217 58.7749 55.3683 60.2477 57.964C61.7728 60.6518 62.642 63.7034 63.3914 66.6861L63.4184 66.7938C64.2175 69.9845 64.8969 73.2082 65.5086 76.4397C66.1281 79.7122 66.6254 83.005 67.0254 86.3113C67.2233 87.9461 67.3997 89.5838 67.5373 91.2248C67.606 92.0448 67.6685 92.8655 67.7246 93.6865C67.747 94.0149 67.7682 94.3433 67.7863 94.6719L67.7993 94.9184C67.8105 95.142 67.837 95.3662 67.7818 95.5868C67.7341 95.7769 67.6335 95.9491 67.545 96.1237C67.3699 96.4688 66.89 96.4119 66.7013 96.1237L66.6465 96.0397C66.5214 95.8463 66.4175 95.6665 66.3782 95.4258C66.3403 95.1927 66.3388 94.9484 66.3218 94.713C66.2905 94.2798 66.2638 93.8462 66.2334 93.4128C66.1695 92.5007 66.0977 91.589 66.0183 90.6781C65.8612 88.8798 65.6926 87.0831 65.4857 85.2897C65.1179 82.1026 64.6565 78.9239 64.1124 75.7621C63.5809 72.6734 62.909 69.616 62.2079 66.5625L62.1353 66.2467C60.9079 60.9154 59.0162 54.7758 53.9032 51.9268ZM24.8407 72.8027C24.8608 72.7494 24.9471 72.7371 24.9617 72.8027C25.1455 73.6306 25.1637 74.4832 25.1918 75.3308C25.2195 76.1669 25.2183 77.0068 25.2061 77.8434C25.1612 80.9181 25.0768 83.9901 25.0039 87.0643C24.9674 88.602 24.9332 90.1399 24.9069 91.6778C24.897 92.2547 24.8886 92.8314 24.8817 93.4083L24.8732 94.1691C24.869 94.5054 24.8602 94.8377 24.8192 95.1737C24.7921 95.3947 24.7345 95.6055 24.6126 95.7949C24.526 95.9294 24.4026 95.9977 24.2824 96.089L24.2599 96.1065C24.1065 96.2277 23.9449 96.2285 23.793 96.1065L23.7489 96.0715C23.6038 95.958 23.4784 95.8693 23.3858 95.6898C23.2569 95.4402 23.2363 95.1691 23.2144 94.894C23.1811 94.477 23.2032 94.0538 23.2075 93.6355C23.2161 92.7964 23.2277 91.9575 23.2424 91.1185C23.2964 88.0419 23.4032 84.9647 23.5978 81.8936C23.6894 80.447 23.8137 78.9957 23.9804 77.555L24.0122 77.2849C24.0628 76.861 24.1089 76.4296 24.1609 75.9968C23.385 75.4508 22.703 74.7885 22.1215 74.0371C22.0787 73.9817 22.1492 73.9042 22.2009 73.9577C22.7951 74.5732 23.4764 75.0639 24.2307 75.4498C24.3543 74.5437 24.5242 73.6425 24.8407 72.8027ZM37.8022 45.3775C37.8128 45.3692 37.8294 45.3656 37.8396 45.3775C38.0063 45.572 37.9725 45.8693 37.9779 46.1158L37.9785 46.1387C37.9905 46.4991 37.9927 46.8583 37.9915 47.2189L37.9878 48.3666C37.9873 48.5244 37.9745 48.6887 37.9826 48.8474L37.9868 48.9088C38.0744 48.9986 38.1151 49.1283 38.0854 49.2586C38.0801 49.4257 37.9927 49.5651 37.8653 49.6527L38.1384 50.0402L38.4117 50.4275C38.975 51.2268 39.5445 52.0189 40.138 52.7962C40.7432 53.5887 41.3889 54.3513 42.0645 55.0846C42.3946 55.4429 42.7303 55.7962 43.0738 56.1416C43.2134 56.282 43.3565 56.4189 43.498 56.5573L43.6387 56.6965C43.7219 56.7797 43.8265 56.862 43.8817 56.9674C43.9142 57.0296 43.9216 57.1829 43.9332 57.2083C44.0375 57.4375 43.8596 57.8029 43.5641 57.6885L43.5775 57.6796C43.6313 57.6422 43.5969 57.6416 43.4741 57.678C43.3966 57.6778 43.324 57.66 43.2561 57.6246L43.2359 57.6135C43.1403 57.5649 43.055 57.4709 42.9774 57.3957L42.9582 57.3774C42.7806 57.211 42.6114 57.0345 42.4413 56.8605C42.0861 56.4977 41.739 56.127 41.4029 55.7464C40.7325 54.9871 40.097 54.197 39.4951 53.3824C38.882 52.5527 38.3121 51.6804 37.822 50.7723C37.636 50.4277 37.4655 50.0764 37.3021 49.7211C36.9839 49.6189 36.9101 49.2804 36.9322 48.8991C36.8148 48.6256 36.7091 48.3464 36.6465 48.0613C36.638 48.0222 36.6882 47.9853 36.7183 48.0195C36.8201 48.1352 36.9143 48.2583 37.0048 48.3846C37.0595 48.1173 37.1286 47.8712 37.1612 47.7143L37.3022 47.0219C36.5074 46.9805 35.6364 47.3072 35.0884 47.8791C35.059 48.028 34.9444 48.1346 34.8327 48.2738C34.7051 48.433 34.5938 48.6115 34.5108 48.7983C34.3266 49.2123 34.4305 49.8223 34.0732 50.126C34.0359 50.1576 33.9943 50.1796 33.9513 50.1932C34.1209 51.0251 34.044 51.9417 34.0403 52.7856L34.0401 52.8599C34.041 53.8044 34.0094 54.7497 33.9729 55.6935L33.9358 56.6275C33.8877 57.8732 33.8565 59.1195 33.9775 60.3583C34.53 59.8688 35.1013 59.4017 35.6922 58.9566C36.0807 58.664 36.477 58.3817 36.8806 58.11L37.2085 57.8908C37.6014 57.6272 38.0038 57.356 38.434 57.1673C38.9967 56.9205 39.5317 57.0053 40.075 57.2584C40.616 57.5106 41.1408 57.8034 41.6715 58.0767C42.2112 58.3546 42.752 58.6301 43.2925 58.9063C43.6506 59.0894 44.1752 59.2546 44.4378 59.5915C44.4546 59.5169 44.4741 59.4426 44.4969 59.3686C44.4708 59.2556 44.4809 59.1336 44.5442 59.0173C45.4266 57.3953 46.243 55.7346 47.0537 54.0759C47.4641 53.2365 47.8542 52.3872 48.2653 51.5483L48.665 50.7312C48.7318 50.5951 48.7988 50.4591 48.8661 50.3233C48.967 50.12 49.072 49.9186 49.1739 49.7158C49.217 49.6301 49.271 49.545 49.313 49.4585L49.3329 49.4151C49.3338 49.4128 49.4307 49.1082 49.3559 49.1372L49.3494 49.1403C49.3113 49.162 49.2807 49.1139 49.3054 49.0833C49.4112 48.9525 49.5585 49.0683 49.6189 49.1894C49.7852 49.5227 49.4805 50.0459 49.3632 50.365L49.3568 50.3829C48.9931 51.4128 48.5813 52.4234 48.1593 53.4305C47.3502 55.3613 46.481 57.2625 45.6138 59.1669L45.6035 59.1997C45.7884 59.0579 45.9859 58.9292 46.155 58.8039C46.5815 58.4878 47.0205 58.1873 47.4589 57.8877C48.2627 57.3383 49.0883 56.8252 49.9275 56.3323L50.0956 56.234C50.5148 55.9896 50.9301 55.7915 51.4277 55.8649C51.89 55.933 52.3198 56.1815 52.7374 56.3833L52.7806 56.404L54.071 57.0177C53.9331 56.4674 53.7837 55.9197 53.6279 55.374C53.3239 54.3098 52.9895 53.2544 52.6268 52.2085C52.2881 51.2313 51.9219 50.2648 51.5346 49.3059L51.418 49.0181C51.2601 48.6233 51.103 48.1928 50.6517 48.0713C50.2006 47.9497 49.6832 48.1299 49.271 47.8727C49.2335 47.8493 49.2382 47.7876 49.2836 47.7761L49.538 47.712C50.0156 47.5931 50.5755 47.4736 51.0272 47.5892C51.5187 47.7151 51.9253 48.1278 52.1637 48.5567C52.4288 49.0339 52.6157 49.568 52.817 50.0768L52.8489 50.1569C53.0798 50.7328 53.3019 51.3121 53.5144 51.8951C53.9394 53.0603 54.3262 54.2396 54.6763 55.4295C54.8451 56.003 55.0051 56.5792 55.159 57.1568C55.2032 57.3229 55.2762 57.5243 55.336 57.7344C55.4046 57.8013 55.4696 57.876 55.5305 57.9612C55.6315 58.1025 55.559 58.2682 55.4334 58.3528C55.4285 58.4974 55.3964 58.6334 55.3196 58.7499C55.02 59.2049 54.2278 59.0877 54.26 58.476C54.2648 58.3823 54.3013 58.2929 54.3565 58.2174L54.355 58.2052L54.3487 58.1828C54.2112 58.1168 54.0731 58.0433 53.9275 57.9714L52.5732 57.3019C52.1809 57.108 51.7461 56.8083 51.3099 56.7344C50.9033 56.6656 50.4742 56.9686 50.1248 57.1515L50.1021 57.1633C49.2574 57.5964 48.4189 58.0439 47.5838 58.4951C47.1761 58.7154 46.7737 58.9448 46.3676 59.1677C46.028 59.3541 45.6615 59.6217 45.2798 59.7269C45.1168 59.8537 44.9232 59.8367 44.7675 59.7408C44.8386 60.1815 44.8343 60.6337 44.8561 61.0842C44.8855 61.6865 44.89 62.2905 44.8996 62.8936L44.9036 63.1198C44.9292 64.4531 44.9429 65.7868 44.948 67.1204C44.966 71.8693 44.9136 76.6196 44.9013 81.3685C44.8951 83.7545 44.8479 86.1426 44.7859 88.5277C44.7596 89.5383 44.7047 90.5478 44.6454 91.5569L44.6127 92.1073C44.5436 93.2687 44.5029 94.4429 44.2879 95.5886C44.2599 95.738 44.0071 95.7418 43.9823 95.5886C43.7845 94.3609 43.7735 93.1063 43.7355 91.8642L43.7275 91.616C43.6817 90.2824 43.6601 88.9496 43.6647 87.6153C43.6816 82.8645 43.8051 78.1166 43.906 73.3671C43.9568 70.9809 43.991 68.5935 44.0698 66.208C44.1093 65.0144 44.1539 63.8215 44.2069 62.6284C44.2305 62.0956 44.2533 61.5635 44.2887 61.0315L44.3046 60.8036C44.3156 60.6548 44.3245 60.508 44.3353 60.3624C43.8548 60.538 43.4153 60.2129 42.9831 59.9905C42.4849 59.7341 41.987 59.4773 41.4886 59.2215L40.9898 58.966L39.9916 58.4565C39.5422 58.2271 39.1959 57.9987 38.7165 58.2679C36.9896 59.2371 35.4026 60.5268 33.9644 61.88C33.6886 62.1396 33.1059 62.0698 33.036 61.6349C32.7376 59.7767 32.9191 57.8917 33.0715 56.0279L33.1276 55.3359C33.1957 54.5095 33.2698 53.683 33.3686 52.8599C33.4127 52.4917 33.4567 52.1237 33.5054 51.7562L33.5429 51.4807C33.6037 51.0451 33.6434 50.6121 33.7732 50.1943C33.7322 50.1811 33.6929 50.1594 33.6577 50.126C33.2677 49.7559 33.4557 49.1136 33.6336 48.6733C33.8094 48.2387 34.0773 47.8593 34.4129 47.5329C34.486 47.4616 34.5892 47.4157 34.6929 47.4133C35.5065 46.8741 36.399 46.605 37.3279 46.8993C37.354 46.7745 37.3806 46.6499 37.4087 46.5256L37.4372 46.4015C37.5094 46.0931 37.5363 45.5837 37.8022 45.3775ZM46.1406 94.0739C46.3931 94.0044 46.6695 94.0776 46.8545 94.2627C47.0394 94.4478 47.1126 94.7242 47.0431 94.9768C47.0083 95.1011 46.9454 95.209 46.8545 95.3007C46.7695 95.3852 46.6703 95.4454 46.5571 95.4815L46.5307 95.4894L46.4894 95.5066C46.3629 95.5407 46.2362 95.5407 46.1098 95.5066C45.9888 95.4727 45.8838 95.4115 45.7946 95.323C45.7061 95.2338 45.6449 95.1287 45.6109 95.0076C45.5769 94.881 45.5769 94.7544 45.6109 94.6278L45.6282 94.5866C45.663 94.4622 45.7259 94.3542 45.8168 94.2627C45.9083 94.1717 46.0163 94.1088 46.1406 94.0739ZM61.1314 68.9064C61.1729 68.8588 61.2401 68.9198 61.2144 68.9704C60.8211 69.7416 60.3828 70.5074 59.952 71.259C59.9865 71.4673 60.0208 71.674 60.0601 71.8754C60.2279 72.7339 60.4335 73.5769 60.5675 74.4436C61.0492 77.5588 61.2993 80.7078 61.5139 83.851C61.7291 87.0055 61.7566 90.1614 61.7889 93.3221C61.7917 93.596 61.5811 93.9143 61.2989 93.966C61.1696 93.9896 61.0729 93.985 60.944 93.966C60.6503 93.9227 60.4665 93.5861 60.4539 93.3221C60.3697 91.5556 60.2564 89.7914 60.1251 88.0277C59.8925 84.9008 59.7503 81.7658 59.5623 78.6357L59.4961 77.5417C59.4251 76.3563 59.3601 75.1701 59.3389 73.983C59.3248 73.1964 59.3669 72.4102 59.341 71.6246C59.3172 70.8993 59.2436 70.1107 59.4035 69.3981C59.4094 69.3714 59.4516 69.3646 59.4638 69.3902C59.63 69.7402 59.7353 70.1206 59.8164 70.5089C60.2447 69.967 60.6809 69.4239 61.1314 68.9064ZM33.0753 49.7478C33.1354 49.7433 33.133 49.8337 33.0753 49.8404C32.2347 49.9379 31.4227 50.2801 30.6291 50.571L30.5611 50.5958C29.7592 50.8868 28.9775 51.2252 28.2252 51.6286C26.7542 52.4174 25.4035 53.4344 24.2093 54.5987C19.4414 59.2464 17.2685 65.9486 15.6763 72.247C14.7916 75.7463 14.1625 79.3048 13.7548 82.8906C13.5532 84.664 13.4106 86.4441 13.3275 88.227C13.285 89.1407 13.2582 90.0553 13.247 90.9699C13.2412 91.4384 13.2395 91.9071 13.2401 92.3756C13.2404 92.5903 13.2787 92.8606 13.2213 93.0691C13.168 93.2622 13.0179 93.4322 12.9068 93.5932C12.7752 93.7841 12.5387 93.774 12.4052 93.5932L12.356 93.5273C12.2137 93.3385 12.0744 93.1579 12.0541 92.9111C12.0323 92.6464 12.0477 92.3737 12.0467 92.1079C12.0444 91.5724 12.0511 91.0368 12.0618 90.5015C12.0824 89.4753 12.1228 88.4495 12.1829 87.4249C12.3049 85.3456 12.5056 83.2705 12.7931 81.2075C13.3041 77.5405 14.07 73.9086 15.0733 70.345C16.0197 66.9832 17.141 63.6313 18.7383 60.5173C20.2214 57.626 22.1671 54.9363 24.7344 52.9156C25.9283 51.976 27.2279 51.1928 28.6291 50.6031C29.3358 50.3057 30.0779 50.0628 30.8326 49.9244C31.579 49.7875 32.3221 49.8066 33.0753 49.7478ZM46.2853 88.1317C46.4186 88.1307 46.5673 88.16 46.6816 88.2338L46.8344 88.3519C46.8759 88.4051 46.917 88.4585 46.9581 88.512C47.0537 88.6366 47.0663 88.8382 47.0464 88.9866C47.0419 89.0857 47.0125 89.1779 46.9581 89.2633L46.8418 89.414C46.7299 89.5052 46.6367 89.5703 46.5013 89.6142C46.4305 89.6371 46.3623 89.6419 46.2943 89.6384L46.2717 89.637L46.2853 89.6388L46.2615 89.6361C46.2394 89.6342 46.2172 89.6318 46.1949 89.6288C46.1798 89.6269 46.1646 89.6258 46.1494 89.6237C46.1349 89.6225 46.1208 89.6219 46.1061 89.6232C45.934 89.6395 45.7609 89.5418 45.6387 89.4297C45.5287 89.3286 45.4299 89.1142 45.4452 88.9622L45.4518 88.8987C45.4634 88.7916 45.4729 88.7494 45.5182 88.6418C45.5623 88.5371 45.624 88.4448 45.7078 88.3667C45.8684 88.2173 46.0649 88.1332 46.2853 88.1317ZM45.7525 80.2918C45.981 80.0427 46.3733 80.0244 46.6566 80.175C46.7256 80.2118 46.789 80.2708 46.8498 80.32C47.0032 80.4439 47.0634 80.6676 47.0718 80.8561C47.0802 81.0424 46.982 81.2637 46.8498 81.3923L46.8178 81.4234C46.7389 81.5002 46.6258 81.567 46.5153 81.5873C46.3372 81.62 46.1877 81.619 46.0218 81.549C45.8793 81.4889 45.7565 81.3922 45.673 81.261L45.6594 81.2388C45.6537 81.2296 45.6483 81.2203 45.6432 81.2107L45.6358 81.1962C45.4771 80.8909 45.5198 80.5452 45.7525 80.2918ZM45.8708 72.4105C45.9739 72.3782 46.0768 72.3736 46.1799 72.3967C46.2498 72.3969 46.315 72.4146 46.3754 72.4496C46.4411 72.468 46.4981 72.5012 46.5464 72.5493C46.6046 72.5837 46.651 72.6301 46.6854 72.6883C46.7539 72.7632 46.8001 72.8511 46.8242 72.952L46.8518 73.158L46.8242 73.3642L46.746 73.5494C46.7245 73.5774 46.7029 73.6055 46.6811 73.6334C46.6465 73.6918 46.6001 73.7383 46.5417 73.7728C46.5037 73.8106 46.4602 73.8389 46.4115 73.8584C46.239 73.9822 46.0092 74.0225 45.8047 73.9662C45.6833 73.9322 45.5779 73.8707 45.4885 73.7819C45.3997 73.6924 45.3382 73.5869 45.3043 73.4655L45.2903 73.3686C45.2723 73.2385 45.2694 73.1665 45.3062 73.0012C45.3223 72.9285 45.3692 72.826 45.3937 72.7828C45.4985 72.5985 45.6696 72.4722 45.8708 72.4105ZM54.8168 66.7406C55.1126 66.7385 55.4085 66.7391 55.7043 66.7423L55.9261 66.7453C56.2976 66.7511 56.6157 66.7128 56.9078 66.9707C57.1198 67.1578 57.0264 67.4717 56.8252 67.6127C56.5203 67.8261 56.1379 67.7188 55.7875 67.6952C55.4179 67.6704 55.0481 67.6499 54.6781 67.6333C53.9617 67.6012 53.245 67.5808 52.5279 67.5776C51.8123 67.5746 51.0957 67.5813 50.3802 67.5929C49.6522 67.6047 48.8941 67.6726 48.1702 67.5972C48.0707 67.5868 48.0484 67.456 48.1465 67.422C48.8287 67.1859 49.5961 67.1094 50.311 67.0191C51.0484 66.9259 51.7858 66.86 52.5279 66.8172C53.29 66.7735 54.0534 66.7459 54.8168 66.7406ZM45.8695 64.4218L45.8939 64.4223C46.0241 64.4226 46.146 64.4532 46.2596 64.5142L46.2838 64.5277L46.4402 64.6485C46.5359 64.745 46.6021 64.8586 46.6388 64.9895L46.6664 65.195C46.6704 65.3013 46.6482 65.4005 46.5999 65.4927C46.5687 65.5885 46.5154 65.6713 46.4402 65.7414C46.3702 65.8167 46.2873 65.8699 46.1916 65.9012C46.1065 65.9458 46.0155 65.9682 45.9183 65.9682L45.8939 65.9677C45.7545 65.9672 45.6245 65.9321 45.5041 65.8622L45.3477 65.7414C45.252 65.6449 45.1857 65.5313 45.1491 65.4004L45.1214 65.195C45.1175 65.0886 45.1396 64.9892 45.1881 64.8972C45.2192 64.8014 45.2724 64.7185 45.3477 64.6485C45.4177 64.5732 45.5005 64.5199 45.5964 64.4888C45.6813 64.4441 45.7724 64.4217 45.8695 64.4218ZM48.1595 46.2689C48.326 46.0277 48.6276 46.2422 48.5844 46.4361C48.5958 46.9806 48.6236 47.509 48.7475 48.0424C48.8042 48.2866 48.8785 48.531 48.9931 48.7547L49.0412 48.8489C49.1895 49.142 49.3046 49.4185 49.1049 49.74C49.0107 49.8916 48.8406 50.0055 48.6562 49.9975C47.8382 49.9622 47.7258 48.8233 47.6761 48.1874C47.6248 47.5326 47.7843 46.813 48.1595 46.2689Z" fill="currentColor"/>
<path fill-rule="evenodd" clip-rule="evenodd" d="M40.981 17.0605C43.7627 16.9126 48.8881 18.1872 51.3149 19.6815C55.2689 22.1162 55.5754 26.9729 55.4141 27.8126C55.3529 28.1331 55.1571 28.4297 54.8507 28.3312C55.1106 30.5376 55.0902 31.7987 55.1338 34.0179L55.1638 35.4995C55.1833 36.4872 55.2 37.4751 55.2043 38.4632C55.3043 38.4259 55.4029 38.4717 55.4395 38.5676C55.4486 38.5908 55.4169 38.6035 55.4015 38.5901C55.2254 38.4364 55.3507 38.7866 55.4113 38.8578C55.4951 38.9557 55.6345 39.048 55.7324 39.1319L55.9983 39.3621L56.2641 39.5919C56.6076 39.8883 56.9397 40.1853 57.2601 40.5046L57.3472 40.5923C57.931 41.1855 58.6627 41.7596 59.0261 42.5268C59.3733 43.2595 59.2662 44.0901 58.6895 44.6741C58.4796 44.8862 58.2346 45.0483 57.9684 45.1708C58.4423 45.9514 58.5113 46.9835 58.0169 47.7866C57.5219 48.5926 56.5698 49.0146 55.6529 48.9498C55.6247 49.0646 55.581 49.1766 55.5233 49.2829C55.1597 49.9514 54.4365 50.0381 53.7507 50.0024L53.724 50.0009C52.1803 49.9121 50.6951 49.5254 49.343 48.7737C48.874 48.8054 48.4557 48.4199 48.3641 47.9972C48.1176 47.9881 47.8698 47.9676 47.6169 47.9388C46.8669 47.8522 46.0979 47.6908 45.4367 47.3097C45.3353 47.2512 45.3824 47.0969 45.4951 47.0941C46.3007 47.0757 47.1071 47.1315 47.9113 47.0441C48.6493 46.9644 49.436 46.7609 50.124 46.484C51.3606 45.9852 52.4212 45.1391 53.0064 43.9668C53.7641 42.4493 53.6951 40.6268 53.7775 38.9783C53.8688 37.1535 53.9811 35.3304 54.1013 33.5075L54.1596 32.6337C54.2762 30.9305 54.3728 30.0194 54.6684 28.2515C53.7775 28.3312 50.0769 26.9987 48.9261 24.8191C46.7419 29.4558 35.676 27.5582 35.1853 34.6963C35.1811 34.7568 35.0852 34.74 35.0817 34.6822L35.0726 34.5195C35.0682 34.4391 35.0642 34.36 35.0615 34.2815L35.0592 34.2032L34.8852 34.2053C34.8852 34.2271 34.8543 34.2349 34.8465 34.2116C34.6824 33.7459 33.9007 33.8959 33.5606 34.0066C33.2543 34.1066 32.9655 34.2602 32.7064 34.4497C32.186 34.8302 31.7824 35.3423 31.6486 35.9827C31.3944 37.1987 32.1683 38.4372 33.1958 39.0241C33.8437 39.3939 34.5536 39.6328 35.1747 40.0519C35.7233 40.4218 36.2345 40.8551 36.6775 41.3475C38.4324 43.2983 39.4648 46.2572 38.6345 48.8321C38.5712 49.0287 38.4036 49.2534 38.1817 49.2851C37.8148 49.338 37.4479 49.2844 37.2423 48.935C37.162 48.7983 37.124 48.6426 37.1324 48.489C36.9902 48.9779 36.5289 49.4613 36.1036 49.643C35.524 49.891 34.8712 49.817 34.3599 49.4971L34.2953 49.5449C33.4639 50.1571 32.535 50.7152 31.4698 50.6025C30.6979 50.5208 29.9402 50.1277 29.5134 49.5077C28.9458 49.8269 28.3395 50.0811 27.7141 50.2544L27.6476 50.2727C26.7872 50.5071 25.6897 50.7219 24.8867 50.246C24.1155 49.7888 23.8592 48.7905 24.0402 47.9571C24.062 47.8578 24.0895 47.7613 24.1233 47.6676C23.543 47.6985 22.9634 47.6429 22.4127 47.4724C21.85 47.2984 21.3134 46.9637 21.0437 46.4213C20.7395 45.8076 20.8205 45.1103 21.0472 44.4854C21.4099 43.4828 21.993 42.5909 22.7191 41.8139C23.4173 41.0661 24.2595 40.4316 25.1348 39.9027L25.2823 39.8144C26.0702 39.3443 27.0204 38.7934 27.9514 38.8296C27.9486 38.8176 27.9465 38.8063 27.9451 38.7944C27.8043 37.7567 27.8205 36.6985 27.7874 35.6523C27.7571 34.69 27.7226 33.7276 27.7 32.7646C27.6634 31.1272 27.6754 29.483 27.8888 27.857C28.0782 26.4142 28.4191 25.0072 29.0409 23.6863C29.6937 22.2985 30.6768 21.1142 31.8909 20.1829C34.4388 18.2279 37.8043 17.2296 40.981 17.0605ZM32.3268 36.2913C32.6043 35.7678 33.2359 35.603 33.7902 35.6974C34.5669 35.8298 35.0951 36.509 35.5486 37.0931C36.0247 37.7052 35.0317 38.2822 34.7761 37.6891L34.7155 37.5489C34.5104 37.0786 34.268 36.5826 33.8493 36.2758C33.4043 35.9503 32.7761 35.9024 32.3831 36.335C32.355 36.3667 32.3078 36.3258 32.3268 36.2913Z" fill="currentColor"/>
<path fill-rule="evenodd" clip-rule="evenodd" d="M47.7174 42.7579C47.244 42.5647 46.8216 42.2424 46.5128 41.8307C46.4055 41.6876 46.3776 41.5365 46.4002 41.3983C46.4255 41.2428 46.5174 41.102 46.6427 41.0075C46.7685 40.9127 46.9258 40.866 47.0778 40.8898C47.21 40.9105 47.3415 40.9829 47.4456 41.133L47.4674 41.163C47.6509 41.4115 47.8902 41.6153 48.1628 41.7467C48.4255 41.8734 48.7194 41.9325 49.0234 41.8981C49.6026 41.8327 50.0018 41.5193 50.426 41.0939C50.4786 41.0401 50.5313 40.9847 50.5841 40.9284C50.6175 40.8774 50.6639 40.8446 50.7153 40.8274C50.7725 40.8083 50.8371 40.8094 50.8963 40.83C50.9534 40.85 51.0044 40.8877 51.0386 40.938C51.0711 40.9858 51.0896 41.0448 51.0836 41.1127C51.0448 41.5536 50.8143 41.9472 50.487 42.2562C50.1234 42.5994 49.6415 42.8368 49.1878 42.9201C48.688 43.0118 48.1786 42.9461 47.7174 42.7579ZM49.4236 35.9553C49.9554 36.2786 50.7657 37.0327 50.1936 37.8343C49.5202 38.5412 48.5507 37.7307 48.0729 37.3642C47.6299 37.0801 47.1321 37.8107 47.5432 38.1424C50.9955 40.6994 52.3966 36.0398 49.6926 35.5751C49.3949 35.5238 49.2843 35.8552 49.4236 35.9553ZM43.2369 32.9808C43.2957 32.2512 44.4064 32.0855 44.5169 32.8075C44.6159 33.4542 44.4994 34.0483 44.2082 34.6306C43.9299 35.1869 43.2306 34.9273 43.1777 34.4208C43.1068 33.7418 43.2004 33.4347 43.2369 32.9808ZM51.6921 32.6578C51.847 32.4549 52.0706 32.3164 52.3384 32.3947C53.1754 32.6393 52.9287 33.828 52.6348 34.4066C52.4751 34.7209 51.9588 34.8005 51.7255 34.5239C51.3452 34.0727 51.1631 33.1717 51.6465 32.7273C51.6596 32.7044 51.6742 32.6812 51.6921 32.6578ZM44.1964 29.7883L44.3286 29.7651C44.7376 29.6944 45.2462 29.6264 45.5355 29.9553C45.6889 30.1298 45.7417 30.454 45.5355 30.6209C45.1727 30.9147 44.7715 30.8009 44.3367 30.8257C43.9784 30.8463 43.6341 30.9056 43.2889 31.0043C42.5317 31.2208 41.9148 31.616 41.2681 32.05C41.1832 32.1069 41.0966 31.9984 41.1371 31.919C41.5104 31.1875 42.2339 30.5866 42.9585 30.2204C43.3453 30.0249 43.7685 29.8627 44.1964 29.7883ZM50.9291 29.4606L51.0303 29.4813C52.1315 29.7116 53.5623 30.1716 54.0838 31.2537C54.1036 31.4067 54.0826 31.4395 54.0656 31.4609L54.0599 31.468C54.0458 31.4863 54.0346 31.5115 53.9683 31.5324C53.9499 31.528 53.9313 31.5233 53.9125 31.5184C53.6735 31.4558 53.4844 31.3694 53.3013 31.2798L53.1028 31.182C52.8724 31.069 52.6401 30.9602 52.3938 30.8798C51.8683 30.7083 51.3278 30.5875 50.7789 30.523C50.66 30.5091 50.5454 30.4689 50.455 30.4001C50.3692 30.3347 50.3037 30.2442 50.2738 30.124C50.2351 29.9684 50.2462 29.8505 50.3297 29.7101C50.3924 29.6047 50.4822 29.5316 50.5854 29.4896C50.6905 29.4469 50.8102 29.4368 50.9291 29.4606Z" fill="currentColor"/>
</g>
</svg>
