<svg width="80" height="108" viewBox="0 0 80 108" fill="none" xmlns="http://www.w3.org/2000/svg">
<g opacity="0.75">
<path fill-rule="evenodd" clip-rule="evenodd" d="M44.945 56.7528C44.9515 56.6891 45.0374 56.6892 45.044 56.7528L45.1422 57.7017C45.2618 58.8606 45.3769 60.0173 45.4603 61.1816C45.5643 62.6335 45.6339 64.085 45.6674 65.5402C45.7843 70.6082 45.8076 75.6788 45.8174 80.748C46.5027 80.7006 47.1881 80.6548 47.8738 80.6106C48.339 80.5805 48.8042 80.5517 49.2695 80.5233L50.456 80.4514L50.9444 80.4214C51.2745 80.4009 51.6495 80.3178 51.8803 80.6103C51.9726 80.7274 52.019 80.8796 51.9329 81.0186C51.7342 81.3392 51.4291 81.328 51.0839 81.3419C50.7583 81.355 50.4327 81.3679 50.107 81.3805C49.4092 81.4076 48.7115 81.4332 48.0134 81.4528C47.2809 81.4733 46.5487 81.49 45.8165 81.5025C45.809 83.6425 45.7205 85.7799 45.6248 87.9176L45.5815 88.8795C45.4644 91.481 45.3384 94.0847 45.1595 96.6827C45.1448 96.8953 44.844 96.8949 44.8294 96.6827C44.6279 93.7569 44.4949 90.8249 44.3631 87.8953C44.2674 85.7711 44.2118 83.6464 44.1853 81.5214C44.0885 81.5221 43.9917 81.5234 43.895 81.5238C41.1466 81.5357 38.3989 81.5477 35.6505 81.5219C35.6551 81.5274 35.6596 81.5328 35.6627 81.54C35.8615 82.0097 35.8805 82.6091 35.8756 83.1131C35.87 83.6912 35.7922 84.2623 35.6591 84.8245C35.1823 86.8385 33.9523 88.6424 32.5514 90.1338L32.5057 90.1824C32.1753 90.5317 31.7962 90.8826 31.5933 91.3275C31.386 91.7817 31.3141 92.3131 31.2118 92.8012L31.1999 92.8573L30.8 94.7049C30.673 95.2918 30.6369 96.1477 30.1726 96.5711C29.7393 96.9661 29.1654 96.7598 28.9615 96.2512C28.8023 95.8542 28.9609 95.4181 29.0552 95.0214L29.794 91.9145C29.9154 91.4079 30.048 90.8979 30.31 90.4427C30.5784 89.9766 30.9719 89.6386 31.3734 89.2929C32.1336 88.6381 32.8315 87.8885 33.4217 87.0769C34.0117 86.2656 34.5159 85.3713 34.8695 84.431C35.0465 83.9602 35.1916 83.4711 35.2917 82.9781C35.3868 82.5103 35.386 82.0257 35.4877 81.5629C35.4947 81.5309 35.5217 81.509 35.5526 81.4993C35.5453 81.4786 35.5565 81.4507 35.5853 81.4489L37.833 81.3044C39.8311 81.1754 41.829 81.0432 43.8252 80.8921L44.1779 80.8666C44.1505 78.0313 44.1738 75.1955 44.225 72.3592C44.2719 69.7583 44.2729 67.1566 44.3502 64.556C44.3886 63.2653 44.4715 61.9776 44.5638 60.6896C44.6581 59.3723 44.8092 58.0661 44.945 56.7528ZM23.8399 71.8337C23.816 71.6893 23.9976 71.5998 24.0813 71.7319C25.0384 73.2411 25.4999 74.8804 25.6944 76.6465C25.8662 78.2052 25.8156 79.7864 25.73 81.3492C25.6388 83.0161 25.5323 84.6825 25.4246 86.3484L25.2592 88.9032L24.8441 95.3077C24.8143 95.7658 24.7104 96.1824 24.3161 96.3954C24.2662 96.4371 24.2141 96.4745 24.1535 96.5069C23.9405 96.6208 23.6579 96.5633 23.5348 96.3446L23.5841 96.3771C23.6272 96.4042 23.5789 96.3663 23.4392 96.2637L23.3207 96.1103C23.2345 95.9808 23.1795 95.8535 23.1574 95.6995C23.1231 95.4604 23.1676 95.198 23.1832 94.9576L23.4553 90.758C23.6669 87.4931 23.9141 84.2291 24.1003 80.9626C24.1871 79.4401 24.2479 77.9162 24.2067 76.3911C24.1657 74.8745 24.0885 73.3321 23.8399 71.8337ZM32.1198 43.7202L32.1729 43.7113C34.0739 43.3954 36.1411 43.4545 37.8785 44.3713C37.8929 44.3788 37.8863 44.4027 37.8702 44.402L37.311 44.3797C35.5406 44.3103 33.7758 44.2693 32.035 44.6854L31.8568 44.7283C31.23 44.8813 30.5753 45.0685 30.0718 45.4827C29.5905 45.8786 29.3509 46.4894 29.1205 47.0516L29.0896 47.1258C28.8559 47.6811 28.5599 48.2078 28.0475 48.555C27.3838 49.0047 26.5855 48.9496 25.8245 49.0107C24.4845 49.1184 23.3889 50.0899 22.8438 51.2788C22.5138 51.9986 22.373 52.8057 22.3451 53.5929C22.3308 53.9937 22.3288 54.4101 22.3822 54.8083C22.3992 54.9356 22.5565 55.3993 22.6367 55.3882C22.815 55.3635 22.9779 55.4565 23.0335 55.599C23.4738 55.1735 23.9267 54.7602 24.3943 54.3618C25.5597 53.369 26.815 52.4691 28.1369 51.6958C29.1459 51.1056 30.2101 50.5209 31.3122 50.0788C31.2248 50.077 31.1387 50.0943 31.0554 50.1376C31.0189 50.1567 30.9826 50.1109 31.0114 50.0806C31.3586 49.7153 31.7743 49.6633 32.1935 49.7607C32.2829 49.7323 32.3724 49.7047 32.4623 49.6786C32.507 49.6655 32.5293 49.7272 32.4928 49.751L32.3898 49.8168C32.8471 49.97 33.296 50.2712 33.6514 50.5089C34.6724 51.1915 35.5711 52.026 36.4821 52.8448L36.6477 52.9933C37.4496 53.7095 38.2719 54.4055 39.1829 54.9802C39.6598 55.2809 40.1607 55.5591 40.6862 55.766C41.1368 55.9436 41.8705 56.0554 42.0816 56.5319C42.2692 56.7599 42.1908 57.0508 41.9711 57.2043C41.6005 57.6122 40.8593 57.3487 40.4177 57.1788C39.8854 56.9739 39.3697 56.7277 38.8779 56.4389C37.923 55.8781 37.0426 55.1809 36.2224 54.4392C35.3659 53.6645 34.5579 52.8416 33.7248 52.0426C33.3639 51.6964 33.0112 51.3421 32.6497 50.9964L32.4681 50.8244C32.2836 50.6513 32.0207 50.3815 31.7397 50.2182C31.2102 50.5341 30.6725 50.8371 30.1478 51.1612C29.4153 51.6136 28.7044 52.0987 28.0045 52.5997C26.657 53.5643 25.3801 54.6445 24.1947 55.8025C22.0206 57.926 20.1683 60.3509 18.5503 62.9185L18.4274 63.1142C17.5079 64.5838 16.6383 66.1008 16.0218 67.7247C15.3434 69.5117 15.0135 71.3908 14.8343 73.2877C14.6564 75.1709 14.5964 77.0637 14.3976 78.9452C14.1937 80.8749 13.792 82.762 13.3351 84.6456L13.2261 85.0921C12.8127 86.779 12.386 88.4659 12.1735 90.1926C12.06 91.1149 11.9918 92.0499 12.0072 92.9797C12.0227 93.9149 12.1696 94.8294 12.2881 95.7548C12.3336 96.1093 11.9848 96.4052 11.6728 96.4522C11.3139 96.5061 11.0056 96.277 10.8941 95.9435C10.5463 94.9039 10.4831 93.7546 10.4941 92.6634C10.505 91.5556 10.6464 90.455 10.8453 89.3663C11.2364 87.2248 11.84 85.1275 12.3449 83.0116C12.7899 81.1467 13.0886 79.2785 13.2495 77.3679C13.4167 75.3857 13.5167 73.3969 13.8216 71.4291C14.1225 69.4863 14.6887 67.6307 15.5426 65.8592C16.32 64.2463 17.2892 62.7282 18.3053 61.2567C19.5391 59.4699 20.8943 57.7696 22.4091 56.2204C22.273 56.2144 22.1333 56.1705 22.005 56.0905C21.6124 55.8455 21.4296 55.3664 21.3734 54.9289C21.2419 53.9054 21.2736 52.837 21.5367 51.8364C21.9612 50.2222 23.0627 48.788 24.6592 48.2062C25.0701 48.0564 25.5069 48.0017 25.9424 47.9909C26.3557 47.9807 26.807 48.0346 27.2057 47.9035C27.8404 47.6948 28.1125 46.947 28.3508 46.3802L28.3617 46.3542C28.6673 45.6319 29.0341 45.0127 29.6959 44.5617C30.402 44.0804 31.2867 43.8616 32.1198 43.7202ZM50.183 46.5768C50.7542 46.3786 51.4685 46.5585 52.0271 46.7317C52.6495 46.9247 53.2247 47.2802 53.7178 47.7024C54.238 48.1477 54.6679 48.6975 54.9716 49.3116L55.0007 49.3708C55.2781 49.9405 55.594 50.7227 55.4542 51.3486C55.4501 51.3663 55.4456 51.3834 55.4404 51.4C56.5738 51.9582 57.6206 52.6573 58.5321 53.5434C59.5935 54.5752 60.4923 55.7492 61.2528 57.0176C64.2735 62.0553 64.8052 68.1056 65.1619 73.8507L65.2509 75.3074C65.4446 78.4529 65.6713 81.591 66.2602 84.6931L66.3032 84.917C66.9327 88.165 67.8338 91.4377 67.7425 94.7696C67.7151 95.7678 66.2403 95.7611 66.1975 94.7696C66.0366 91.0376 65.166 87.4344 64.5765 83.7608C63.5392 77.2976 64.0589 70.6344 62.5892 64.236C62.0125 61.725 61.119 59.2893 59.8432 57.048C59.213 55.9407 58.4919 54.8708 57.6473 53.9156C56.9206 53.0936 56.1653 52.3026 55.3161 51.6116C55.0447 51.8836 54.5025 51.745 54.3608 51.3486C54.2635 51.0761 54.2918 50.7576 54.2294 50.4722C54.1714 50.2074 54.0915 49.9448 53.985 49.6955C53.7728 49.1984 53.4612 48.7211 53.1016 48.3189C52.713 47.884 52.2665 47.5228 51.7668 47.2245C51.2637 46.9242 50.7135 46.8345 50.183 46.615C50.1651 46.6076 50.1634 46.5837 50.183 46.5768ZM52.4024 81.1182C52.4033 81.092 52.4342 81.0796 52.4532 81.0971C52.6535 81.2815 52.7745 81.5461 52.9219 81.7729C53.0919 82.0344 53.2705 82.2905 53.4576 82.5401C53.8327 83.04 54.2502 83.5111 54.6711 83.9728C55.0625 84.4021 55.4797 84.8133 55.9124 85.201C56.3813 85.621 56.9067 85.9958 57.3327 86.4609C58.2216 87.4314 58.3652 88.7634 58.5527 90.0142L58.5733 90.1494C58.6876 90.8917 58.7901 91.6359 58.8825 92.3812C58.9274 92.7438 58.9722 93.1067 59.0088 93.4701L59.02 93.5853C59.0527 93.9411 59.0615 94.3021 58.8572 94.6129C58.6385 94.9455 58.1414 95.0621 57.8459 94.7432C57.3381 94.1953 57.4333 93.2221 57.3672 92.5173C57.3126 91.9344 57.2507 91.3523 57.1814 90.771L57.1462 90.4805C57.0645 89.8192 56.9981 89.1448 56.8469 88.4951C56.7136 87.9229 56.4596 87.491 56.0428 87.0765C55.623 86.6589 55.1867 86.2691 54.7992 85.8194C54.3881 85.3425 54.0174 84.8311 53.6833 84.2974C53.3975 83.8408 53.1685 83.3441 52.9586 82.8478L52.9238 82.7651C52.721 82.2812 52.3866 81.6513 52.4024 81.1182ZM59.7343 60.3322C59.7387 60.2648 59.8384 60.2637 59.8399 60.3322C59.8525 60.9128 59.8646 61.4933 59.8767 62.0738C59.9736 66.7519 59.9139 71.441 60.383 76.1029C60.6043 78.301 61.0117 80.4668 61.4832 82.6236C61.7245 83.7272 61.9776 84.8282 62.2181 85.9319C62.4524 87.0076 62.7038 88.0885 62.8897 89.1742C63.0724 90.2413 63.236 91.3166 63.3094 92.3974L63.3185 92.5384C63.3501 93.0619 63.501 93.8319 63.2129 94.296C62.9006 94.7987 62.3028 94.8077 61.9682 94.3278C61.6541 93.8773 61.7322 93.0758 61.6767 92.5384C61.6203 91.9908 61.5606 91.4427 61.4929 90.8964C61.3607 89.8307 61.1865 88.7674 61.0054 87.7089C60.6281 85.5047 60.081 83.3282 59.6771 81.1275C59.2631 78.8725 58.9689 76.6013 58.9565 74.3053C58.9442 71.9898 59.1892 69.6789 59.3129 67.3685C59.4385 65.0219 59.5813 62.6771 59.7343 60.3322ZM37.6441 45.7819C37.7697 45.359 38.2128 45.0946 38.645 45.2134C39.0412 45.3223 39.3682 45.8033 39.2133 46.2148C39.0443 46.6638 38.749 47.0467 38.5 47.4548C38.27 47.832 37.9345 48.1289 37.7002 48.4993L37.9584 48.7778C38.0875 48.9167 38.2171 49.0548 38.3481 49.1904L38.7984 49.6571C39.1491 50.0197 39.502 50.3805 39.8649 50.7306C40.9319 51.7602 42.0159 52.756 43.2109 53.6377C43.4829 53.8384 43.7571 54.0379 44.0389 54.2247L44.144 54.2944C44.3373 54.421 44.5531 54.5455 44.7866 54.5241C45.3542 54.4719 45.8671 53.8689 46.2571 53.4936L46.2775 53.4741C47.244 52.5541 48.139 51.5482 48.9215 50.4666C49.0952 50.2263 49.2635 49.982 49.4273 49.7347C49.049 49.2926 49.1393 48.4297 49.1185 47.8935C49.1038 47.5166 49.1026 47.1395 49.1006 46.7622L49.0996 46.6862C49.095 46.442 49.0839 46.2078 49.2424 46.0069C49.2516 45.9953 49.2707 45.9956 49.2824 46.0017C49.4994 46.1155 49.5662 46.3059 49.6588 46.5195L49.6685 46.5417C49.7812 46.798 49.889 47.0568 49.9982 47.3146C50.1125 47.5846 50.2173 47.8585 50.3235 48.1317C50.3729 48.2588 50.4201 48.3864 50.4662 48.5147C50.4943 48.5966 50.5234 48.6781 50.5533 48.7595L50.5603 48.7658C50.5997 48.7992 50.6332 48.8346 50.662 48.8711C50.7831 48.9317 50.8793 49.0421 50.9244 49.2043C51.0226 49.5573 50.8193 49.8451 50.638 50.1253C49.9014 51.2638 49.0616 52.3487 48.1283 53.3328C47.6646 53.8217 47.1769 54.2886 46.6692 54.7316L46.5804 54.8085C46.1243 55.2006 45.6291 55.572 45.02 55.6638C44.3071 55.7711 43.7269 55.4164 43.1812 55.0079L43.1268 54.9669C42.6095 54.5751 42.1026 54.1696 41.6114 53.7454C40.6101 52.8806 39.6575 51.9519 38.8121 50.9332C37.9897 49.9422 37.1768 48.8342 36.6699 47.6418C36.639 47.5692 36.7202 47.4932 36.7839 47.5538C37.0315 47.7896 37.2697 48.0382 37.5052 48.29C37.5117 47.9194 37.4433 47.5456 37.4814 47.1726C37.5278 46.7193 37.5144 46.2184 37.6441 45.7819Z" fill="currentColor"/>
<path fill-rule="evenodd" clip-rule="evenodd" d="M33.38 20.1947C35.8736 17.8627 39.5593 16.7324 42.9292 16.9301C44.7543 17.0372 46.5133 17.4947 48.1628 18.2807C48.6786 18.5265 49.1813 18.8142 49.6448 19.153C49.9575 19.299 50.2632 19.4569 50.5593 19.6287C52.0424 20.4882 53.1889 21.79 53.9227 23.3343C54.273 24.0713 54.5494 24.8486 54.706 25.6494L54.7312 25.7813C54.811 26.1831 54.9689 26.7126 54.7692 27.0886C54.6368 27.338 54.3593 27.4951 54.0966 27.474C54.1537 27.7051 54.222 27.9361 54.2657 28.1686L54.3846 28.8027C54.4043 28.9084 54.4239 29.014 54.4431 29.1197C54.5579 29.7495 54.6635 30.3786 54.748 31.0133C54.9248 32.3351 55.0847 33.6595 55.2255 34.9861C55.3265 35.9348 55.421 36.8845 55.5129 37.834L55.5678 38.4036C55.6621 39.3842 55.7361 40.3734 55.6719 41.3583C55.5754 42.8357 55.1211 44.1836 54.2395 45.2802C54.3235 45.4823 54.3519 45.7099 54.4151 45.9612C54.5026 46.3089 54.6166 46.6494 54.738 46.9869C54.7947 47.1196 54.8516 47.2523 54.9079 47.3853L55.0559 47.7376L55.1713 47.9686C55.2964 48.2199 55.4174 48.4749 55.4942 48.735C55.9924 49.0011 56.3992 49.4352 56.4192 50.03C56.4368 50.5675 56.1579 51.1368 55.6868 51.4108C55.2219 51.6815 54.7433 51.5749 54.2982 51.3682C53.9101 51.4812 53.4947 51.4955 53.1102 51.3748C52.8142 51.6428 52.4325 51.8279 52.0093 51.8778C51.3713 51.9536 50.7656 51.775 50.1804 51.54L50.1396 51.5235C50.1213 51.5164 50.103 51.5087 50.0854 51.501C49.4121 51.4686 48.7417 51.2022 48.2642 50.7303C48.1086 50.5774 47.9741 50.4027 47.8657 50.2068C47.4719 49.4945 47.4107 48.6202 47.7981 47.9137C47.715 47.9172 47.6311 47.9207 47.548 47.9228C46.44 47.9544 45.33 47.8979 44.2247 47.825L43.9641 47.8073C43.2489 47.7558 42.1942 47.6345 42.1741 46.7477C42.1712 46.6343 42.2882 46.5491 42.3952 46.5794C42.8016 46.6941 43.2009 46.8745 43.622 46.9394C44.1727 47.0246 44.743 47.0338 45.2995 47.0648L45.4595 47.0737C46.5814 47.1351 47.7436 47.1725 48.8473 46.9499C49.6712 46.7844 50.5297 46.4828 51.2847 46.1094C52.0093 45.7502 52.6678 45.2803 53.1988 44.6666C54.3685 43.3168 54.5234 41.4125 54.4664 39.7048C54.3973 37.6652 54.1578 35.6286 54.0227 33.5919L53.9615 32.6769C53.9111 31.9139 53.8651 31.1498 53.8459 30.3864C53.8319 29.8291 53.8409 29.2705 53.8438 28.7132C53.8452 28.4349 53.8417 28.1552 53.848 27.877C53.8516 27.7206 53.8699 27.5677 53.8833 27.4147C53.8213 27.3824 53.7635 27.3373 53.7114 27.2774C53.6706 27.2302 53.6389 27.1802 53.6171 27.1295C53.3544 27.0526 53.2326 26.9505 53.0621 26.7188C52.9185 26.5236 52.7558 26.3433 52.5819 26.1742C52.2114 25.8149 51.7882 25.5211 51.3409 25.2653C50.4164 24.7363 49.4037 24.3826 48.3826 24.0924C46.8191 23.6486 45.1952 23.4203 43.6086 23.0637C43.1713 23.6738 42.7079 24.2657 42.2234 24.8385C40.7114 26.6251 38.9776 28.2179 37.1198 29.6382C36.7417 29.9278 36.3585 30.2131 35.9699 30.4899C35.4578 31.2709 34.9404 32.0482 34.4152 32.8203L34.1896 33.1509L34.1861 33.1572C34.1551 33.2044 34.1254 33.2516 34.0959 33.2988C34.0333 33.3988 33.9628 33.4954 33.8882 33.5891C33.8396 33.6601 33.7903 33.7313 33.7403 33.8025C33.8361 33.8539 33.9234 33.9117 33.9917 33.9758C34.1311 34.1075 34.1078 34.3168 33.9917 34.4507C33.6171 34.8832 33.0241 34.3196 32.5931 34.1696C32.1262 34.3118 31.7368 34.8677 31.5431 35.2925C31.2642 35.9048 31.1523 36.643 31.2783 37.3059C31.3938 37.9118 31.7051 38.4353 32.2227 38.7636C32.241 38.7748 32.2607 38.7869 32.2797 38.7974C32.2804 38.7988 32.2804 38.7988 32.2811 38.7981C32.2988 38.8093 32.3171 38.82 32.3354 38.8298C32.5783 38.9637 32.8452 39.0426 33.1219 39.0616C33.2804 39.0729 33.4459 39.0644 33.6044 39.0835C33.7671 39.1024 33.9009 39.1772 34.0572 39.2166C34.2297 39.2609 34.341 39.4928 34.2325 39.6484C34.179 39.7252 34.1283 39.7985 34.074 39.8641C34.2523 40.074 34.4071 40.3058 34.5473 40.5262C34.7388 40.8284 34.9086 41.1491 35.0635 41.476C35.2065 41.6641 35.3431 41.8557 35.4755 42.0515C36.2255 43.1632 36.7995 44.4017 37.1523 45.6958C37.5016 46.9759 37.7199 48.4138 37.3966 49.7207C37.0988 50.9226 36.229 51.9181 34.9417 51.9822C34.673 51.9954 34.4088 51.9654 34.1604 51.8971C33.6146 52.2344 32.9383 52.404 32.333 52.4238C31.8433 52.4399 31.3072 52.3368 30.9073 52.0405C30.4328 52.2471 29.9182 52.3643 29.4707 52.391C28.9699 52.4209 28.4458 52.2843 28.0376 52.014C27.6491 52.3468 27.23 52.6278 26.7537 52.8205C25.9347 53.1516 24.96 53.1107 24.21 52.6155C23.4586 52.1196 23.0762 51.2291 23.3058 50.3456C23.5171 49.5312 24.1811 48.9338 24.8051 48.4194L24.9284 48.3184C25.5455 47.8144 26.1688 47.3267 26.565 46.6167C26.9854 45.8636 27.1389 44.9886 27.1804 44.1361C27.2706 42.2594 26.8889 40.3995 26.7727 38.5325C26.653 36.6043 26.7199 34.6704 26.9826 32.7563C27.4931 29.038 28.8368 25.3929 31.2678 22.4945C31.6195 22.0751 31.9959 21.6754 32.3927 21.2965C32.6959 20.8997 33.0237 20.5278 33.38 20.1947ZM65.7163 41.4252C65.7297 41.4259 65.7424 41.4266 65.7543 41.4316C65.7624 41.4349 65.7691 41.4403 65.7754 41.4463L65.8346 41.5055C65.8558 41.5267 65.8543 41.5591 65.8346 41.5802C65.8173 41.5994 65.7861 41.6 65.7657 41.5851L65.76 41.5802L65.6986 41.5188C65.6919 41.5115 65.6862 41.5037 65.6832 41.4936C65.6804 41.4837 65.6804 41.4724 65.6797 41.4618C65.679 41.4428 65.6973 41.4252 65.7163 41.4252ZM32.6755 35.6695C33.2403 35.4982 33.9177 35.9055 34.2544 36.3352C34.4234 36.5508 34.4713 36.846 34.2544 37.058C34.0699 37.2384 33.7093 37.2714 33.5311 37.058C33.329 36.815 33.1642 36.4782 32.8755 36.3225C32.5621 36.1534 32.1424 36.1957 32.0684 36.6078C32.0558 36.6776 31.9558 36.6543 31.9515 36.5916C31.9241 36.1746 32.2896 35.7856 32.6755 35.6695Z" fill="currentColor"/>
<path fill-rule="evenodd" clip-rule="evenodd" d="M47.7173 42.7579C47.2439 42.5647 46.8215 42.2424 46.5127 41.8307C46.4053 41.6876 46.3775 41.5365 46.4 41.3983C46.4254 41.2428 46.5173 41.102 46.6426 41.0075C46.7684 40.9127 46.9257 40.866 47.0777 40.8898C47.2098 40.9105 47.3414 40.9829 47.4455 41.133L47.4672 41.163C47.6508 41.4115 47.8901 41.6153 48.1627 41.7467C48.4254 41.8734 48.7192 41.9325 49.0233 41.8981C49.6025 41.8327 50.0016 41.5193 50.4259 41.0939C50.4785 41.0401 50.5311 40.9847 50.584 40.9284C50.6174 40.8774 50.6637 40.8446 50.7152 40.8274C50.7723 40.8083 50.837 40.8094 50.8961 40.83C50.9532 40.85 51.0043 40.8877 51.0385 40.938C51.071 40.9858 51.0895 41.0448 51.0835 41.1127C51.0447 41.5536 50.8142 41.9472 50.4869 42.2562C50.1233 42.5994 49.6414 42.8368 49.1877 42.9201C48.6878 43.0118 48.1785 42.9461 47.7173 42.7579ZM49.4235 35.9553C49.9553 36.2786 50.7656 37.0327 50.1935 37.8343C49.5201 38.5412 48.5505 37.7307 48.0728 37.3642C47.6298 37.0801 47.132 37.8107 47.543 38.1424C50.9954 40.6994 52.3965 36.0398 49.6925 35.5751C49.3947 35.5238 49.2842 35.8552 49.4235 35.9553ZM43.2368 32.9808C43.2956 32.2512 44.4063 32.0855 44.5168 32.8075C44.6157 33.4542 44.4993 34.0483 44.2081 34.6306C43.9298 35.1869 43.2305 34.9273 43.1776 34.4208C43.1067 33.7418 43.2002 33.4347 43.2368 32.9808ZM51.692 32.6578C51.8468 32.4549 52.0704 32.3164 52.3383 32.3947C53.1753 32.6393 52.9286 33.828 52.6347 34.4066C52.4749 34.7209 51.9587 34.8005 51.7254 34.5239C51.3451 34.0727 51.163 33.1717 51.6464 32.7273C51.6595 32.7044 51.6741 32.6812 51.692 32.6578ZM44.1963 29.7883L44.3285 29.7651C44.7375 29.6944 45.246 29.6264 45.5354 29.9553C45.6888 30.1298 45.7416 30.454 45.5354 30.6209C45.1725 30.9147 44.7714 30.8009 44.3366 30.8257C43.9783 30.8463 43.634 30.9056 43.2888 31.0043C42.5316 31.2208 41.9147 31.616 41.268 32.05C41.1831 32.1069 41.0965 31.9984 41.137 31.919C41.5103 31.1875 42.2337 30.5866 42.9584 30.2204C43.3451 30.0249 43.7684 29.8627 44.1963 29.7883ZM50.929 29.4606L51.0302 29.4813C52.1314 29.7116 53.5622 30.1716 54.0836 31.2537C54.1035 31.4067 54.0825 31.4395 54.0654 31.4609L54.0598 31.468C54.0457 31.4863 54.0345 31.5115 53.9682 31.5324C53.9498 31.528 53.9312 31.5233 53.9124 31.5184C53.6734 31.4558 53.4843 31.3694 53.3012 31.2798L53.1026 31.182C52.8723 31.069 52.64 30.9602 52.3937 30.8798C51.8682 30.7083 51.3277 30.5875 50.7788 30.523C50.6598 30.5091 50.5453 30.4689 50.4549 30.4001C50.3691 30.3347 50.3036 30.2442 50.2737 30.124C50.235 29.9684 50.2461 29.8505 50.3296 29.7101C50.3923 29.6047 50.4821 29.5316 50.5852 29.4896C50.6904 29.4469 50.8101 29.4368 50.929 29.4606Z" fill="currentColor"/>
<path fill-rule="evenodd" clip-rule="evenodd" d="M49.6169 46.2198C49.6169 46.2198 46.4909 46.6794 45.0916 46.0299C43.6965 45.3825 42.3395 44.7561 41.074 43.8985C39.7775 43.0199 38.6775 41.9765 37.8923 40.641C37.162 39.3984 36.5549 38.0798 35.9437 36.7714C35.908 36.6949 35.5571 35.9348 35.4331 35.6799C35.2423 35.2847 34.6845 35.4087 34.6845 36.0223C34.6845 36.6358 34.6571 41.2821 35.7289 43.1098C36.6958 44.7606 38.3345 45.914 39.9627 46.9207C41.7641 48.0339 44.1571 49.2372 46.3064 49.5551C48.2514 49.8426 50.4711 49.0352 51.8796 47.7044C53.3521 46.3126 53.769 44.4218 54.5289 42.611C54.6986 42.2063 54.0969 41.9622 53.9204 42.3603C53.5881 43.1098 49.6169 46.2198 49.6169 46.2198Z" fill="currentColor"/>
</g>
</svg>
