<svg width="80" height="108" viewBox="0 0 80 108" fill="none" xmlns="http://www.w3.org/2000/svg">
<g opacity="0.75">
<path fill-rule="evenodd" clip-rule="evenodd" d="M60.9719 93.2246C60.4956 89.3996 60.1645 84.7821 60.1606 80.9252C60.1603 80.5619 60.7237 80.5626 60.724 80.9252C60.7278 84.7821 61.059 89.3996 61.5353 93.2246C61.5801 93.5842 61.0161 93.5798 60.9719 93.2246ZM57.4437 69.5079C56.7078 69.9582 55.7414 69.6459 55.0131 69.3477C54.6815 69.212 54.8275 68.667 55.1628 68.8043C55.7171 69.0312 56.5273 69.3653 57.1123 69.0488C57.6961 68.7329 57.7225 67.864 57.7268 67.2906C57.7296 66.9275 58.2929 66.9278 58.2902 67.2906C58.2843 68.0707 58.18 69.0573 57.4437 69.5079ZM56.0816 87.0118C55.3391 86.6311 54.7056 86.1106 54.1957 85.45C53.9741 85.1627 54.4637 84.8824 54.6822 85.1655C55.1309 85.747 55.7156 86.1917 56.3659 86.5252C56.689 86.6909 56.4036 87.177 56.0816 87.0118ZM52.5128 67.342C51.2389 72.449 50.384 77.6475 49.9649 82.8946C49.8797 83.9598 49.8199 85.0236 49.7861 86.0881C49.7523 86.3657 49.7199 86.6439 49.6896 86.9222C49.5748 87.9747 49.4868 89.0442 49.4945 90.1037C49.498 90.5793 49.5128 91.0527 49.5452 91.5268C49.4889 91.3683 49.4368 91.2091 49.3861 91.0506C49.2825 90.7258 49.2142 90.3891 49.1086 90.0664C49.0213 89.7994 48.9086 89.5437 48.8037 89.2851V89.2844C48.8354 88.2255 48.7635 87.1568 48.7269 86.1029C48.6797 84.7376 48.6213 83.3736 48.591 82.0076C48.5304 79.2756 48.5607 76.5414 48.6593 73.8108C48.8572 68.3086 49.3572 62.8326 49.8614 57.3529C50.0016 55.8291 50.1523 54.3059 50.2565 52.7792C50.3614 51.2364 50.4037 49.6908 50.4156 48.1437C50.4164 48.0324 50.2473 48.0028 50.2164 48.1106C50.1889 47.7435 50.1403 47.3772 50.0593 47.0228C51.2741 47.7978 52.5551 48.4677 53.8107 49.1722C54.472 49.5435 55.1304 49.9211 55.8121 50.2537C56.1868 50.4367 56.5649 50.6052 56.9509 50.7644C57.3509 50.9293 57.7333 51.1561 58.1734 51.0412C58.2114 51.0314 58.2473 51.0173 58.2818 50.999C58.2318 51.094 58.1818 51.1885 58.134 51.2844C57.9678 51.6147 57.8093 51.9466 57.6558 52.2812C57.6149 52.3115 57.579 52.3531 57.5509 52.4073C57.4762 52.5531 57.4037 52.7004 57.3333 52.8497C57.3192 52.8364 57.3051 52.823 57.291 52.8096C57.2318 52.7539 57.1502 52.8377 57.2023 52.8983C57.2262 52.9258 57.2495 52.9526 57.2727 52.9801C56.8135 53.9685 56.4403 55.0076 56.0558 56.0222C55.5833 57.2691 55.1354 58.5252 54.7135 59.7898C53.8818 62.2774 53.148 64.7974 52.5128 67.342ZM34.2995 85.8757C31.9515 87.1336 29.7574 88.6368 27.6471 90.2582C27.3595 90.4792 27.0792 89.9894 27.3628 89.7716C29.473 88.1502 31.6672 86.6469 34.0152 85.3889C34.335 85.2177 34.6192 85.7044 34.2995 85.8757ZM26.3692 71.1433C26.2471 71.1342 26.1285 71.0634 26.0975 70.9365C25.9073 70.1574 25.7584 69.3088 25.9353 68.5142C26.0142 68.1597 26.5572 68.3106 26.4785 68.664C26.339 69.2905 26.4499 69.9678 26.5947 70.5927C28.6425 70.6823 30.6629 69.9472 32.6221 69.4536C32.9745 69.3648 33.1233 69.9085 32.7719 69.997C30.6936 70.5206 28.5439 71.3043 26.3692 71.1433ZM67.1368 91.9235C67.1389 91.9185 67.141 91.9129 67.1424 91.908C67.2628 91.543 67.2657 91.1189 67.279 90.7365C67.3023 90.0558 67.2776 89.3739 67.2164 88.6954C67.0868 87.2674 66.8079 85.8627 66.4748 84.4698C65.8149 81.711 64.8825 79.0269 64.3762 76.2307C63.3825 70.7419 63.6185 65.027 61.6685 59.7328C60.8579 57.5318 59.7002 55.4162 58.1269 53.6677C58.2417 53.3182 58.3537 52.9681 58.4628 52.6165C58.6537 52.005 58.8487 51.3738 58.9664 50.744C58.9692 50.7271 58.9727 50.7095 58.9748 50.6919C59.6445 50.403 60.2537 49.8584 60.3579 49.1342C60.403 48.8214 60.3509 48.4748 60.2157 48.1726C60.4917 47.9175 60.6692 47.5864 60.6269 47.1426C60.548 46.307 59.5727 46.0921 58.8938 45.9287C58.122 45.7434 57.3213 45.692 56.5318 45.7794C56.1333 45.823 55.7389 45.8963 55.3537 46.0062C55.0192 46.1013 54.6551 46.1992 54.3868 46.4289C54.3551 46.4557 54.3811 46.5078 54.4192 46.5078C54.9621 46.5058 55.503 46.3063 56.0516 46.2802C56.6262 46.2535 57.1995 46.3007 57.7628 46.4191C58.3135 46.5346 58.8628 46.7037 59.3635 46.965C59.5044 47.039 59.7107 47.089 59.5452 47.2384C59.4241 47.3476 59.1861 47.3568 59.0304 47.3729C58.6861 47.4089 58.3889 47.6104 58.3452 47.9781C58.3065 48.3029 58.5002 48.6706 58.8452 48.7439C58.8642 48.7482 58.8818 48.7531 58.8973 48.7594C58.9065 48.777 58.9206 48.7918 58.9192 48.7679C58.9192 48.7679 58.9199 48.7672 58.9199 48.7679C58.9283 48.8193 58.9311 48.8396 58.9311 48.8432C58.929 48.839 58.9255 48.8214 58.9227 48.8073C58.9248 48.82 58.929 48.8404 58.9347 48.8707C58.9269 48.8376 58.9333 48.9187 58.9269 48.9313C58.7438 49.2695 58.2023 49.3646 57.8868 49.5104C57.8255 49.5385 57.7727 49.5717 57.7276 49.609C57.653 49.583 57.5769 49.5569 57.5002 49.528C57.122 49.3864 56.7445 49.249 56.3614 49.1214C55.622 48.8742 54.8734 48.6537 54.134 48.4057C52.734 47.9365 51.3804 47.3441 50.0065 46.8072C49.9628 46.6452 49.9121 46.4867 49.8523 46.3324C49.8403 46.3001 49.7825 46.2894 49.7762 46.3324C49.7551 46.4691 49.7382 46.6064 49.7241 46.7445C49.7185 46.7572 49.7171 46.7713 49.7199 46.7847C49.6403 47.5878 49.6614 48.41 49.6206 49.2124C49.5699 50.2128 49.4283 51.2061 49.3882 52.2072V52.2255C49.2403 53.0801 49.1065 53.9375 48.9854 54.7977C48.8495 54.7554 48.6938 54.7639 48.5347 54.8491C47.4093 55.45 46.1445 55.7847 44.872 55.8594C44.2311 55.8966 43.5966 55.8756 42.9593 55.8016C42.5403 55.7537 42.1276 55.6663 41.7142 55.5832C41.9318 54.6709 42.1656 53.7628 42.4297 52.8639C42.6473 52.1248 42.8896 51.3893 43.1889 50.6785C43.491 49.9606 43.8671 49.2751 44.2171 48.5791C44.3783 48.2571 44.1882 47.7646 43.7692 47.7985C43.6452 47.8083 43.5213 47.8161 43.3966 47.8217C42.184 47.8796 40.9227 47.7443 39.7255 47.6237C38.3628 47.4857 36.9818 47.3426 35.6311 47.1179C35.5311 47.1017 35.4903 47.2377 35.5889 47.2708C36.2297 47.4864 36.8628 47.7301 37.5199 47.8915C38.1959 48.0584 38.8762 48.2106 39.5621 48.3297C40.2192 48.4432 40.879 48.5382 41.541 48.6185C41.9727 48.6713 42.4093 48.6981 42.8438 48.7333C42.2586 49.6689 41.8551 50.7242 41.5037 51.7633C41.0523 53.0977 40.7206 54.4708 40.3959 55.841C39.7016 58.7781 39.129 61.7448 38.6811 64.7297C38.36 66.87 38.1002 69.0187 37.9051 71.1731C37.8473 70.5186 37.7769 69.8663 37.6973 69.2146C37.4311 67.051 37.0424 64.9016 36.5227 62.7846C36.5692 62.7029 36.591 62.605 36.5755 62.5099C36.4818 61.9279 36.2354 61.4214 36.0192 60.8818C35.8044 60.1279 35.5727 59.3791 35.3234 58.6358C35.0403 57.6234 34.7227 56.6266 34.3164 55.6529C34.0058 54.9111 33.6516 54.1882 33.2572 53.4873C32.7861 52.5073 32.2685 51.5486 31.7002 50.632C31.6706 50.5467 31.6227 50.4671 31.5544 50.4002C31.4509 50.2367 31.3459 50.0754 31.2389 49.9155C31.1692 49.8112 30.9692 49.8746 31.022 50.0071C31.0466 50.0691 31.0713 50.1311 31.0966 50.1924C28.7818 49.6133 26.5121 50.4988 24.3072 51.1526C23.7509 51.3182 23.1889 51.4675 22.6185 51.5753C22.1699 51.6598 21.6473 51.7627 21.2002 51.6696C20.9009 51.6077 20.7685 51.4717 20.9142 51.1519C21.0649 50.8208 21.4762 50.6031 21.8333 50.4566C21.9678 50.4277 22.1002 50.3762 22.2276 50.2987C22.5248 50.1184 22.6551 49.7422 22.5149 49.4216C22.3875 49.1321 22.0156 48.8827 21.6868 49.0151C21.6396 49.0342 21.5931 49.0525 21.5466 49.0708C21.5417 49.0637 21.5361 49.0539 21.5311 49.0398C21.484 48.9109 21.4635 49.0652 21.484 48.8806C21.5178 48.5791 21.8368 48.305 22.0551 48.1324C22.598 47.7019 23.3825 47.3835 24.0833 47.5463C24.1361 47.5582 24.1889 47.573 24.241 47.5913C24.9628 47.8414 25.3142 46.8016 24.7375 46.4141C24.7023 46.3909 24.6579 46.3613 24.6093 46.3268C24.3692 46.1598 24.0178 45.8787 24.1135 45.6251C24.2318 45.3102 24.9297 45.1291 25.1938 45.022C26.1487 44.6346 27.1804 44.4147 28.21 44.3697C29.2459 44.3246 30.2952 44.4387 31.2945 44.7183C31.7847 44.8551 32.2882 45.0629 32.7516 45.2729C33.1678 45.4609 34.0734 45.7096 34.1311 46.2366C34.1438 46.3529 34.3093 46.3923 34.3452 46.2655C34.629 45.2538 33.5276 44.6007 32.8009 44.183C32.3241 43.9081 31.7833 43.737 31.26 43.5686C30.7586 43.4066 30.2466 43.2875 29.7241 43.2156C28.6023 43.0621 27.4671 43.0818 26.3544 43.2974C25.341 43.494 24.2135 43.8293 23.3945 44.4817C22.8917 44.8818 22.6642 45.5187 22.8664 46.1401C22.8734 46.1605 22.8804 46.1816 22.8875 46.2021C21.9825 46.3641 21.1262 46.8826 20.5537 47.6054C20.0833 48.1993 19.8368 49.0257 20.2579 49.7169C20.2403 49.7295 20.2227 49.7429 20.2058 49.757C19.8044 50.0782 19.5058 50.5447 19.4171 51.0547C19.2431 52.0607 19.8509 52.7645 20.7009 53.0336C20.4903 53.2394 20.2882 53.4577 20.0903 53.6761C19.6473 54.1657 19.2241 54.699 18.8509 55.2429C18.0945 56.3448 17.448 57.5445 16.8825 58.7535C15.7199 61.2361 14.9868 63.9083 14.598 66.6178C14.4023 67.9831 14.2713 69.3555 14.2213 70.7335C14.1635 72.3045 14.222 73.8763 14.1917 75.448C14.1621 76.9585 13.9952 78.4323 13.6579 79.9048C13.3347 81.313 12.9037 82.6931 12.5135 84.0831C12.0734 85.6485 11.5889 87.2068 11.3565 88.8209C11.2389 89.6422 11.1544 90.4659 11.2199 91.2965C11.2861 92.1426 11.5931 92.8661 11.8762 93.653C11.948 93.8539 12.1671 93.9348 12.3424 93.8918C12.3818 94.2688 12.5241 94.6365 12.7361 94.9549C13.1861 95.6299 13.879 96.0603 14.6727 96.2167C15.5671 96.3921 16.4889 96.3506 17.3945 96.3181C18.3769 96.2829 19.36 96.2512 20.3424 96.2104C21.3709 96.1679 22.3994 96.1242 23.4279 96.0803C23.3939 95.0257 23.3533 93.9715 23.3075 92.9175C23.0595 87.2192 22.669 81.5175 22.6587 75.8117C22.6387 75.8001 22.6192 75.7862 22.6004 75.768C22.1374 75.3203 21.569 75.0262 21.0349 74.6758C20.7326 74.4775 21.0152 73.9897 21.3192 74.1892C21.7695 74.4846 22.2387 74.7471 22.6607 75.0782C22.6632 74.4842 22.6684 73.8903 22.6802 73.2963C22.6873 72.9335 23.2507 72.9335 23.2435 73.2963C23.2082 75.0865 23.22 76.8771 23.2605 78.6671C23.3916 84.4678 23.8035 90.2578 23.9911 96.0562C26.7517 95.9382 29.5124 95.8194 32.2734 95.7186C34.5192 95.6369 36.7649 95.5552 39.0107 95.4735C39.4818 95.4566 39.7466 95.1197 39.8044 94.6794C39.91 93.8692 39.7114 93.0317 39.2621 92.3504C39.2156 92.2799 39.1607 92.2173 39.0995 92.1637C39.11 91.6783 39.1297 91.1921 39.1023 90.7068C39.0614 89.9657 39.0002 89.2245 38.9466 88.4841C38.8382 87.0011 38.7544 85.5153 38.7213 84.0288C38.6537 81.0558 38.703 78.08 38.8713 75.1113C39.2086 69.1801 39.9938 63.2869 41.279 57.4854C41.3727 57.0627 41.4671 56.64 41.5649 56.218C42.5642 56.7372 43.7797 56.9238 44.872 56.9309C46.241 56.9394 47.5797 56.6244 48.8163 56.0518C48.8079 56.1158 48.7994 56.1792 48.7917 56.2433C48.4466 58.9909 48.1558 61.744 47.9023 64.5008C47.3966 69.9966 47.0868 75.5149 47.1297 81.0353C47.1417 82.5649 47.2002 84.0894 47.2727 85.6168C47.3466 87.1702 47.46 88.8117 47.8924 90.3102C47.9403 90.4757 48.0466 90.5708 48.1692 90.6054C48.1755 90.8237 48.1896 91.0428 48.2051 91.2584C48.2551 91.9594 48.398 93.4156 48.7037 94.051C49.0016 94.671 49.498 95.1628 50.1311 95.4334C50.9354 95.7764 51.8051 95.6778 52.6544 95.6228C56.3473 95.3819 60.0375 95.0592 63.7283 94.776C64.2424 94.7365 64.7565 94.6978 65.2699 94.6576C65.7269 94.6224 66.1995 94.5913 66.6051 94.354C67.0664 94.0842 67.4262 92.759 67.2671 92.2109C67.2382 92.1109 67.1945 92.0122 67.1368 91.9235Z" fill="currentColor"/>
<path fill-rule="evenodd" clip-rule="evenodd" d="M38.7262 14.0028C40.9241 13.7004 43.9577 14.6834 45.0523 16.6654C50.278 15.433 56.8691 15.3926 61.1762 19.4954C65.6705 24.3622 60.0254 30.7792 56.2823 32.2259C56.5548 33.5509 56.1299 42.0391 53.1232 45.8253C50.737 49.0333 45.1802 50.5138 42.6088 46.6821L42.5888 46.6505C42.3133 46.208 42.5505 46.2222 42.8333 46.5513C45.3512 48.7664 48.7747 48.8043 51.4128 46.4666C56.357 42.1938 55.8472 31.7171 53.4945 25.6563C46.7952 24.9202 39.6224 26.9515 34.9953 31.9963L35.3082 33.8807C35.3615 34.2018 35.4221 34.5225 35.4683 34.8447C35.4978 35.0511 35.5011 35.2564 35.3582 35.4235C34.8861 35.9751 34.0906 35.1462 33.436 34.8165C33.2428 34.7893 33.0492 34.7788 32.8593 34.7922C29.7144 35.1975 30.334 41.3005 33.7905 40.2308C34.0809 40.0498 34.3304 40.105 34.4431 40.3676C35.267 41.1226 35.8102 42.469 37.179 43.7659C37.662 44.2523 38.1015 44.6593 38.6447 45.0495C38.9638 45.3723 39.9266 45.7015 39.6214 46.2539C39.0442 47.5109 35.6407 43.5625 35.0389 42.4706C33.1535 43.2154 31.064 42.9624 29.1102 42.7803C18.8024 42.2442 20.1785 31.3745 28.6275 24.5119C30.2179 23.3406 31.9726 22.385 33.7966 21.6498C34.0457 21.5494 33.9368 21.1403 33.6843 21.2421C32.4774 21.7287 31.3009 22.3079 30.1793 22.9782L30.1776 22.5775C30.176 21.9025 30.1866 21.1997 30.3038 20.583C30.3623 20.1556 30.4609 19.6992 30.6126 19.3558C30.8001 18.3031 33.7378 14.6896 38.7262 14.0028ZM32.7218 36.1934C32.8809 36.0421 33.178 36.2225 33.3197 36.218C33.682 36.2676 34.0263 36.4206 34.2947 36.6096C34.472 36.7089 34.5962 36.8022 34.7 36.888L34.7028 36.8872C34.702 36.8872 34.701 36.888 34.7002 36.8882L34.71 36.8948C34.8611 37.0023 35.4144 37.6074 35.0648 37.4446C35.0388 37.4108 35.0121 37.3782 34.9852 37.3463C34.9823 37.3507 34.9783 37.355 34.9735 37.3591L34.9931 37.3883C35.2903 37.8354 34.7773 37.3643 34.6984 37.2392C34.6946 37.2422 34.6904 37.2443 34.6863 37.2465L34.789 37.3716C34.8034 37.3894 34.8147 37.4036 34.8241 37.4155L34.8457 37.4365C35.1893 37.7743 35.2 38.0783 34.8009 37.5788C34.8166 37.6024 34.8292 37.6273 34.831 37.6494L34.8546 37.6796C35.168 38.0835 34.9131 37.9401 34.7574 37.7676L34.7444 37.7527L34.747 37.7568C34.8919 37.98 34.6045 37.8234 34.5537 37.7039L34.5515 37.6985C34.4962 37.6534 34.4621 37.6027 34.4505 37.5899L34.4483 37.5877C34.1789 37.3116 33.7883 37.0779 33.4565 36.9717C33.4084 36.9625 33.3598 36.9552 33.3106 36.95C33.1111 36.9055 32.9094 36.875 32.7056 36.8585C32.6807 36.8555 32.6554 36.8372 32.6365 36.8135C32.3284 36.8032 32.4235 36.6768 32.5514 36.6533L32.5536 36.6529L32.5282 36.6508C32.3304 36.6315 32.1954 36.5605 32.3954 36.5169L32.4207 36.5119C32.4176 36.507 32.4149 36.5022 32.4122 36.4973C32.2409 36.4785 32.3527 36.3119 32.4477 36.3522C32.4077 36.2214 32.5906 36.2867 32.6134 36.2673C32.6308 36.248 32.6524 36.2309 32.6649 36.23C32.7199 36.1911 32.6932 36.1946 32.7218 36.1934ZM33.7697 34.0753L33.7295 34.0987C33.6971 34.1177 33.6637 34.1303 33.6302 34.1377C33.6775 34.1578 33.7242 34.1796 33.7705 34.2028C33.7698 34.1744 33.7692 34.146 33.7692 34.1177L33.7697 34.0753Z" fill="currentColor"/>
<path fill-rule="evenodd" clip-rule="evenodd" d="M47.7173 42.7579C47.2439 42.5647 46.8215 42.2424 46.5127 41.8307C46.4053 41.6876 46.3775 41.5365 46.4 41.3983C46.4254 41.2428 46.5173 41.102 46.6426 41.0075C46.7684 40.9127 46.9257 40.866 47.0777 40.8898C47.2098 40.9105 47.3414 40.9829 47.4455 41.133L47.4672 41.163C47.6508 41.4115 47.8901 41.6153 48.1627 41.7467C48.4254 41.8734 48.7192 41.9325 49.0233 41.8981C49.6025 41.8327 50.0016 41.5193 50.4259 41.0939C50.4785 41.0401 50.5311 40.9847 50.584 40.9284C50.6174 40.8774 50.6637 40.8446 50.7152 40.8274C50.7723 40.8083 50.837 40.8094 50.8961 40.83C50.9532 40.85 51.0043 40.8877 51.0385 40.938C51.071 40.9858 51.0895 41.0448 51.0835 41.1127C51.0447 41.5536 50.8142 41.9472 50.4869 42.2562C50.1233 42.5994 49.6414 42.8368 49.1877 42.9201C48.6878 43.0118 48.1785 42.9461 47.7173 42.7579ZM49.4235 35.9553C49.9553 36.2786 50.7656 37.0327 50.1935 37.8343C49.5201 38.5412 48.5505 37.7307 48.0728 37.3642C47.6298 37.0801 47.132 37.8107 47.543 38.1424C50.9954 40.6994 52.3965 36.0398 49.6925 35.5751C49.3947 35.5238 49.2842 35.8552 49.4235 35.9553ZM43.2368 32.9808C43.2956 32.2512 44.4063 32.0855 44.5168 32.8075C44.6157 33.4542 44.4993 34.0483 44.2081 34.6306C43.9298 35.1869 43.2305 34.9273 43.1776 34.4208C43.1067 33.7418 43.2002 33.4347 43.2368 32.9808ZM51.692 32.6578C51.8468 32.4549 52.0704 32.3164 52.3383 32.3947C53.1753 32.6393 52.9286 33.828 52.6347 34.4066C52.4749 34.7209 51.9587 34.8005 51.7254 34.5239C51.3451 34.0727 51.163 33.1717 51.6464 32.7273C51.6595 32.7044 51.6741 32.6812 51.692 32.6578ZM44.1963 29.7883L44.3285 29.7651C44.7375 29.6944 45.246 29.6264 45.5354 29.9553C45.6888 30.1298 45.7416 30.454 45.5354 30.6209C45.1725 30.9147 44.7714 30.8009 44.3366 30.8257C43.9783 30.8463 43.634 30.9056 43.2888 31.0043C42.5316 31.2208 41.9147 31.616 41.268 32.05C41.1831 32.1069 41.0965 31.9984 41.137 31.919C41.5103 31.1875 42.2337 30.5866 42.9584 30.2204C43.3451 30.0249 43.7684 29.8627 44.1963 29.7883ZM50.929 29.4606L51.0302 29.4813C52.1314 29.7116 53.5622 30.1716 54.0836 31.2537C54.1035 31.4067 54.0825 31.4395 54.0654 31.4609L54.0598 31.468C54.0457 31.4863 54.0345 31.5115 53.9682 31.5324C53.9498 31.528 53.9312 31.5233 53.9124 31.5184C53.6734 31.4558 53.4843 31.3694 53.3012 31.2798L53.1026 31.182C52.8723 31.069 52.64 30.9602 52.3937 30.8798C51.8682 30.7083 51.3277 30.5875 50.7788 30.523C50.6598 30.5091 50.5453 30.4689 50.4549 30.4001C50.3691 30.3347 50.3036 30.2442 50.2737 30.124C50.235 29.9684 50.2461 29.8505 50.3296 29.7101C50.3923 29.6047 50.4821 29.5316 50.5852 29.4896C50.6904 29.4469 50.8101 29.4368 50.929 29.4606Z" fill="currentColor"/>
<path fill-rule="evenodd" clip-rule="evenodd" d="M56.3569 37.4095C56.1235 37.096 55.704 36.6847 55.2796 36.7068C55.2253 36.7096 55.205 36.7684 55.2376 36.8082C55.3764 36.9778 55.566 37.0984 55.7051 37.2715C55.8697 37.4764 55.9885 37.7234 56.0657 37.9733C56.178 38.3364 56.209 38.7472 56.1089 39.1164C55.9326 39.7671 55.375 40.244 54.7667 40.4876C54.1646 40.7286 53.4401 40.811 52.8707 40.4578C52.0302 39.9363 51.3173 39.1846 50.2609 39.1697C50.0138 39.1663 49.8396 39.2795 49.7359 39.4411C49.6317 39.2853 49.4597 39.175 49.2188 39.1723C48.0345 39.1589 47.1505 39.9745 46.1565 40.483C45.4848 40.8266 44.6155 40.72 43.9225 40.4929C43.2688 40.2788 42.5591 39.8489 42.3125 39.1699C42.1764 38.795 42.2069 38.3572 42.3467 37.9876C42.4386 37.7446 42.5805 37.5098 42.756 37.3188C42.9381 37.1207 43.1774 36.9961 43.3638 36.8083C43.4019 36.7699 43.3719 36.7102 43.3218 36.7068C42.5298 36.653 41.8147 37.599 41.6652 38.2854C41.5179 38.9613 41.7375 39.6354 42.1819 40.1512C43.0857 41.1997 44.7591 41.5456 46.0615 41.2374C47.1156 40.9881 48.1168 40.4138 49.2188 40.4962C49.4603 40.5143 49.6337 40.4136 49.7384 40.2608C49.8431 40.418 50.0176 40.5208 50.2609 40.4973C51.2879 40.3977 52.2046 41.1253 53.2015 41.303C53.9953 41.4444 54.8526 41.2537 55.5328 40.8259C56.2437 40.3788 56.7441 39.6615 56.7771 38.8064C56.796 38.3145 56.6517 37.8055 56.3569 37.4095Z" fill="currentColor"/>
</g>
</svg>
