<svg width="83" height="108" viewBox="0 0 83 108" fill="none" xmlns="http://www.w3.org/2000/svg">
<g opacity="0.75">
<path fill-rule="evenodd" clip-rule="evenodd" d="M37.6809 45.1009C37.9797 44.3497 38.9898 44.6418 38.8772 45.4309C38.8098 45.9037 38.551 46.4029 38.3185 46.8173C38.1292 47.1545 37.9133 47.4836 37.6206 47.7364C38.1417 48.2228 38.6826 48.6914 39.2373 49.1364C39.8425 49.6219 40.4789 50.0694 41.1367 50.4807C41.7135 50.8414 42.3164 51.1609 42.8601 51.5725C43.3657 51.9551 43.8263 52.4153 44.0606 53.016C44.3103 53.6557 44.2018 54.3164 44.018 54.9557L43.9968 55.0279C43.809 55.6613 43.4839 56.4247 43.9347 57.0215C44.1642 57.3252 44.4979 57.5404 44.786 57.7832C45.042 57.9991 45.2824 58.2338 45.5028 58.486C45.9834 59.0356 46.3744 59.6541 46.6211 60.3432L46.6431 60.4059C46.8546 61.0159 47.0091 61.7633 46.7234 62.3622C46.6414 62.5339 46.377 62.4781 46.3311 62.3109C46.2273 61.9322 46.2327 61.5355 46.1457 61.1515C46.0551 60.752 45.9044 60.3728 45.7076 60.0141C45.3268 59.3201 44.811 58.7273 44.2017 58.2262L44.0192 58.0778C43.5439 57.6875 43.1071 57.2735 43.0106 56.6276C42.9074 55.9365 43.1842 55.2782 43.3621 54.6242C43.4861 54.1684 43.5266 53.7314 43.3926 53.3195C43.2289 53.5869 43.0055 53.8406 42.8288 54.067C42.4769 54.5179 42.1217 54.9661 41.7674 55.4152C41.4042 55.8757 41.0499 56.3434 40.7125 56.8232C40.5615 57.0379 40.4123 57.2538 40.2635 57.4699C40.1515 57.6324 39.9955 57.7947 39.8735 57.9604C39.9032 58.049 39.9009 58.1512 39.8472 58.2238C39.2003 59.098 38.2801 57.2738 38.0401 56.8129C37.5514 55.8743 37.1877 54.8772 36.6973 53.9388C36.1892 52.966 35.6106 52.0191 34.9658 51.1311C34.5757 50.5939 34.1385 50.0893 33.7817 49.5351C32.9411 50.2976 31.8349 50.8088 30.8188 51.2724C29.7024 51.7816 28.5426 52.1977 27.398 52.6394L27.0599 52.7708C25.0878 53.5408 23.0674 54.3867 21.4282 55.7543C19.5019 57.3615 18.3623 59.6016 17.5139 61.9212C16.5373 64.5916 15.7294 67.3341 14.9762 70.0748C14.5908 71.4771 14.2251 72.8858 13.8813 74.2989C13.5783 75.5439 13.3272 76.8013 12.9765 78.0335C13.6877 78.0083 14.4989 78.2838 15.1062 78.3633C17.8737 78.7257 20.604 79.3034 23.2169 80.3036C23.5396 80.4272 23.633 80.7496 23.5627 81.011C23.7489 80.9584 23.9349 80.9052 24.121 80.8529C23.9171 80.5403 24.0144 79.9815 24.0304 79.635L24.0314 79.6112C24.0479 79.1496 24.098 78.6874 24.1304 78.2266C24.1922 77.3481 24.2727 76.4761 24.3797 75.6027L24.407 75.3843C24.5283 74.4341 24.618 73.4783 24.7503 72.5297L24.7659 72.4211C24.7025 72.1784 24.6286 71.9387 24.5511 71.7C24.3444 71.0642 24.0528 70.4657 23.7973 69.8499C23.7671 69.7774 23.8704 69.7358 23.9186 69.7793C24.3514 70.1688 24.6952 70.6629 24.9714 71.1797C24.9762 71.1554 24.9804 71.1309 24.9854 71.1065L25.0169 70.9514C25.0947 70.5729 25.1892 70.1747 25.4213 69.8678C25.446 69.8351 25.4949 69.8283 25.5182 69.8678C25.7404 70.2437 25.7652 70.7199 25.7994 71.1478C25.838 71.6318 25.8429 72.1219 25.8361 72.6072C25.8227 73.5557 25.7559 74.5068 25.7027 75.4537C25.6504 76.3843 25.5479 77.303 25.4157 78.2243L25.3906 78.3971C25.3259 78.8357 25.273 79.2797 25.1878 79.7153L25.1637 79.8338C25.1182 80.0498 25.0901 80.3544 24.9994 80.6074C27.3331 79.9562 29.6703 79.3199 32.012 78.6948C33.7045 78.2429 35.3987 77.7978 37.0923 77.3499C37.1816 77.1888 37.2929 77.0383 37.4318 76.9038C37.8893 76.4605 38.4956 76.2628 39.0518 76.604C39.097 76.6318 39.1008 76.7027 39.0518 76.7295C38.9452 76.7878 38.8384 76.8475 38.7336 76.9098L39.7505 76.6343C40.5106 76.4282 41.2797 76.1707 42.0577 76.0271C43.4906 75.3197 45.0317 74.8076 46.5411 74.3016L46.719 74.2414C47.4919 73.9778 48.2913 73.6827 49.0898 73.5366C49.6744 73.4296 50.3606 73.5587 50.5956 74.1578C50.8932 74.354 51.1732 74.5846 51.4435 74.8114C51.6388 74.9752 51.8261 75.1495 52.0165 75.3191L52.0516 75.3499C52.2073 75.4851 52.3306 75.5756 52.3688 75.7906C52.3885 75.9017 52.318 76.0519 52.181 76.0372C51.7619 75.9923 51.4211 75.5064 51.1369 75.2162C50.9173 74.9919 50.696 74.7599 50.4956 74.5134C50.3787 74.5771 50.2186 74.5656 50.1442 74.4247C49.7586 73.6942 48.7022 74.2004 48.1177 74.3737L47.2804 74.6216C46.8617 74.7457 46.4433 74.8705 46.0255 74.9974C44.8773 75.3462 43.7348 75.7366 42.5762 76.0569C42.6799 76.1709 42.6656 76.3737 42.4687 76.4508C41.5618 76.8068 40.5668 76.9909 39.6246 77.2351C39.0298 77.3895 38.4353 77.5448 37.841 77.701C37.7391 77.8661 37.6658 78.0529 37.6349 78.2704C37.5215 79.0701 37.7402 79.9927 37.9533 80.7661L37.9854 80.8815C38.1606 81.5033 38.4182 82.2655 38.9545 82.6582C39.0854 82.7539 39.2521 82.8206 39.4201 82.8356C40.4699 82.2951 41.5196 81.7546 42.57 81.2151C42.7646 81.1151 42.9444 81.2504 42.988 81.4114C43.3584 81.3506 43.7279 81.2547 44.0644 81.1405C44.6299 80.9484 45.0715 80.5819 45.6016 80.3285C46.6274 79.8383 47.6749 80.4405 48.5933 80.8982L48.805 81.0023C49.2169 81.2022 50.0737 81.5863 50.2713 81.0395C50.4625 80.5106 49.8582 79.9453 49.4679 79.7072C49.0027 79.4234 48.461 79.2715 47.9352 79.145C47.635 79.0727 47.3311 79.0137 47.0254 78.9707C46.6787 78.9219 46.3205 78.9292 45.9866 78.8167C45.8207 78.7609 45.7952 78.4973 45.9866 78.4537C46.5006 78.3367 47.114 78.4643 47.6503 78.5948L47.9306 78.6639C48.471 78.7965 49.0165 78.963 49.5087 79.2276C49.8666 79.4201 50.2444 79.7124 50.4911 80.0703C50.7054 79.8712 50.9721 79.8779 51.2499 79.9518L51.4007 79.9937C51.6497 80.0628 51.8516 80.1103 52.0939 80.0624C52.1263 79.8861 52.1591 79.7097 52.1942 79.5333C52.5395 77.7992 52.9182 76.0718 53.336 74.3536C54.0567 71.3899 54.8906 68.4588 55.8308 65.5577L55.9251 65.2676C56.142 64.6041 56.3165 63.8811 56.6661 63.2715C56.9967 62.6951 57.5264 62.3631 58.1558 62.1872C58.87 61.9877 59.6205 61.8833 60.3491 61.7485C60.5116 61.7185 60.6746 61.69 60.8373 61.6605C60.6998 61.4121 60.5972 61.1303 60.5047 60.914L60.4885 60.8765C60.29 60.4236 60.1116 59.9625 59.9393 59.499L59.8105 59.1505C59.4995 58.3114 59.1784 57.4861 58.7411 56.7013C58.2808 55.8753 57.6702 55.2 56.909 54.6412C55.357 53.5016 53.4864 52.9203 51.9811 51.7024C51.9194 51.6525 51.9985 51.5672 52.0611 51.5988C53.0775 52.1097 54.1748 52.4571 55.232 52.873L55.4405 52.9553C56.2761 53.2867 57.1247 53.6474 57.848 54.1839C58.6543 54.7822 59.2894 55.5252 59.7667 56.4087C60.2371 57.2796 60.538 58.2544 60.8699 59.1846L60.9587 59.4325C61.0926 59.8042 61.2308 60.1747 61.3893 60.5364C61.5151 60.8236 61.7498 61.1514 61.8565 61.4794C62.1484 61.4287 62.4402 61.378 62.7324 61.3291C69.0611 60.2721 75.4604 59.651 81.874 59.4693C82.1249 59.4622 82.2547 59.7017 82.2178 59.9207C81.6023 63.5616 81.0553 67.215 80.4551 70.8587C80.1932 72.449 79.926 74.038 79.6525 75.6263C79.514 76.431 79.3539 77.2326 79.2227 78.0385C79.1168 78.6893 79.0399 79.3452 78.858 79.9809C78.6949 80.5509 78.4446 81.1006 78.0336 81.5355C77.5905 82.0043 76.972 82.2312 76.3495 82.3384C74.7692 82.6105 73.1482 82.7216 71.555 82.9029L63.0728 83.8682C63.1968 84.9953 63.206 86.1049 63.1492 87.2451L63.1167 87.8676C63.0902 88.3682 63.0586 88.8697 62.9867 89.3652C62.8965 89.9868 62.6123 90.5131 62.1937 90.9773C61.8092 91.4037 61.3422 91.7675 60.8879 92.1161C60.4163 92.4781 59.9291 92.8274 59.3746 93.0513L59.3027 93.0798C58.8163 93.2698 57.9039 93.564 57.239 93.4565C57.3259 93.8921 57.4941 94.3604 57.345 94.7914C57.2758 94.9916 57.0142 95.0914 56.8539 94.9211C56.5364 94.5836 56.5116 94.1378 56.4364 93.6975C56.3582 93.2393 56.2907 92.7795 56.2308 92.3185C56.1149 91.4272 56.0246 90.5278 55.9971 89.629C55.9688 88.706 55.9797 87.7817 56.0294 86.8596C56.055 86.3861 56.0867 85.9129 56.1468 85.4424C56.1724 85.2418 56.1986 85.041 56.2285 84.8409C56.2394 84.7679 56.2515 84.6952 56.2646 84.6227L55.5033 84.7087C54.3359 84.8391 53.1679 84.9568 51.9923 84.9751C51.8531 84.9772 51.746 84.9138 51.676 84.8214C51.6014 84.9429 51.4715 85.0299 51.2856 85.0292C49.6438 85.023 48.1149 84.486 46.6217 83.8531C45.869 83.5339 45.128 83.1885 44.3742 82.8721C43.6706 82.5767 42.9184 82.366 42.2318 82.0334L40.4276 82.9801C40.4144 83.0266 40.3974 83.0707 40.3794 83.1075C40.2619 83.3474 40.0303 83.4775 39.7937 83.5755C39.5667 83.6698 39.3315 83.6991 39.1025 83.6753C37.7341 84.3926 36.3655 85.1092 34.9959 85.8242L33.6261 86.5386C30.8968 87.9602 28.1782 89.4051 25.4318 90.7933L25.2296 90.8952C24.2809 91.371 23.2623 91.8534 22.2095 92.2133C22.1908 92.4799 22.2026 92.7392 22.2249 93.0213L22.2303 93.0828C22.2617 93.4162 22.329 93.834 22.0616 94.0714C21.9225 94.1948 21.6741 94.1953 21.5795 94.0092C21.4079 93.6716 21.562 93.1395 21.6163 92.7728C21.6356 92.6424 21.6592 92.5084 21.6939 92.3783C20.487 92.7378 19.2436 92.912 18.0154 92.7102C16.8196 92.5139 15.8935 91.7603 15.1469 90.8385C14.3589 89.8658 13.799 88.7322 13.4986 87.517C13.1567 86.1342 13.1344 84.7062 13.1424 83.2898C13.1509 81.7815 13.2067 80.2658 13.3901 78.7676C13.1892 78.7204 12.9663 78.6795 12.7633 78.6936C12.6627 78.8546 12.4677 78.9224 12.2914 78.9014C11.9081 79.3243 12.8804 79.7565 13.1911 79.8648C13.2989 79.9024 13.2874 80.0777 13.163 80.0724L13.0846 80.0686C12.6045 80.0431 12.1085 79.9611 11.8262 79.5148C11.6 79.157 11.668 78.7332 11.9376 78.4415C12.1157 76.7569 12.5415 75.1164 12.9377 73.4731C13.3266 71.8602 13.7591 70.2576 14.2175 68.6631L14.423 67.9494C15.1447 65.4492 15.899 62.9289 16.8946 60.528C17.3917 59.3293 17.9644 58.1525 18.7406 57.1073C19.4642 56.1329 20.3185 55.2991 21.3005 54.587C23.1311 53.2593 25.2792 52.4571 27.3897 51.6928L27.4842 51.6586C28.578 51.2628 29.669 50.8623 30.7503 50.4335C31.7065 50.0542 32.6227 49.5734 33.5744 49.1885C33.5435 49.1323 33.5137 49.0755 33.4849 49.0181L33.4673 49.0329C33.4643 49.0353 33.4612 49.0376 33.458 49.0398C33.3623 49.1062 33.2214 49.0736 33.1425 48.9991C32.9198 48.7889 32.9952 48.5555 33.1439 48.3375L33.1632 48.3097C33.3451 48.0549 33.5073 47.7855 33.6751 47.5215L33.7802 47.3563C34.0618 46.9152 34.3579 46.4711 34.7334 46.1066C34.9074 45.9376 35.0978 45.8112 35.2996 45.717C35.2823 45.6805 35.4336 45.6059 35.4765 45.6435C36.1157 45.4094 36.8511 45.4585 37.548 45.523M62.6624 83.9149L61.7737 84.016C60.7959 84.1273 59.8178 84.2349 58.8395 84.3414L56.7147 84.5724C56.7093 84.6936 56.6946 84.8121 56.6919 84.9036C56.678 85.3754 56.6677 85.8475 56.6579 86.3194C56.6382 87.2654 56.6598 88.2123 56.722 89.1565C56.7824 90.0714 56.8619 90.9864 56.9853 91.8951L57.0106 92.0767L57.0253 92.1722C57.1261 92.182 57.2251 92.2299 57.3074 92.3283C57.4871 92.543 58.1379 92.3343 58.392 92.2438C58.81 92.095 59.2036 91.8437 59.5668 91.5916C59.9214 91.3455 60.2408 91.0585 60.5477 90.7561L60.7988 90.5077C61.0485 90.2594 61.2986 89.9949 61.4516 89.6825C61.6592 89.259 61.686 88.7391 61.7468 88.2778C61.8218 87.7104 61.911 87.143 62.0053 86.5784M36.8627 77.9589L36.7706 77.9831C33.4219 78.8732 30.0782 79.7897 26.7193 80.6405C25.057 81.0616 23.3869 81.4521 21.7226 81.8652L21.4531 81.9326C20.1402 82.2646 18.8115 82.6641 17.8061 83.6168C17.7689 83.6519 17.7151 83.598 17.75 83.5607C18.8336 82.4067 20.3747 81.9182 21.8544 81.4948C22.128 81.4165 22.4018 81.3401 22.6754 81.2622C20.663 80.5445 18.6189 79.9201 16.5275 79.4748C15.989 79.3601 15.4442 79.2759 14.9061 79.1608C14.5309 79.0805 14.1644 78.9644 13.793 78.868L13.501 78.7946L13.4971 79.718C13.4922 81.0259 13.4946 82.3327 13.5613 83.6405L13.5739 83.8827C13.6517 85.338 13.7732 86.8235 14.2894 88.1958C14.7089 89.3109 15.3776 90.3613 16.252 91.1735C16.6945 91.5845 17.1702 91.9044 17.7582 92.0623C18.3042 92.209 18.8763 92.2261 19.4375 92.187C22.1297 91.9992 24.5262 90.5361 26.8648 89.3248C30.6899 87.3435 34.5155 85.3633 38.3445 83.3896C38.241 83.3188 38.1435 83.2372 38.0549 83.1455C37.5414 82.6151 37.2706 81.8889 37.0927 81.1856C36.9033 80.437 36.7901 79.6346 36.7769 78.8618M41.7348 84.1544C41.7686 84.1362 41.8078 84.159 41.8093 84.1972C41.8211 84.4897 41.6595 84.7783 41.5388 85.0418L41.526 85.07C41.3793 85.3964 41.2187 85.7185 41.0525 86.0356C40.7205 86.669 40.3754 87.2956 40.0153 87.9134C39.2911 89.1562 38.4863 90.3467 37.535 91.4288C37.3201 91.6733 36.9668 91.3598 37.1047 91.0966C37.7694 89.8278 38.5444 88.6298 39.3422 87.4422C39.7416 86.8476 40.1406 86.2525 40.5439 85.6606C40.7122 85.4136 40.8826 85.1675 41.0576 84.9251L41.1632 84.7801M81.4499 60.196C78.0896 60.2975 74.7332 60.5168 71.3888 60.8604C68.2785 61.1798 65.1796 61.6052 62.0982 62.1354C61.4546 62.2461 60.8118 62.3614 60.1698 62.4812L59.7847 62.5536C59.1426 62.6754 58.3582 62.7256 57.7865 63.0688C57.1837 63.4305 57.0208 64.1866 56.8203 64.8101C56.5845 65.5433 56.3547 66.2787 56.1311 67.0158C55.2432 69.9425 54.4322 72.8946 53.7087 75.8662C53.3495 77.3412 53.0308 78.8244 52.6951 80.3048C52.3968 81.6201 52.0676 82.9205 51.7237 84.2227C51.7661 84.1897 51.8181 84.1646 51.8808 84.1512C53.5884 83.7878 55.3315 83.6298 57.0646 83.429L57.2323 83.4095C59.0252 83.1985 60.8181 82.9892 62.612 82.7874L74.4894 81.4512C75.1899 81.3724 75.9404 81.3617 76.622 81.1737C77.781 80.8538 78.0527 79.5575 78.2472 78.5252L78.253 78.494C78.8393 75.375 79.306 72.2288 79.8528 69.1019M52.0001 80.5969C51.539 80.5664 50.9079 80.144 50.558 80.1742C50.7417 80.4825 50.8246 80.8342 50.7187 81.2097C50.4242 82.2546 49.092 81.7139 48.4503 81.3947C47.9242 81.1329 47.4161 80.8125 46.8337 80.6898C46.1738 80.551 45.7268 80.8135 45.1693 81.1161C44.7114 81.3646 44.2127 81.543 43.6999 81.6354C43.4273 81.6846 43.1682 81.6898 42.9097 81.6706C42.8942 81.6833 42.8766 81.6951 42.8566 81.7056L42.7199 81.7773C43.3382 81.8057 43.9681 81.9966 44.5436 82.1714C45.1399 82.3524 45.7254 82.5707 46.3077 82.7939L46.8805 83.0141C48.2936 83.5555 49.7563 84.0695 51.2856 84.065C51.3955 84.0647 51.4856 84.0951 51.5565 84.1448M49.4202 77.3228C49.8757 77.2671 50.2962 77.3268 50.6602 77.6235C51.0992 77.9812 51.3942 78.5745 52.0253 78.6135C52.2093 78.6248 52.2521 78.8837 52.0692 78.9378C51.5994 79.0769 51.219 78.8227 50.899 78.4925L50.6838 78.2676C50.3675 77.94 50.0757 77.6867 49.539 77.7062C48.9642 77.7272 48.3885 77.8601 47.8174 77.9277C47.1705 78.0042 46.5238 78.0694 45.8748 78.1257C45.8447 78.1283 45.8395 78.0808 45.8678 78.0738L46.5946 77.8929M48.9804 75.4596L49.0556 75.4521C49.7171 75.3879 50.3221 75.3854 50.9129 75.7414L51.0262 75.8099C51.5589 76.1338 52.1386 76.5154 52.4718 77.0398C52.5263 77.1256 52.4362 77.2266 52.345 77.2048C51.7048 77.051 51.2368 76.5811 50.6984 76.2295C50.0942 75.8348 49.47 75.8999 48.7811 75.9612C48.114 76.0206 47.4473 76.1021 46.7868 76.2134C46.1662 76.3178 45.5436 76.4826 44.9167 76.5352L44.9168 76.5339C44.8452 76.5338 44.8044 76.4262 44.8774 76.3897C45.5136 76.0719 46.2504 75.9215 46.9425 75.7763M69.0765 68.9187C69.0126 68.6128 69.3888 68.4709 69.5632 68.7136L69.6002 68.7648C69.9769 69.281 70.5217 69.9289 70.494 70.5855C70.8251 70.5928 71.1684 70.794 71.2974 71.0929C71.3571 71.2312 71.3773 71.3951 71.3641 71.5648C71.6651 71.5881 71.9934 71.7858 72.1774 71.9783C72.4824 72.2974 72.5065 72.7482 72.2877 73.1211C71.8106 73.9338 70.7684 74.2294 69.8886 74.2954L69.8572 74.2977C68.9485 74.3605 67.6391 74.3435 67.016 73.5636C66.4149 72.8112 67.0792 72.2021 67.7604 71.8713C67.5831 71.7094 67.4913 71.4771 67.5776 71.2322C67.7292 70.8016 68.2645 70.6353 68.567 70.336C68.9357 69.9711 69.1793 69.4706 69.0822 68.9473M69.576 69.5803C69.4758 70.016 69.2296 70.4144 68.8867 70.7302C68.7555 70.851 68.6121 70.9585 68.4597 71.0508L68.4414 71.0615C68.3061 71.1374 67.9737 71.2797 67.9993 71.4501C68.0256 71.6253 68.5672 71.8994 68.7148 71.8995C68.7484 71.8995 68.7674 71.952 68.7332 71.9672C68.4656 72.0854 68.232 72.1361 67.9703 72.0112C67.7955 72.1897 67.6258 72.3744 67.4576 72.5575C67.1602 72.8815 67.262 73.2236 67.6134 73.4649C68.178 73.8525 69.0363 73.843 69.6951 73.8149C70.3582 73.7865 71.067 73.6386 71.585 73.1967L71.6075 73.1771C71.889 72.9266 72.1462 72.5022 71.715 72.261C71.5462 72.1665 71.3639 72.1721 71.2036 72.1262C71.0536 72.4203 70.8103 72.6559 70.5134 72.7013C70.2734 72.738 70.1082 72.4363 70.3264 72.292L70.3755 72.2615C70.6496 72.0865 70.8834 71.817 70.8772 71.466C70.873 71.2223 70.5328 70.9145 70.3112 71.1435L70.3011 71.1544C70.1157 71.3635 69.7891 71.1001 69.911 70.8684L69.9169 70.8579M26.3281 57.4643C26.3273 57.412 26.4009 57.3924 26.4266 57.4377C26.857 58.1953 27.082 59.1239 27.3113 59.9585C27.5515 60.8328 27.7453 61.7159 27.9195 62.6056C28.2722 64.4071 28.4602 66.1982 28.4729 68.0343C28.4747 68.2964 28.0478 68.3661 28.006 68.0975C27.7288 66.3115 27.4631 64.5237 27.1838 62.7382C27.0432 61.8402 26.8796 60.9456 26.7231 60.0503M30.5893 58.7838C30.5576 58.6794 30.7096 58.6444 30.7484 58.74C31.6122 60.8611 31.9048 63.265 31.3502 65.5029C31.2653 65.8452 30.7641 65.6969 30.8281 65.3589M41.7313 56.899C41.727 56.8208 41.8285 56.8085 41.8667 56.8623C42.276 57.4392 42.4458 58.2119 43.1639 58.51C43.5224 58.6589 43.9258 58.633 44.2426 58.8844C44.4544 59.0526 44.6168 59.318 44.4578 59.5727C44.4066 59.655 44.263 59.6962 44.1935 59.6068C44.0919 59.4765 44.0382 59.3205 43.9002 59.2229C43.7056 59.0852 43.4432 59.0766 43.2201 59.0119C42.9316 58.9282 42.6772 58.7817 42.4689 58.5641M48.5692 47.2767C48.6114 47.2552 48.6519 47.2689 48.6789 47.3054C48.7174 47.3574 48.7127 47.408 48.6655 47.4437C48.7285 47.5725 48.803 47.8953 48.8136 47.9423C48.8567 48.1328 48.9026 48.3222 48.9505 48.5114C49.0473 48.893 49.1321 49.2776 49.2289 49.6594C49.3316 50.064 49.4539 50.4644 49.59 50.859C49.5988 50.8846 49.6085 50.9106 49.6186 50.9371L49.6341 50.9771L49.6379 50.971C49.6656 50.9273 49.7232 50.9578 49.7164 51.0041C49.71 51.0462 49.7015 51.0881 49.6943 51.1302L49.7086 51.168C49.7976 51.4077 49.8586 51.6602 49.6952 51.8718C49.6341 51.9509 49.5669 51.9978 49.4831 52.0117C49.3487 52.4548 49.1801 52.8897 48.9996 53.3074L48.9467 53.4293C48.6812 54.0387 48.398 54.6401 47.9753 55.1589C47.5138 55.7253 46.8789 56.1121 46.4769 56.7328C46.2898 57.0215 46.1597 57.3251 46.054 57.6511L46.0143 57.7749C45.9393 58.0055 45.8528 58.229 45.6366 58.3643C45.5676 58.4074 45.4642 58.3936 45.4085 58.3348C44.9651 57.8655 45.4293 56.9893 45.6967 56.535C46.0684 55.9032 46.6064 55.499 47.145 55.0223C47.7257 54.5085 48.096 53.8212 48.4542 53.1441C48.6737 52.7293 48.8855 52.3056 49.1085 51.8889C48.8755 51.6829 48.8009 51.2737 48.722 50.9892L48.7148 50.9637C48.5843 50.5082 48.4807 50.0408 48.4152 49.5714C48.3521 49.12 48.3258 48.6752 48.3425 48.2213L48.3473 48.1057M49.4356 49.4248C49.3841 49.3542 49.4693 49.2743 49.54 49.289C49.9694 49.3778 50.3893 49.6379 50.7747 49.8482L50.8159 49.8705C51.1236 50.0365 51.4331 50.2398 51.5947 50.5623C51.7704 50.9127 51.7559 51.3164 51.732 51.6972L51.7297 51.7329C51.7003 52.1896 51.6956 52.6641 51.599 53.1126C51.5496 53.3421 51.3417 53.4068 51.1641 53.3526C50.9527 54.0204 50.3588 54.5124 49.925 55.0394C49.3719 55.7112 49.476 56.6182 49.5338 57.4273C49.5572 57.7549 49.1498 57.8481 48.94 57.6733L48.4566 57.2716C48.3761 57.2045 48.2957 57.1373 48.2155 57.0699C48.1468 57.0121 48.0787 56.9538 48.0112 56.8948L47.9104 56.8058C47.8657 56.7657 47.6684 56.5453 47.6107 56.5361C47.4711 56.5139 47.1392 56.8822 47.0256 56.9978L47.0112 57.0122C46.7974 57.2219 46.6042 57.4476 46.4243 57.6869C46.3912 57.7308 46.3265 57.6943 46.3501 57.6435C46.5113 57.2981 46.6988 56.9677 46.9214 56.6586L46.9664 56.597C47.1145 56.3974 47.3133 56.0448 47.5747 55.9859C47.8939 55.9139 48.2126 56.2341 48.4448 56.4119L48.4596 56.423C48.57 56.5059 48.6793 56.5903 48.7883 56.6753C48.7769 56.0729 48.8529 55.4642 49.1638 54.945C49.3831 54.5789 49.7115 54.3077 49.9926 53.9931C50.3055 53.6428 50.4688 53.2122 50.7521 52.8473C50.7886 52.8004 50.8388 52.7751 50.8933 52.7671C50.9042 52.4737 50.9474 52.1775 50.9807 51.8873L50.9904 51.8005C51.0241 51.4852 51.1038 51.1001 50.9496 50.8049C50.8038 50.526 50.4694 50.3292 50.2218 50.1399L50.0196 49.983M35.498 46.0913C35.3687 46.1661 35.2478 46.2591 35.1382 46.3755C34.793 46.7417 34.5463 47.1975 34.3061 47.636C34.1768 47.8722 34.0522 48.1109 33.9218 48.3465C33.8651 48.449 33.8068 48.5504 33.7479 48.6516C33.7206 48.6983 33.6396 48.791 33.5995 48.8481C33.6441 48.9106 33.6902 48.9722 33.7373 49.0331C33.7552 49.0563 34.9933 50.4055 35.4249 50.9336C36.0857 51.7424 36.6764 52.5968 37.1814 53.5112C37.6759 54.4067 38.0524 55.3548 38.5105 56.2676C38.7398 56.7247 38.9958 57.1784 39.3223 57.5739C39.3349 57.5894 39.3482 57.6039 39.3611 57.6192C39.4856 57.2825 39.8048 56.922 39.9616 56.715L39.9763 56.6955C40.3318 56.216 40.7073 55.751 41.091 55.2938C41.4414 54.8764 41.8007 54.4679 42.1688 54.0663L42.3072 53.9159C42.5636 53.6389 42.8893 53.2243 43.2646 53.0263C43.2244 52.9546 43.1779 52.8836 43.1244 52.8136C42.7727 52.3539 42.2755 52.0202 41.785 51.7192L41.4669 51.5256C40.2677 50.7945 39.0872 50.0296 38.0462 49.0798C37.4954 48.5772 36.9523 48.0507 36.4893 47.4645L36.3256 47.2572M37.4988 45.7294C36.9373 45.7765 36.3308 45.7653 35.8119 45.9483C36.2732 46.3846 36.7118 46.8557 37.1623 47.2993C37.2023 46.9993 37.2843 46.7029 37.3537 46.4103" fill="currentColor"/>
<path fill-rule="evenodd" clip-rule="evenodd" d="M41.5598 16.6653C44.0844 16.4096 46.5584 16.6244 49.0464 17.0691C49.2366 17.1035 49.3443 17.2283 49.3844 17.3783C50.5563 17.4318 51.7295 17.5178 52.8999 17.5819C53.3246 17.6052 53.5654 18.025 53.3717 18.4041C53.333 18.4794 53.2928 18.5527 53.252 18.6259L53.3033 18.609C53.6554 18.496 54.0357 18.4403 54.3787 18.6197C54.8154 18.8479 54.9866 19.3516 54.8901 19.8151C54.8654 19.9335 54.8239 20.0469 54.7767 20.1576C54.8725 20.1513 54.9689 20.1534 55.0647 20.166C55.5746 20.2337 55.9535 20.6247 55.9802 21.1453C56.0197 21.9315 55.5133 22.729 54.9168 23.2918C55.0034 23.4702 55.0366 23.6801 55.0006 23.8929C54.9287 24.3134 54.619 24.5653 54.26 24.7296C54.4097 25.2052 54.4805 25.7024 54.4387 26.2106C54.4248 26.3802 54.2765 26.5204 54.1199 26.5547C54.7035 28.162 54.9988 29.8876 55.2112 31.569C55.3626 32.7653 55.4373 33.9686 55.4463 35.174C55.4508 35.7181 55.4418 36.263 55.419 36.8072L55.4098 37.0113C55.3816 37.5996 55.3802 38.2174 55.2746 38.7994C55.6351 39.4129 55.7802 40.1746 55.8415 40.8621C55.9175 41.7131 55.7971 42.5909 55.5287 43.4005C54.5161 46.4594 51.4598 48.3897 48.39 48.8914C45.5485 49.3556 42.2605 48.7307 40.5999 46.1487C40.5739 46.1078 40.6295 46.0741 40.6619 46.1008C41.8499 47.0673 43.228 47.4985 44.7253 47.7084C47.314 48.0706 50.2238 47.4562 52.3013 45.8275C53.2985 45.0455 54.0175 43.907 54.3337 42.6818C54.495 42.0556 54.5506 41.4025 54.4872 40.7579C54.4224 40.1041 54.133 39.5462 53.9506 38.9283C53.8894 38.7197 53.9542 38.526 54.0816 38.388C54.1175 37.8863 54.202 37.3805 54.2344 36.8803C54.2703 36.3117 54.2922 35.7432 54.2999 35.174C54.3147 33.9932 54.2654 32.8104 54.1661 31.6346C53.9844 29.4816 53.502 27.3808 53.2189 25.2461C53.1141 25.3402 52.9639 25.3788 52.8064 25.2966L52.7901 25.2877L52.7042 25.2385C52.6992 25.2385 52.6936 25.2392 52.6886 25.2398C52.1006 25.2969 51.4908 25.2152 50.9274 25.0397C50.3379 24.8566 49.7908 24.5748 49.302 24.1993C49.2091 24.6706 49.1703 25.1468 49.1697 25.6273C49.1689 25.9274 48.8513 26.0832 48.5992 25.9549C47.4816 25.387 46.414 24.7326 45.4006 23.9971C45.2823 24.6037 45.164 25.2102 45.0449 25.8175C44.9992 26.0514 44.7013 26.1459 44.5104 26.0345C43.7513 25.5927 43.0957 25.0144 42.5619 24.3268C42.4553 24.5306 42.3484 24.7345 42.2408 24.9379L42.0788 25.2426C41.9189 25.542 41.7049 25.8732 41.3549 25.969C40.9844 26.0704 40.6752 25.8302 40.5506 25.4948C40.5126 25.3906 40.4774 25.2835 40.445 25.1757C40.1294 25.8965 39.7732 26.601 39.3704 27.2731C38.7661 28.2811 38.0407 29.1794 37.3175 30.1009C37.0978 30.3806 36.7218 30.1135 36.6915 29.8417C36.6739 29.6817 36.6591 29.5211 36.6463 29.3611C36.2249 30.2119 35.7852 31.0547 35.3061 31.873L35.3747 32.1419C35.5724 32.9365 35.7366 33.7366 35.915 34.5354C35.9726 34.7931 35.8357 35.1616 35.5347 35.2055C35.1751 35.2579 34.8349 35.4417 34.4666 35.3152C34.065 35.1773 33.9856 34.83 33.7961 34.5009C33.7582 34.4353 33.7142 34.3751 33.6669 34.3179L33.6549 34.3335C33.6253 34.3723 33.5549 34.33 33.5725 34.2857L33.5931 34.2344C33.4302 34.0614 33.2353 33.9171 33.0561 33.7619C32.6301 33.6901 32.1511 33.7688 31.8576 33.9419C31.1893 34.3363 30.8823 35.1493 30.876 35.8968C30.8682 36.7718 31.1393 37.7553 31.597 38.5035C31.7985 38.8325 32.0746 39.1297 32.4393 39.2756C32.8013 39.4207 33.1936 39.3757 33.5619 39.5123C33.8056 39.6032 33.9556 39.8738 33.8084 40.1189C33.7985 40.1358 33.7873 40.1513 33.7766 40.1675L33.8862 40.313C33.9615 40.4137 34.0401 40.5216 34.1133 40.6338C34.3006 40.8495 34.4978 41.0573 34.6887 41.2694C35.0414 41.6603 35.3837 42.0619 35.7308 42.4585C36.0584 42.8327 36.4049 43.1841 36.7619 43.53C37.0992 43.8577 37.5204 44.1331 37.8302 44.4826C38.1316 44.8236 38.2133 45.4188 37.7175 45.6161C37.1689 45.835 36.6833 45.3221 36.3141 44.9802L36.2985 44.9658C35.6216 44.3427 35.0104 43.6306 34.5249 42.8465C34.0441 43.174 33.3486 43.2053 32.8698 42.8779C32.6178 42.7056 32.4245 42.4162 32.3306 42.1013C32.242 42.1211 32.1535 42.1327 32.0671 42.1314C32.0227 42.1572 31.9781 42.1823 31.933 42.2057C31.5759 42.3916 31.1373 42.3085 30.9739 41.9132C30.8251 41.5544 30.9784 41.1468 31.1124 40.8011L31.1401 40.7297C31.2161 40.5325 31.2999 40.3176 31.4042 40.1154C31.114 39.897 30.8661 39.6257 30.6563 39.3172C29.9513 38.2781 29.5992 36.7584 29.7549 35.5185C29.8485 34.7704 30.1999 33.9954 30.7752 33.4909L30.7542 33.436C30.5929 33.0267 30.4463 32.6159 30.3513 32.1834C30.2401 31.6776 30.1858 31.1534 30.1366 30.6385C30.0323 29.5507 30.0605 28.4383 30.1992 27.3548C30.4598 25.3152 31.1204 23.3131 32.2929 21.6159C31.9604 21.2178 31.6971 20.7493 31.8344 20.2104C31.8971 19.9631 32.04 19.7286 32.2556 19.5869C32.3745 19.5087 32.5161 19.4968 32.6351 19.432L32.6709 19.4122C32.7232 19.3817 32.6832 19.385 32.652 19.2432C32.5288 18.6767 32.6309 18.1293 33.2542 17.9412C33.8408 17.7644 34.3957 18.1399 34.7429 18.5873C35.6513 17.9426 36.8485 17.6052 37.9013 17.3185C39.0985 16.9936 40.3266 16.7908 41.5598 16.6653ZM31.7471 35.6657C31.7428 35.2043 32.1802 34.9197 32.6105 34.9951C32.8995 35.0454 33.1406 35.2179 33.3669 35.3963L33.4773 35.4836C33.7529 35.7001 34.0694 35.9335 34.2337 36.24C34.4745 36.6923 33.9655 37.3009 33.4901 36.9838C33.164 36.7652 32.955 36.415 32.7411 36.0896L32.719 36.056C32.6218 35.9102 32.5366 35.7552 32.4034 35.6382L32.3746 35.613C32.3309 35.5757 32.2839 35.5417 32.2274 35.5255C32.1183 35.4942 31.9163 35.5381 31.8683 35.6679L31.864 35.6812C31.8464 35.7468 31.7478 35.7327 31.7471 35.6657Z" fill="currentColor"/>
<path fill-rule="evenodd" clip-rule="evenodd" d="M49.991 42.0529C49.5131 42.2408 48.9484 42.2852 48.455 42.1251C47.9833 41.9719 47.555 41.631 47.2958 41.2023C47.065 40.8205 46.9685 40.3673 47.105 39.9156C47.1115 39.894 47.1327 39.8801 47.1531 39.8747C47.2647 39.9764 47.3337 40.0774 47.4026 40.1778C47.5187 40.3472 47.6352 40.5149 47.795 40.6597C48.0275 40.8704 48.3407 41.0415 48.6516 41.0979C48.956 41.1533 49.2676 41.1044 49.5402 40.9586C49.7059 40.87 49.84 40.7516 49.9727 40.6326C50.1172 40.503 50.2594 40.3715 50.4584 40.2984C50.6179 40.2397 50.7855 40.2892 50.9142 40.3873C51.0525 40.4927 51.152 40.6577 51.1465 40.8302C51.1379 41.0975 51.021 41.3205 50.8513 41.5045C50.6219 41.7531 50.2975 41.9323 49.991 42.0529ZM49.4236 35.3918C49.9554 35.7152 50.7656 36.4692 50.1936 37.2709C49.5202 37.9777 48.5506 37.1673 48.0729 36.8007C47.6299 36.5167 47.1321 37.2473 47.5431 37.579C50.9955 40.136 52.3966 35.4764 49.6925 35.0116C49.3948 34.9604 49.2842 35.2918 49.4236 35.3918ZM43.8302 30.9113C44.555 30.8766 45.1937 31.2022 45.8844 31.3502C46.5227 31.487 47.1516 31.4048 47.7724 31.2308C48.7798 30.9484 49.1963 32.4912 48.2026 32.7919C47.4789 33.0109 46.7169 33.0261 45.9743 32.9132C45.3147 32.8129 44.7617 32.4917 44.1328 32.3046C43.593 32.1442 42.9581 32.2109 42.3881 32.2864L42.1668 32.3162C41.8379 32.3605 41.5073 32.4049 41.1817 32.4693C40.8991 32.5251 40.6171 32.6274 40.3287 32.6392C40.2959 32.6406 40.2682 32.598 40.2888 32.5697C40.6238 32.1096 41.2695 31.7466 41.783 31.5044L41.8178 31.4881C42.4518 31.1924 43.1243 30.9449 43.8302 30.9113ZM43.5646 34.3038L43.5645 34.288C43.5655 33.8387 43.8271 32.813 44.4736 32.813C44.8774 32.813 45.1226 33.5111 45.1651 34.2307L45.1666 34.26C45.1853 34.7074 45.0626 35.6853 44.4736 35.6853C43.8783 35.6853 43.5708 34.7591 43.5646 34.3038ZM53.0826 34.3038L53.0827 34.288C53.0817 33.8387 52.8202 32.813 52.1737 32.813C51.7799 32.813 51.537 33.4766 51.4857 34.1768L51.4822 34.2307C51.4567 34.663 51.5714 35.6853 52.1737 35.6853C52.7689 35.6853 53.0765 34.7591 53.0826 34.3038ZM53.0727 30.3641L53.1189 30.3651C53.8744 30.3913 54.6515 30.839 54.8532 31.5911C54.8637 31.6301 54.8156 31.6564 54.787 31.6296C54.1658 31.0478 53.3304 31.6037 52.7083 31.8952L52.4799 32.0007C51.6779 32.374 50.7659 32.8128 49.8755 32.5346C49.4526 32.4025 49.184 31.9679 49.3046 31.5288C49.412 31.1382 49.8833 30.8099 50.2916 30.9509L50.3101 30.9576C50.6418 31.0845 51.0496 30.9559 51.3922 30.8291L51.6736 30.7234C52.1261 30.5516 52.5807 30.3595 53.0727 30.3641Z" fill="currentColor"/>
</g>
</svg>
