<svg width="80" height="108" viewBox="0 0 80 108" fill="none" xmlns="http://www.w3.org/2000/svg">
<path fill-rule="evenodd" clip-rule="evenodd" d="M37.4423 45.0117C37.6325 44.1558 38.9937 44.5228 38.7606 45.3752C38.3994 46.6934 37.6501 47.939 36.5924 48.8133C35.7754 49.4882 34.6621 50.0904 33.5578 50.2018C33.6613 50.3026 33.7606 50.4104 33.8649 50.5132C34.1001 50.747 34.3501 50.964 34.6078 51.1726C35.1375 51.6009 35.6881 51.9863 36.2895 52.3089C38.6916 53.5982 41.4051 53.8955 44.0881 53.5953C45.3614 53.453 46.6536 53.2115 47.8508 52.7457C48.4058 52.5302 48.9452 52.2469 49.4213 51.8891L49.5459 51.7955C49.7962 51.6064 50.1302 51.3396 50.2867 51.0479C49.8106 51.155 49.2085 50.6477 48.8783 50.3526C48.5171 50.0285 48.2128 49.6107 47.9881 49.1823C47.548 48.3419 47.3149 47.2577 47.684 46.3566C47.7085 46.2967 47.7874 46.3066 47.7944 46.3715C47.9036 47.4219 48.1867 48.4068 48.9403 49.1845C49.2748 49.529 49.6754 49.8179 50.1128 50.0186L50.1743 50.0469C50.3606 50.1331 50.5568 50.2342 50.6353 50.4187C50.6656 50.4152 50.6959 50.418 50.7247 50.4259C50.7508 50.4328 50.7747 50.4407 50.798 50.4491C50.7459 50.347 50.7185 50.2265 50.7233 50.0841C50.7417 49.5325 51.4987 49.5156 51.6036 50.0067C51.5846 49.9419 51.5592 50.0046 51.6071 50.0243C51.6064 50.0186 51.605 50.0123 51.6036 50.0066L51.605 50.0118L51.6079 50.0243L51.6071 50.0243C51.6091 50.0332 51.6106 50.0424 51.6116 50.0518L51.6126 50.064L51.612 50.0538C51.6113 50.0462 51.6104 50.0394 51.6094 50.0332L51.6078 50.0243C51.6149 50.0277 51.6247 50.0299 51.636 50.0299L51.6407 50.0318C51.6583 50.0394 51.7205 50.0684 51.7389 50.0757C51.8649 50.1222 52.0057 50.1369 52.1346 50.1771C52.4142 50.2631 52.6607 50.4054 52.8311 50.6477C52.9537 50.8218 53.0219 51.0212 53.0501 51.2282C54.2874 51.8236 55.4585 52.5971 56.4396 53.5546C58.629 55.6905 60.1557 58.3641 61.4085 61.1315C62.0462 62.5403 62.6144 63.979 63.1702 65.4216L63.2578 65.6494C63.8536 67.2 64.3804 68.7675 64.5099 70.4344C64.5219 70.5837 64.4726 70.7239 64.3874 70.8402C64.4177 70.9656 64.4333 71.091 64.429 71.2135C64.4283 71.2326 64.4269 71.2516 64.4254 71.2706C64.6254 71.2671 64.8212 71.351 65.0071 71.5863C65.0825 71.5623 65.1642 71.5594 65.2444 71.5855C65.7339 71.7419 65.8128 72.2795 65.905 72.7297C66.0002 73.1946 66.0416 73.6709 66.0423 74.1449C66.0423 74.3148 65.9452 74.529 65.7804 74.6015C65.4705 74.7381 65.1368 74.8277 64.8163 74.9517C64.5754 75.0446 64.3339 75.1327 64.0902 75.2151C64.2254 75.4511 64.2691 75.7794 64.3423 76.0281C64.4571 76.4163 64.5494 76.8059 64.6269 77.2032C65.1522 79.905 65.5163 82.6356 66.0078 85.343C66.2536 86.6992 66.5396 88.0462 66.8311 89.3932C66.9747 90.0555 67.1275 90.7162 67.2916 91.3742C67.379 91.725 67.4698 92.076 67.5635 92.4246C67.5907 92.5265 67.6182 92.6281 67.6461 92.7296L67.6952 92.9073C67.8022 92.9664 67.8937 93.0559 67.9571 93.1784C68.1889 93.6266 68.0557 94.1317 67.6113 94.3839C67.1283 94.6587 66.5516 94.3993 66.2853 93.9534C66.098 93.6385 66.0367 93.2215 65.9444 92.8713C65.8402 92.4782 65.7409 92.083 65.6452 91.6878C64.9945 89.0027 64.5588 86.2707 64.2304 83.5283L64.2071 83.3324C64.0402 81.9206 63.879 80.5052 63.7747 79.0871C63.7233 78.3903 63.6825 77.6936 63.6571 76.9953C63.6444 76.6361 63.6649 76.2747 63.6853 75.916C63.6944 75.759 63.7078 75.6011 63.7128 75.4441L63.7143 75.4217C63.7156 75.4058 63.7175 75.3849 63.719 75.3629L63.7205 75.3363C63.2346 75.4885 62.7416 75.6153 62.2438 75.7223C61.1846 75.9513 60.1008 76.0789 59.0198 76.014C59.1705 77.8049 59.367 79.5914 59.6416 81.3661C59.9064 83.0753 60.2121 84.7808 60.5571 86.4759C60.7297 87.3276 60.9163 88.1772 61.1128 89.0241C61.2184 89.4763 61.3388 89.9258 61.434 90.3802C61.4902 90.6507 61.5078 90.8768 61.3944 91.1298C61.5193 91.4699 61.6302 91.8117 61.7392 92.1336L61.7719 92.2295C61.9649 92.7931 62.3311 93.3694 61.9487 93.9232C61.7509 94.2091 61.4283 94.3726 61.1036 94.3825C61.098 94.3859 61.0916 94.3902 61.0853 94.3937C60.9106 94.4874 60.7092 94.5058 60.5177 94.4656C60.2268 94.5226 59.9353 94.5776 59.643 94.6277C58.9212 94.7524 58.1959 94.8551 57.4691 94.9419C56.0853 95.1067 54.6923 95.1969 53.3002 95.2469C48.2029 95.4307 43.1001 95.1081 38.0009 95.2011C35.4029 95.2483 32.805 95.3652 30.2113 95.5203C28.917 95.5978 27.6219 95.6809 26.3268 95.745L25.926 95.7645C24.7678 95.8199 23.6088 95.8627 22.4515 95.7781C22.429 95.7766 22.4113 95.7675 22.3994 95.7549C22.0001 95.7098 21.5987 95.342 21.6388 94.9172C21.8113 93.108 21.9839 91.2989 22.1571 89.489C22.4649 86.2645 22.7754 83.04 23.0895 79.8162L23.1349 79.3508C23.2404 78.2645 23.3412 77.1757 23.3923 76.0851C23.1346 76.0669 22.8776 76.0436 22.6205 76.0154C19.8349 75.7103 17.1645 74.8674 14.6004 73.7603L14.4966 73.7153C14.2656 73.6144 14.0128 73.5137 13.7536 73.406C13.7579 73.8984 13.7416 74.3915 13.7395 74.879C13.736 75.6886 13.7423 76.498 13.7444 77.3067C13.7494 78.9736 13.8128 80.6411 13.8959 82.3052C14.0416 85.2443 14.2128 88.1793 14.4719 91.1114C14.5374 91.849 14.6262 92.5852 14.6888 93.3229C14.7262 93.7575 14.6367 94.1197 14.2389 94.348C14.043 94.4607 13.8916 94.4135 13.6973 94.3226C13.2226 94.0999 13.2092 93.5737 13.1642 93.1158C13.1297 92.7705 13.098 92.4254 13.067 92.0795C13.0009 91.3419 12.9437 90.6042 12.8973 89.8652C12.7135 86.9288 12.6599 83.9953 12.7867 81.0555C12.8456 79.6804 12.9305 78.3022 13.0433 76.9295L13.0698 76.6129C13.1628 75.5159 13.2226 74.3648 13.4149 73.2609C12.6395 72.9171 11.8712 72.4796 11.5149 71.7524C11.053 70.8084 11.5606 70.0011 12.2839 69.4452C12.2768 69.3515 12.2839 69.2585 12.3036 69.174C12.5113 68.2743 12.8592 67.3852 13.1952 66.5272C13.5339 65.6649 13.9078 64.816 14.3191 63.9853C15.9698 60.658 18.2247 57.6174 20.9128 55.0558C22.248 53.7835 23.7092 52.6076 25.2691 51.6213C26.0423 51.1332 26.8353 50.6822 27.6564 50.2807L27.7778 50.2216C28.3494 49.9441 28.9906 49.649 29.6262 49.4945C29.6923 49.4452 29.7592 49.3987 29.8268 49.3543C30.0768 49.188 30.4163 49.3085 30.5642 49.5459C30.6361 49.4902 30.7191 49.441 30.8142 49.3965L30.9081 49.3536C31.4785 49.0967 32.1633 48.8565 32.7825 49.0253C33.167 49.1303 33.4698 49.4135 33.6058 49.7742C33.9177 49.6093 34.224 49.4396 34.5233 49.2317C35.0043 48.8992 35.4402 48.4863 35.8318 48.053C36.617 47.1816 37.1874 46.1608 37.4423 45.0117ZM64.6881 72.4872C64.6346 72.5028 64.5783 72.5084 64.5198 72.5013C64.6254 72.5137 64.4139 72.5762 64.3559 72.6061L64.3515 72.6085C64.2459 72.669 64.1396 72.7275 64.0318 72.7839C63.7804 72.9163 63.5234 73.0353 63.2621 73.1474C62.7473 73.3665 62.2156 73.5349 61.6698 73.6582C61.136 73.7786 60.5761 73.849 60.029 73.8603C59.6628 73.8674 59.2283 73.8505 58.8494 73.7427C58.8931 74.407 58.9416 75.0706 58.9959 75.7336L59.7441 75.562C60.4924 75.3902 61.2399 75.2142 61.9783 75.0002C62.5325 74.8396 63.079 74.6515 63.6191 74.4486C63.9022 74.3422 64.1832 74.2295 64.4606 74.1084C64.5987 74.048 64.7282 73.9763 64.8561 73.9036L64.9656 73.8414C64.9402 73.5448 64.8937 73.2538 64.8262 72.9607C64.791 72.8057 64.7311 72.6465 64.6881 72.4872ZM13.4501 69.3585C13.355 69.6672 13.2092 69.9553 12.8768 70.0251C12.7592 70.0497 12.6607 70.0364 12.579 69.9962L12.5593 70.0357C12.2861 70.5969 12.2058 71.1892 12.8346 71.6215C13.1185 71.8166 13.4275 71.9857 13.7473 72.1371C14.319 72.4093 14.9279 72.6281 15.502 72.8506L15.6163 72.8952C16.643 73.2982 17.686 73.6652 18.7452 73.9723C19.8199 74.283 20.9135 74.5324 22.0206 74.6909C22.4874 74.7572 22.9578 74.8037 23.429 74.834C23.4367 74.2 23.4332 73.5652 23.4311 72.9311C23.2635 72.9099 23.0973 72.8875 22.9368 72.8684C22.448 72.8114 21.9606 72.7416 21.4761 72.655C20.4642 72.4739 19.4628 72.2238 18.486 71.904C16.6761 71.3101 14.9923 70.4611 13.4501 69.3585ZM33.293 49.9369C32.8818 49.5016 32.0952 49.6587 31.5987 49.87C31.4487 49.9341 31.2973 49.9989 31.1536 50.0771L31.1258 50.0927C30.9585 50.1891 30.9593 50.2464 31.041 50.4385C31.1473 50.6915 31.2952 50.9359 31.436 51.1704C32.0389 52.1773 32.8325 53.0537 33.7388 53.794C36.9487 56.4148 41.5599 57.3391 45.574 56.4613C47.5005 56.0405 49.3588 55.191 50.777 53.7978L50.9061 53.6692C51.478 53.0968 52.2629 52.2682 52.2078 51.4199C52.1818 51.0119 51.8487 50.9887 51.5085 50.9099C51.3692 50.8774 51.236 50.8316 51.1205 50.7668C51.2135 51.1677 50.7185 51.7636 50.4628 52.0138C49.9268 52.5386 49.2818 52.9486 48.5994 53.2551C47.3008 53.8392 45.8882 54.1153 44.4818 54.29C42.886 54.4887 41.2557 54.4711 39.6719 54.1773C38.2937 53.9216 36.9353 53.4376 35.7494 52.6838C35.2057 52.3385 34.6698 51.9447 34.2163 51.4861L34.1199 51.3887C33.7925 51.0568 33.4115 50.6557 33.2156 50.2201C33.1409 50.2209 33.067 50.2187 32.993 50.2137C32.9409 50.211 32.9128 50.1369 32.9649 50.1095C33.0233 50.0785 33.0818 50.0475 33.1402 50.0173C33.1304 49.9848 33.1219 49.9531 33.1149 49.9207C33.1092 49.8933 33.1381 49.8679 33.1635 49.8834C33.1987 49.9045 33.2325 49.9271 33.2656 49.951C33.2747 49.9468 33.2839 49.9419 33.293 49.9369Z" fill="currentColor"/>
<path fill-rule="evenodd" clip-rule="evenodd" d="M33.6088 5.85689C34.042 5.79183 34.369 6.06065 34.5246 6.43955L34.5328 6.45995C34.5828 6.58887 34.6384 6.71427 34.6983 6.83756C35.7821 6.30566 37.3286 6.44233 38.0145 7.51952C38.5039 8.28883 38.2053 9.20187 38.0208 10.0177L37.8997 10.5552C38.1338 10.7043 38.3104 10.9712 38.3021 11.2476L38.3011 11.2689L38.2518 12.0185C38.4081 11.8599 38.5511 11.6873 38.6786 11.5035C38.7666 11.3421 38.8617 11.1836 38.9638 11.03C39.5645 10.1262 40.9131 10.9117 40.4173 11.8797C40.3222 12.0664 40.2152 12.2432 40.1004 12.4137C39.9708 12.6652 39.8645 12.9237 39.7828 13.1893C40.0173 13.2915 40.1976 13.5183 40.2166 13.8607C40.261 14.6603 39.8412 15.3275 39.1736 15.7467C38.9772 15.87 38.7743 15.8939 38.5905 15.8481C38.5581 15.8918 38.5257 15.9355 38.4948 15.9799C38.761 16.1962 39.0011 16.4427 39.2074 16.7161C39.8286 16.6231 40.4532 16.5794 41.0779 16.578C41.8412 16.2039 42.7553 16.2116 43.5757 16.3518C44.1039 16.442 44.611 16.6174 45.1307 16.7435C45.6786 16.876 46.2349 16.8809 46.7891 16.9711C47.4877 17.0845 48.1004 17.4072 48.4856 17.9222C48.9088 17.9349 49.3539 18.1082 49.7229 18.3435C50.5821 18.8916 51.4363 19.4474 52.2934 19.999C52.6223 20.2108 52.7453 20.5489 52.6848 20.926L52.6807 20.9501L52.6518 21.1065L52.7196 21.2028C52.9819 21.5733 53.2673 21.9614 53.437 22.3704C53.7511 22.8234 54.0349 23.2982 54.2863 23.7879C54.625 24.4459 54.9046 25.1433 55.0941 25.8591C55.1412 26.0401 55.1884 26.2226 55.2194 26.4072C55.2638 26.6679 55.1955 26.87 55.1581 27.1201C55.1117 27.4372 55.0948 27.7584 55.0455 28.0762C55.0124 28.2868 54.8335 28.3904 54.6462 28.396C54.7166 28.9321 54.7673 29.4718 54.8159 30.0072C54.8842 30.7723 54.9307 31.5395 54.9708 32.3067C55.1779 32.6075 55.6011 32.8456 55.9067 32.928C56.33 33.0415 56.7736 32.9182 57.1736 32.7738C57.425 32.6829 57.6314 32.9992 57.5088 33.2106C57.1236 33.8742 56.2997 33.8714 55.6757 33.5776C55.4117 33.4536 55.18 33.274 55.0081 33.0401C55.0187 33.2627 55.03 33.4853 55.0412 33.7086L55.0517 33.9109C55.1786 36.2732 55.4525 38.7168 55.0088 41.0559C54.2405 45.1075 50.889 48.1924 46.7948 48.432C44.6463 48.5577 42.8572 47.9229 41.9675 47.5688C41.0779 47.2146 41.4236 46.4926 42.0413 46.699C43.1052 47.0545 45.0597 47.5843 46.8088 47.3555C50.9314 46.8164 54.4272 44.7551 54.068 35.8771C54.0171 34.6181 53.8603 33.3585 53.8265 32.0996C53.7941 30.8688 53.806 29.6373 53.7518 28.4073L53.7337 27.9876C53.7125 27.4972 53.6899 27.0045 53.6532 26.5136C53.6088 26.3234 53.5722 26.1303 53.518 25.9436C53.3708 25.4357 53.1786 24.9418 52.9398 24.4705C52.887 24.5107 52.8279 24.5396 52.7638 24.5508C52.2772 24.6382 51.8208 24.6135 51.3652 24.4106C51.1525 24.3169 50.9652 24.1922 50.7905 24.038C50.7074 23.9654 50.6518 23.8949 50.6081 23.8217C50.3877 23.8252 50.1673 23.759 50.0293 23.6005C49.8718 23.4198 49.8457 23.2332 49.9073 23.0604L49.9138 23.0432L49.8983 23.0376C49.7124 23.5187 49.3419 23.9421 48.9356 24.2282C48.2934 24.6819 47.4898 24.8129 46.7194 24.8249C45.8687 24.8376 44.9715 24.7065 44.1321 24.5727C43.9103 24.5374 43.6898 24.4973 43.4736 24.443C43.4652 24.4515 43.4567 24.4614 43.4476 24.4698C42.7272 25.1595 41.7138 25.3371 40.7997 24.9432C40.2715 24.7157 39.8286 24.3493 39.437 23.9295C39.4314 24.1493 39.4201 24.3691 39.4011 24.5868L39.3932 24.6732C39.3542 25.0786 39.2792 25.5087 38.9729 25.8013C38.4779 26.2754 37.7595 26.0852 37.1884 25.7767C37.1891 25.7915 37.1891 25.807 37.1891 25.8225C37.3433 26.3466 37.4983 26.8715 37.6532 27.3963L37.6866 27.5081C37.7992 27.8808 37.9228 28.2539 37.9567 28.644C38.0215 29.3893 37.5257 30.1255 36.6976 29.8754C36.2632 29.7447 35.9152 29.3793 35.5812 29.0867L35.3708 28.9046C35.9152 30.6849 36.2926 32.5286 36.3279 34.3864C36.33 34.4871 36.2433 34.5632 36.1476 34.5667C35.9236 34.5759 35.6828 34.5315 35.4574 34.442C35.4448 34.4413 35.4321 34.4406 35.4187 34.4385C35.0342 34.3828 34.6772 34.2441 34.3624 34.039C34.4349 34.2694 34.4673 34.5167 34.4483 34.7753C34.4434 34.838 34.3455 34.8598 34.3314 34.7908C34.1497 33.8967 33.1039 33.2211 32.2025 33.3923C31.2349 33.5762 30.5222 34.4089 30.3476 35.3565C30.1603 36.3745 30.5187 37.5517 31.1828 38.3372C31.4884 38.6993 31.8905 39.0016 32.368 39.0776C32.5863 39.1122 32.8131 39.1002 33.025 39.0382C33.1152 39.0114 33.1997 38.9741 33.2856 38.9389C33.411 38.8881 33.5574 38.8804 33.6757 38.8268C33.9441 38.7064 34.2138 38.9536 34.0779 39.2291C33.9595 39.4693 33.8532 39.6314 33.6567 39.7554C33.8159 39.9498 33.9603 40.2203 34.0138 40.2929C34.287 40.6621 34.5645 41.0108 34.8757 41.3482C35.1926 41.6906 35.5384 42.0034 35.9039 42.293L36.0575 42.4144C36.4096 42.6937 36.7162 42.9526 36.9645 43.3533C37.1603 43.6696 36.9067 44.0986 36.5398 44.0937C35.3919 44.0775 34.5574 43.0686 33.9631 42.1873C33.8786 42.0612 33.799 41.9281 33.725 41.7914C33.6983 41.8344 33.6687 41.8745 33.6356 41.9111L33.7011 42.0873C33.8955 42.6058 33.0581 42.9446 32.8152 42.4607C32.6384 42.1098 32.4335 41.7759 32.2053 41.4603C32.0708 41.4412 31.9391 41.3595 31.8659 41.2538C31.6807 40.9854 31.4729 40.7142 31.2976 40.4282C31.2004 40.3359 31.1004 40.2471 30.9983 40.1605C30.9687 40.1865 30.9384 40.2126 30.9095 40.2401C30.7814 40.5324 30.6229 40.7994 30.4264 41.0509L30.3843 41.1046C30.0079 41.5792 29.5176 42.0649 28.911 42.181C28.7257 42.2162 28.5476 41.9858 28.7117 41.8386C29.1363 41.4567 29.6384 41.1968 30.03 40.7706C30.2229 40.5606 30.4 40.3293 30.5523 40.0869L30.587 40.0308C30.6124 39.9893 30.6384 39.9477 30.6652 39.9054C30.4884 39.785 30.3117 39.6638 30.1349 39.5426C29.6483 39.9585 29.0146 40.1487 28.4764 40.4932L28.4229 40.5282C27.9363 40.8537 27.4236 40.1337 27.8138 39.7385C28.2438 39.3044 28.6029 38.7868 28.9838 38.3044C28.8047 37.9742 28.7199 37.5839 28.6881 37.1894C28.6756 37.0777 28.6658 36.966 28.656 36.8542C28.3828 36.8585 28.1081 36.7648 27.8757 36.6034L27.7877 36.5407C27.5053 36.6309 27.2088 36.6746 26.925 36.6668C26.2574 36.6471 25.9842 35.8841 26.4018 35.4016C26.8279 34.9084 27.5736 34.8006 28.1645 35.0401C28.1835 35.0303 28.2032 35.0197 28.2222 35.0091C28.1941 34.8795 28.2003 34.7619 28.2324 34.6587L28.2231 34.5957C28.0931 34.3962 28.0077 34.1685 27.9753 33.9279C27.9497 33.7374 27.9549 33.5485 27.999 33.3603C28.0136 33.2977 28.0441 33.2328 28.0674 33.1675C28.0194 33.0462 27.9912 32.9208 27.9824 32.7947C27.969 32.7787 27.9556 32.7623 27.9429 32.7445C27.6498 32.3327 27.709 31.8366 27.988 31.5033C27.9893 31.4821 27.9912 31.4609 27.9941 31.4399C27.9778 31.4031 27.9628 31.366 27.9491 31.3284C27.6765 31.0533 27.4764 30.7223 27.5137 30.312C27.5356 30.0707 27.6348 29.8534 27.7848 29.691C27.7582 29.6122 27.7557 29.521 27.7879 29.4449C27.5484 28.8076 27.5787 28.04 27.7511 27.3273C27.7131 27.2188 27.6933 27.1011 27.6976 26.9764C27.7173 26.4473 28.175 25.9612 28.7173 25.9676C28.7826 25.9681 28.8437 25.9767 28.9024 25.9891L28.9032 25.9765C28.924 25.8177 28.9676 25.671 29.0314 25.5393C29 25.528 28.971 25.5117 28.9456 25.4901C28.5981 25.6755 28.2305 25.8172 27.845 25.9138C27.5615 25.9848 27.2712 25.6625 27.4474 25.3964C27.5291 25.2729 27.6193 25.162 27.7165 25.0607C27.5784 25.0615 27.4381 25.0708 27.2962 25.0891C27.0412 25.1222 26.7567 24.9482 26.5912 24.7129C26.3856 24.9129 26.1793 25.1123 25.9729 25.3117C25.4504 25.8182 24.661 25.4455 24.5786 24.7777C24.4229 24.7361 24.2779 24.6657 24.1504 24.5649C23.3264 24.9228 22.4398 25.1194 21.5335 25.1567C20.8828 25.1835 20.5025 24.4254 20.8067 23.89C21.011 23.5307 21.2645 23.208 21.5567 22.9277C21.1032 23.0664 20.6349 23.1665 20.1567 23.2306C19.8983 23.2651 19.5328 23.0509 19.4293 22.8135C19.0335 21.9005 19.0673 20.9487 19.5229 20.0603C19.5405 20.0251 19.5603 19.9913 19.5793 19.9575C19.6264 19.8398 19.6779 19.7236 19.7335 19.6095C19.1729 19.0247 19.1243 18.1554 19.4264 17.4276C19.3053 17.2311 19.2588 16.9944 19.3412 16.7802C19.5757 16.1637 19.9138 15.5945 20.3405 15.1056C20.2997 15.0267 20.2638 14.9428 20.2335 14.8527C19.9933 14.1235 20.2715 13.2436 20.8328 12.7356C21.1856 12.4158 21.5912 12.2242 22.0243 12.1016C22.2067 11.7789 22.4412 11.488 22.7145 11.2428C22.725 11.2196 22.7356 11.1963 22.7476 11.1731C23.1729 10.3713 23.9476 9.94159 24.7779 9.84226C24.8103 9.52875 25.0215 9.22934 25.3286 9.13212C25.4131 8.86089 25.5391 8.60163 25.7124 8.36633C25.9849 7.99576 26.4377 7.82104 26.8645 8.0641C27.0983 8.19725 27.3222 8.35012 27.5321 8.5192C27.6263 8.47498 27.7332 8.44637 27.8538 8.43724L27.8842 8.43537L28.5786 8.40014C28.8694 8.27122 29.1595 8.13596 29.4504 8.00421C29.625 7.85979 29.8201 7.73932 30.0328 7.64985C30.2736 7.54911 30.5201 7.49204 30.7673 7.47302C30.968 7.4075 31.1701 7.34973 31.3757 7.30464C31.8588 7.19897 32.3645 7.13979 32.8659 7.14472C32.8761 7.01489 32.8812 6.88351 32.8803 6.75058L32.8793 6.68398C32.868 6.25776 33.2081 5.91748 33.6088 5.85689ZM33.1222 39.9583C33.0532 39.9731 32.9835 39.985 32.9138 39.9935C32.9349 40.0456 32.956 40.0978 32.9764 40.1499C33.0328 40.1816 33.0898 40.2119 33.1469 40.2401C33.13 40.1443 33.1201 40.0477 33.1222 39.9583ZM29.5041 38.8827L29.4573 38.9689C29.4497 38.9831 29.4422 38.997 29.4349 39.0107C29.5342 39.003 29.6342 39.0051 29.7328 39.0163L29.7325 39.0058C29.7198 39.0015 29.7072 38.9976 29.695 38.9917C29.627 38.959 29.5638 38.9224 29.5041 38.8827ZM31.4595 34.9479C32.0826 34.9842 32.6104 35.0797 33.1771 35.3524L33.2257 35.3762C33.7264 35.6249 34.5546 36.0842 34.4849 36.7429C34.4652 36.9303 34.3293 37.1276 34.1152 37.1128C33.5286 37.0726 33.1934 36.4809 32.7962 36.1117C32.3955 35.7397 31.9032 35.3572 31.418 35.1014C31.3494 35.0654 31.3764 34.9515 31.4511 34.9478L31.4595 34.9479ZM28.6342 26.2691C28.4849 26.274 28.5349 26.4192 28.6117 26.298C28.618 26.2881 28.6257 26.2783 28.6342 26.2691ZM36.6931 16.5807C35.2791 16.6179 33.8561 17.4531 32.7969 18.2973C31.8754 19.0317 31.0797 19.9053 30.3751 20.8468C30.1938 21.3158 30.0382 21.7945 29.9067 22.2767C29.8201 22.5951 29.7659 22.9171 29.6933 23.2383L29.6708 23.3368C29.6138 23.4434 29.5715 23.558 29.5407 23.6764C29.6691 23.8052 29.8356 23.8974 30.019 23.9412C30.0781 23.9552 30.1272 23.9857 30.166 24.0262C30.3136 23.7798 30.4426 23.5196 30.5176 23.2439L30.5204 23.2312C30.8041 22.7663 31.1123 22.3158 31.4426 21.8808C32.3539 20.6796 33.3574 19.5848 34.5638 18.6739C35.4786 17.9835 36.5011 17.4424 37.5884 17.0909C37.3223 16.8761 37.02 16.7061 36.6931 16.5807Z" fill="currentColor"/>
<path fill-rule="evenodd" clip-rule="evenodd" d="M47.7173 42.7579C47.2439 42.5647 46.8215 42.2424 46.5127 41.8307C46.4053 41.6876 46.3775 41.5365 46.4 41.3983C46.4254 41.2428 46.5173 41.102 46.6426 41.0075C46.7684 40.9127 46.9257 40.866 47.0777 40.8898C47.2098 40.9105 47.3414 40.9829 47.4455 41.133L47.4672 41.163C47.6508 41.4115 47.8901 41.6153 48.1627 41.7467C48.4254 41.8734 48.7192 41.9325 49.0233 41.8981C49.6025 41.8327 50.0016 41.5193 50.4259 41.0939C50.4785 41.0401 50.5311 40.9847 50.584 40.9284C50.6174 40.8774 50.6637 40.8446 50.7152 40.8274C50.7723 40.8083 50.837 40.8094 50.8961 40.83C50.9532 40.85 51.0043 40.8877 51.0385 40.938C51.071 40.9858 51.0895 41.0448 51.0835 41.1127C51.0447 41.5536 50.8142 41.9472 50.4869 42.2562C50.1233 42.5994 49.6414 42.8368 49.1877 42.9201C48.6878 43.0118 48.1785 42.9461 47.7173 42.7579ZM49.4235 35.9553C49.9553 36.2786 50.7656 37.0327 50.1935 37.8343C49.5201 38.5412 48.5505 37.7307 48.0728 37.3642C47.6298 37.0801 47.132 37.8107 47.543 38.1424C50.9954 40.6994 52.3965 36.0398 49.6925 35.5751C49.3947 35.5238 49.2842 35.8552 49.4235 35.9553ZM43.2368 32.9808C43.2956 32.2512 44.4063 32.0855 44.5168 32.8075C44.6157 33.4542 44.4993 34.0483 44.2081 34.6306C43.9298 35.1869 43.2305 34.9273 43.1776 34.4208C43.1067 33.7418 43.2002 33.4347 43.2368 32.9808ZM51.692 32.6578C51.8468 32.4549 52.0704 32.3164 52.3383 32.3947C53.1753 32.6393 52.9286 33.828 52.6347 34.4066C52.4749 34.7209 51.9587 34.8005 51.7254 34.5239C51.3451 34.0727 51.163 33.1717 51.6464 32.7273C51.6595 32.7044 51.6741 32.6812 51.692 32.6578ZM44.1963 29.7883L44.3285 29.7651C44.7375 29.6944 45.246 29.6264 45.5354 29.9553C45.6888 30.1298 45.7416 30.454 45.5354 30.6209C45.1725 30.9147 44.7714 30.8009 44.3366 30.8257C43.9783 30.8463 43.634 30.9056 43.2888 31.0043C42.5316 31.2208 41.9147 31.616 41.268 32.05C41.1831 32.1069 41.0965 31.9984 41.137 31.919C41.5103 31.1875 42.2337 30.5866 42.9584 30.2204C43.3451 30.0249 43.7684 29.8627 44.1963 29.7883ZM50.929 29.4606L51.0302 29.4813C52.1314 29.7116 53.5622 30.1716 54.0836 31.2537C54.1035 31.4067 54.0825 31.4395 54.0654 31.4609L54.0598 31.468C54.0457 31.4863 54.0345 31.5115 53.9682 31.5324C53.9498 31.528 53.9312 31.5233 53.9124 31.5184C53.6734 31.4558 53.4843 31.3694 53.3012 31.2798L53.1026 31.182C52.8723 31.069 52.64 30.9602 52.3937 30.8798C51.8682 30.7083 51.3277 30.5875 50.7788 30.523C50.6598 30.5091 50.5453 30.4689 50.4549 30.4001C50.3691 30.3347 50.3036 30.2442 50.2737 30.124C50.235 29.9684 50.2461 29.8505 50.3296 29.7101C50.3923 29.6047 50.4821 29.5316 50.5852 29.4896C50.6904 29.4469 50.8101 29.4368 50.929 29.4606Z" fill="currentColor"/>
<path fill-rule="evenodd" clip-rule="evenodd" d="M57.601 30.5916C57.5431 30.5819 57.485 30.5728 57.427 30.5643C57.3817 30.5386 57.3285 30.5188 57.2667 30.5069C57.1255 30.471 56.9853 30.4469 56.8453 30.4339C54.836 29.9815 50.1876 30.6238 49.9958 32.3391C49.3559 32.5528 48.8023 32.3614 48.0607 32.3805C47.4962 30.02 37.7368 30.3532 37.2674 31.7763C37.2657 31.7758 37.2639 31.7754 37.2621 31.7748C36.8111 31.6352 36.1462 31.6688 35.63 31.6467C34.5278 31.6236 33.4244 31.7219 32.346 31.9544C30.3266 32.2755 27.5707 32.6513 28.9751 35.174C28.9754 35.1744 28.9756 35.1749 28.9759 35.1754L28.9762 35.1751C29.2182 35.4233 29.629 35.2235 29.6443 34.8875C29.1721 33.6924 30.2385 33.5489 31.0591 33.2054C33.1009 32.4716 35.1796 32.3699 37.2913 32.5969C37.4502 32.784 37.6912 32.9472 37.946 33.0325C39.3579 33.267 38.6138 34.3147 39.5063 34.4671C39.3423 38.1194 43.7748 40.113 46.3431 37.7121C47.3685 36.7092 47.6129 35.2235 47.8507 33.8843C47.9764 33.856 48.0563 33.7873 48.103 33.6963C48.4053 33.3943 48.5952 33.1155 49.1931 33.0325C49.7909 32.9497 50.2511 33.116 50.3133 33.167C50.329 33.1986 50.3459 33.2303 50.3654 33.262C50.3928 33.3093 50.43 33.347 50.4722 33.3766C49.8819 37.0135 52.7042 39.3136 55.5534 37.4273C56.7914 36.2623 57.0531 34.4786 57.1047 32.8866C57.2726 32.7853 57.3788 32.5889 57.3207 32.3421C57.2407 32.0018 57.4284 31.7072 57.7274 31.5592C58.1159 31.3671 58.0472 30.6655 57.601 30.5916ZM45.3582 32.317C45.0046 32.2392 44.8535 32.7847 45.2083 32.8627C45.4595 32.9179 45.6725 33.0447 45.8163 33.2594L45.8315 33.2827C46.0245 33.59 46.5126 33.3064 46.3183 32.9971C46.0996 32.649 45.7597 32.4053 45.3582 32.317ZM55.7164 31.9788C55.5917 31.8909 55.4031 31.9561 55.3307 32.0803C55.251 32.217 55.3032 32.3692 55.42 32.4586L55.4319 32.4674C55.539 32.5429 55.6433 32.6783 55.6564 32.817L55.6576 32.8343C55.6716 33.1973 56.2355 33.1991 56.2214 32.8343C56.2076 32.4774 56.0011 32.1793 55.7164 31.9788Z" fill="currentColor"/>
</svg>
