<svg width="80" height="108" viewBox="0 0 80 108" fill="none" xmlns="http://www.w3.org/2000/svg">
<g opacity="0.75">
<path fill-rule="evenodd" clip-rule="evenodd" d="M23.4476 72.7766C23.4168 72.7188 23.4883 72.6669 23.5358 72.7085C24.6141 73.6552 25.1787 75.1756 25.2971 76.581C25.4225 78.0712 25.2447 79.6141 25.1768 81.1037C25.1011 82.763 25.0332 84.4228 24.9408 86.0813C24.8471 87.7639 24.7461 89.446 24.6596 91.129L24.4649 94.9148C24.4441 95.3183 24.489 95.8145 24.3342 96.191C24.0944 96.7748 23.3819 96.6844 23.2321 96.1965L23.2275 96.1805L23.2138 96.191C23.0817 95.7514 23.1806 95.2292 23.2029 94.7746L23.407 90.6382C23.5511 87.7146 23.6796 84.7908 23.8345 81.8677L23.8871 80.8934C23.9595 79.5817 24.015 78.2733 24.0595 76.9621L24.074 76.5249C24.1163 75.2083 24.0827 73.9654 23.4476 72.7766ZM49.5891 48.5056C50.1899 48.4485 50.6436 48.6478 51.189 48.8577C51.4266 48.9491 51.6516 49.0547 51.8796 49.1641C52.1649 49.3009 52.3485 49.543 52.5242 49.7989L52.6181 49.9367C53.3499 51.0093 53.8422 52.2467 54.3976 53.4144C55.0473 54.7803 55.7035 56.1433 56.3393 57.5158L56.6531 58.1919C56.81 58.53 56.9664 58.8684 57.1205 59.2077L57.3867 59.7984C57.6541 60.3974 57.8939 61.0311 57.5127 61.6491C57.1583 62.2238 56.5299 62.6685 56.0324 63.1127C55.6173 63.4835 55.2022 63.8541 54.7869 64.2247C55.6453 65.0846 56.2215 66.1673 56.5603 67.3285C57.0415 67.1279 57.6289 67.0894 58.1265 67.0026C58.8231 66.8812 58.9084 67.9361 58.251 67.9232C57.7655 67.9137 57.196 67.9633 56.6979 67.861C56.7845 68.2426 56.8473 68.6299 56.8872 69.0183C57.0965 71.054 56.6392 73.1015 56.1622 75.0711L56.123 75.2328C55.605 77.3646 55.1139 79.502 54.6746 81.6515C54.2342 83.8056 53.8381 85.9687 53.4865 88.1391C53.1286 90.3482 52.8753 92.5695 52.6031 94.7903C52.562 95.1264 52.3505 95.4145 51.9793 95.4145C51.67 95.4145 51.3165 95.1257 51.3553 94.7903C51.6362 92.3719 52.0345 89.9661 52.4302 87.5643C53.1118 83.428 53.9696 79.3276 54.9564 75.2542L55.1288 74.5448C55.5728 72.705 55.9756 70.8094 55.7529 68.9116C55.5715 67.3664 54.9257 65.7187 53.6492 64.7589L53.6103 64.7301C53.3122 64.5113 53.1974 64.093 53.4911 63.8049C53.678 63.6216 53.8651 63.4385 54.0523 63.2555L55.176 62.158L55.4025 61.9364C55.5914 61.7519 55.7812 61.5685 55.9767 61.3907C56.095 61.2832 56.4158 61.0782 56.4392 60.9014C56.4544 60.786 56.3178 60.5832 56.2625 60.477L56.0089 59.9648C55.8648 59.6728 55.7253 59.3787 55.5846 59.085C55.2932 58.4766 54.9976 57.87 54.7125 57.2586L52.9998 53.5873C52.5166 52.5515 52.0862 51.458 51.4545 50.5005L51.3299 50.3139C51.226 50.1567 51.1341 50.0054 51.0684 49.8132C51.0053 49.6282 50.926 49.4252 50.8092 49.2674C50.5356 48.897 50.0127 48.687 49.5751 48.6094C49.5119 48.5981 49.5348 48.5108 49.5891 48.5056ZM36.4164 47.5413C36.4544 47.5413 36.4602 47.5956 36.4251 47.6062C35.8972 47.765 35.3928 48.0212 34.9812 48.3911C34.7843 48.568 34.5861 48.7689 34.4645 49.0071C34.418 49.0983 34.3922 49.1946 34.3734 49.2945L34.3673 49.3279C34.336 49.5083 34.2911 49.6087 34.1995 49.7531L34.1837 49.7776C33.6607 50.5856 33.2942 51.4831 32.959 52.3817L32.2292 54.341L31.4998 56.3006C31.2648 56.9319 31.0297 57.5634 30.7946 58.1947C30.6647 58.5433 30.5312 58.8904 30.3978 59.2376C30.34 59.388 30.2779 59.5373 30.2251 59.6896C30.2178 59.7103 30.1947 59.8357 30.1774 59.8661L30.1833 59.8765C30.3304 60.124 30.7228 60.3309 30.9452 60.5107L31.7109 61.13C32.2569 61.5717 32.8169 62.001 33.3465 62.4623C33.6792 62.752 33.4722 63.2708 33.1012 63.3918C32.4795 63.5944 31.8704 63.8369 31.258 64.0661C31.0107 64.1587 30.7531 64.2393 30.5086 64.3414L30.3598 64.4057C30.3016 64.4319 30.3296 64.4316 30.3319 64.5389C30.3342 64.6515 30.3661 64.7688 30.3845 64.8794C30.5907 66.1271 30.8094 67.3726 31.0402 68.616C31.8565 73.0129 32.8318 77.3776 33.9441 81.7088C34.5059 83.8961 35.1085 86.0726 35.6826 88.2566C36.2554 90.4348 37.009 92.5817 37.7285 94.715C37.9316 95.3166 36.978 95.5756 36.7799 94.9766C35.9506 92.4676 35.192 89.9367 34.4085 87.4134C33.0166 82.93 31.9197 78.3492 30.9495 73.7573C30.4687 71.4815 30.0289 69.1969 29.6306 66.9052C29.5552 66.4713 29.4812 66.0372 29.4088 65.6028L29.3032 64.9639C29.2308 64.5085 29.1896 64.0341 29.5435 63.6737C29.889 63.3219 30.4821 63.1973 30.9368 63.0323L30.9698 63.0202C31.2591 62.9122 31.5505 62.8081 31.8408 62.7008C31.4132 62.3641 30.9909 62.0198 30.5643 61.6833C30.2202 61.4118 29.8707 61.1458 29.5316 60.868C29.2519 60.6389 29.0239 60.3448 28.9947 59.9723C28.965 59.5915 29.1281 59.2382 29.2596 58.889L29.2723 58.8552C29.4014 58.5066 29.5309 58.1581 29.6637 57.8108L30.4856 55.6607C31.0078 54.2945 31.508 52.9172 32.0573 51.5616C32.2747 51.0251 32.5115 50.4971 32.7914 49.99C32.9263 49.7455 33.071 49.5061 33.2283 49.2753C33.4044 49.0165 33.5644 48.8903 33.8374 48.7475C34.274 48.5192 34.6166 48.1364 35.0549 47.901C35.4852 47.6699 35.9279 47.5466 36.4164 47.5413ZM37.8336 45.1038C37.8503 45.0751 37.8945 45.0879 37.895 45.1205C37.9065 45.7995 37.7452 46.4934 37.646 47.1648C37.5463 47.8385 37.5143 48.5497 37.3702 49.2163C37.3672 49.2474 37.3612 49.278 37.3527 49.308L37.3458 49.3309C37.285 49.5177 37.1267 49.676 36.9326 49.7254C36.9936 50.0639 37.0512 50.4029 37.0996 50.7437C37.1826 51.3295 37.2585 51.9162 37.3331 52.5031L37.4224 53.2075C37.5067 53.8713 37.5886 54.5353 37.6697 55.1995C37.8758 55.2857 38.0862 55.3568 38.3016 55.4185C38.7977 55.5605 39.3059 55.6183 39.8179 55.6685C40.8605 55.7708 41.9111 55.8182 42.9574 55.8763L43.1816 55.8889C44.3579 55.9564 45.5407 55.9683 46.7141 55.8476C47.2959 55.7877 47.8731 55.6873 48.4405 55.5449C48.7288 55.4725 49.0091 55.3644 49.2968 55.2937C49.3922 55.2703 49.4775 55.2162 49.5731 55.1584C49.6156 55.1047 49.6752 55.064 49.7528 55.0483L49.7738 55.0447L49.7946 55.0416L49.8018 55.0384L49.8012 55.0407C49.8601 55.0327 49.916 55.0328 49.9688 55.04C49.9898 54.5221 50.0125 54.0043 50.041 53.4867C50.1176 52.0963 50.3289 50.6458 50.0468 49.2676C50.0374 49.2212 50.1004 49.2049 50.1168 49.2483C50.6704 50.7073 50.6082 52.3028 50.6361 53.8385C50.6633 55.3403 50.6469 56.8431 50.6394 58.3453C50.7469 58.3911 50.8429 58.4531 50.9188 58.5402C51.0706 58.7142 51.1143 59.0167 50.9188 59.1847C50.8322 59.2591 50.7364 59.3109 50.6347 59.3467C50.6293 60.6517 50.62 61.9567 50.6069 63.2618C50.855 63.4535 50.8782 63.9086 50.5976 64.0978C50.5509 68.324 50.4741 72.5503 50.4105 76.7758L50.2771 85.6411C50.2593 86.8222 50.2299 88.0033 50.2193 89.1844L50.2277 89.1877L50.2572 89.2014C50.3069 89.2247 50.3809 89.2625 50.3962 89.3011C50.4003 89.3112 50.4013 89.3182 50.4008 89.3234C50.4822 89.3348 50.5629 89.3732 50.6326 89.4395C50.8049 89.6032 50.7699 89.85 50.6326 90.0167L50.596 90.0613C50.5104 90.1652 50.3479 90.2053 50.2153 90.1841C50.2166 90.9212 50.2213 91.6585 50.219 92.3956C50.2182 92.6208 50.2148 92.8459 50.2109 93.0711L50.2017 93.6109C50.1955 93.919 50.1682 94.3105 49.8528 94.4489C49.4969 94.6051 49.1779 94.4771 49.0338 94.1156C48.9948 94.0177 49.0031 93.9264 49.0174 93.8296C49.0129 93.6842 48.9902 93.5156 48.993 93.3806L49.0048 92.8178C49.0066 92.731 49.0101 92.6442 49.0126 92.5574L49.0023 92.5585C47.7379 92.6199 46.4646 92.5899 45.1982 92.5892L44.6349 92.59C44.1649 92.5904 43.694 92.5879 43.2247 92.5699L43.0488 92.5625C42.6974 92.546 42.3279 92.5407 41.9637 92.5093C42.0101 92.8833 42.0535 93.2576 42.0922 93.6322C42.1288 93.9875 41.7622 94.2894 41.4353 94.2894C41.0469 94.2894 40.8248 93.9841 40.7784 93.6322C40.5589 91.9727 40.4691 90.2977 40.2595 88.6371C40.0717 87.1498 39.9089 85.659 39.7434 84.1688L39.6881 83.6721C39.0824 78.2492 38.4944 72.8241 37.9319 67.3965L37.6701 64.8592C37.4056 62.3019 37.1395 59.7444 36.9152 57.1833C36.7869 55.7191 36.6686 54.2546 36.5574 52.7889C36.4757 51.7122 36.4245 50.6414 36.3911 49.5668C36.2595 49.4313 36.1935 49.2335 36.2518 49.0292C36.2859 48.91 36.3255 48.7914 36.3674 48.673C36.3648 48.5567 36.362 48.4405 36.3598 48.324C36.3576 48.2138 36.4695 48.1571 36.559 48.1754C36.7217 47.7813 36.9008 47.3907 37.0503 47.0005C37.2923 46.3688 37.4917 45.6882 37.8336 45.1038ZM24.3198 51.9305C26.8493 50.3447 29.8603 49.2035 32.876 49.3264C32.9446 49.3292 32.9639 49.4338 32.8927 49.4496C31.2841 49.8089 29.6579 50.2466 28.135 50.8835C26.6076 51.5223 25.1554 52.3825 23.8619 53.4162C21.4755 55.3235 19.6205 57.8042 18.3991 60.6006C17.6837 62.2387 17.1822 63.9681 16.7443 65.6982C16.2809 67.5291 15.899 69.3797 15.5815 71.2415C14.9543 74.9191 14.5892 78.6372 14.3949 82.3616C14.1972 86.1503 14.2787 89.9417 14.1377 93.7309C14.1133 94.3874 13.1753 94.3746 13.1276 93.7309C12.8082 89.4228 12.9852 85.0459 13.2806 80.7409C13.5462 76.8708 14.0101 73.0088 14.7571 69.2009L14.8221 68.8709C15.5204 65.348 16.3627 61.7396 18.0509 58.5492C19.4921 55.8254 21.7172 53.5623 24.3198 51.9305ZM59.4458 68.7679C59.459 68.7301 59.5089 68.7306 59.5222 68.7679C59.8105 69.5754 59.8209 70.4866 59.8975 71.3378L59.9036 71.4032C59.9771 72.1795 60.0324 72.9569 60.0839 73.7349L60.103 74.0266C60.3096 77.2004 60.5677 80.3707 60.9568 83.5278C61.3445 86.6729 61.8686 89.7962 62.4355 92.9133C62.4986 93.2603 62.345 93.6138 61.9812 93.7138C61.6605 93.8019 61.2488 93.6043 61.181 93.2593C60.8291 91.4702 60.5445 89.6786 60.2906 87.874C59.8437 84.6962 59.5102 81.5037 59.2958 78.3018C59.1882 76.6936 59.1219 75.0861 59.0955 73.4745C59.0834 72.7267 59.1028 71.9772 59.1426 71.2302L59.1522 71.0579C59.1961 70.2944 59.1916 69.496 59.4458 68.7679ZM32.1129 88.983C32.1467 88.9647 32.1886 89.0023 32.1672 89.0373C31.6774 89.8336 31.0148 90.5202 30.3744 91.1969C29.7048 91.9043 29.0519 92.633 28.3689 93.3266C27.8753 93.8275 27.0815 93.0194 27.6023 92.5597C28.3346 91.9135 29.1001 91.2995 29.8454 90.6677L30.1714 90.3913C30.7825 89.8748 31.4117 89.363 32.1129 88.983ZM55.3764 88.5842C55.3399 88.5145 55.4234 88.458 55.4801 88.5042C55.8752 88.8256 56.2293 89.209 56.6108 89.5481C56.9886 89.8841 57.3805 90.1974 57.7831 90.5031C58.1874 90.8099 58.6005 91.1046 59.0247 91.3833C59.3766 91.6145 59.7393 91.7998 60.1078 91.9917C60.2785 92.0137 60.4365 92.0975 60.563 92.2563C60.763 92.5076 60.7842 92.9813 60.5068 93.1994L60.4571 93.2385C60.1333 93.493 59.749 93.524 59.4304 93.2385C59.0745 92.9197 58.7382 92.569 58.3965 92.2321L58.2938 92.1315C57.9266 91.7745 57.5684 91.4059 57.2306 91.0207L56.9249 90.6728C56.3577 90.0257 55.7673 89.3283 55.3764 88.5842ZM53.5565 51.2785C53.4908 51.235 53.5313 51.1177 53.6124 51.1457L53.7613 51.1971C54.3829 51.4133 55.0228 51.6529 55.5872 51.9857C56.1938 52.3432 56.7539 52.7692 57.2889 53.2261C58.3965 54.1719 59.3387 55.3349 60.1395 56.5472C61.7463 58.9797 62.7399 61.7656 63.5422 64.5531C64.3976 67.5253 65.0562 70.5614 65.5939 73.6061C66.1403 76.7003 66.5619 79.8225 66.8389 82.9525C66.9754 84.4944 67.067 86.0372 67.1131 87.5844C67.1368 88.3803 67.136 89.1757 67.1294 89.9719C67.1277 90.1767 67.1291 90.3814 67.1314 90.586L67.1392 91.2001C67.1434 91.5884 67.1898 91.9963 67.0976 92.3756C66.9491 92.9862 65.94 92.8723 65.9732 92.2483C65.9427 92.0406 65.9415 91.826 65.9494 91.611C65.9446 91.5833 65.9394 91.5551 65.9337 91.5263C65.9171 91.4438 65.9312 91.3674 65.9636 91.3018C65.9688 91.1986 65.9735 91.0961 65.9752 90.9954C65.9818 90.5854 65.9814 90.1771 65.9701 89.7673C65.9462 88.9031 65.9118 88.039 65.8771 87.1753C65.8077 85.4493 65.7113 83.7225 65.5714 82.0007C65.0848 76.0075 64.0572 69.9801 62.3313 64.2143C61.5296 61.5367 60.4245 58.9083 58.8396 56.5946C58.1361 55.5674 57.3424 54.6187 56.4625 53.7381C55.577 52.8521 54.6012 51.9706 53.5565 51.2785ZM41.6138 89.9133L41.7334 90.7788C41.7932 91.2116 41.8524 91.6445 41.9086 92.0778C42.2903 92.0255 42.6809 92.0036 43.0488 91.971C43.6928 91.9139 44.3412 91.8863 44.9872 91.8596C46.3229 91.8045 47.6653 91.7089 49.0023 91.7156C49.016 91.7156 49.029 91.7166 49.0419 91.7176L49.1083 90.01L48.1688 90.0085C47.3729 90.0072 46.5772 90.0005 45.7812 89.9936C45.0644 89.9875 44.3473 89.9865 43.6306 89.9716L43.3235 89.9642C42.78 89.9496 42.1798 89.9798 41.6138 89.9133ZM49.1871 87.4347C49.1488 87.4392 49.1098 87.443 49.0683 87.4447C48.8822 87.4526 48.6947 87.4471 48.5085 87.4487C48.112 87.4521 47.7156 87.4548 47.3191 87.4547C46.5261 87.4547 45.7332 87.4595 44.9404 87.469C44.1242 87.4789 43.3086 87.4931 42.4923 87.4947C42.0968 87.4954 41.7026 87.4849 41.3072 87.4738C41.3712 88.0359 41.438 88.5975 41.5118 89.1578C42.1257 89.0748 42.7861 89.1167 43.3861 89.1109L43.464 89.1099C44.2829 89.0959 45.1026 89.1062 45.9217 89.1072C46.7644 89.1082 47.607 89.111 48.4498 89.1179L49.1421 89.1236L49.1434 89.0887C49.1637 88.5379 49.1768 87.9864 49.1871 87.4347ZM41.0026 84.7459C41.0794 85.4093 41.1515 86.0739 41.2249 86.7382C41.2737 86.7307 41.3231 86.7242 41.3735 86.7189C41.7695 86.6775 42.1648 86.642 42.5622 86.6173C43.3545 86.5682 44.1468 86.5423 44.9404 86.521C45.7565 86.4991 46.5726 86.4823 47.389 86.4708C47.7856 86.4652 48.1819 86.4658 48.5785 86.4685C48.7645 86.4698 48.9525 86.4639 49.1382 86.4764C49.1603 86.4779 49.1815 86.4802 49.2025 86.4826L49.2164 85.4852C49.2189 85.319 49.2214 85.1528 49.2241 84.9866C48.6111 85.0244 47.9879 85.01 47.3754 85.0102L47.2342 85.0105C46.4646 85.014 45.6946 85.0034 44.9251 84.9874C44.1312 84.9709 43.339 84.945 42.5465 84.8941C42.2255 84.8736 41.9067 84.8462 41.5874 84.811L41.4277 84.7927C41.2888 84.7763 41.1457 84.7631 41.0026 84.7459ZM49.2873 81.9311C47.811 82.0483 46.3426 82.0973 44.8624 82.1119L44.6403 82.1138C43.3323 82.1237 42.0135 82.1777 40.7024 82.143C40.7807 82.8229 40.8589 83.5028 40.9377 84.1826C41.1255 84.1739 41.3141 84.1738 41.4976 84.1672C41.871 84.1537 42.243 84.1504 42.6165 84.1495C43.386 84.1478 44.1555 84.1544 44.9251 84.1529C45.7182 84.1512 46.5112 84.1378 47.3041 84.1229C47.947 84.1108 48.5967 84.0624 49.2414 84.0642L49.2873 81.9311ZM49.3498 79.0304C49.1787 79.0872 48.9767 79.0909 48.7553 79.101L48.1838 79.1295C47.9189 79.1425 47.654 79.1547 47.389 79.1644C46.5058 79.1967 45.6227 79.227 44.7393 79.2551C43.8342 79.2838 42.9247 79.3005 42.0194 79.272C41.576 79.2579 41.1362 79.2347 40.6941 79.1977C40.5848 79.1886 40.4734 79.1826 40.3618 79.1747C40.4647 80.0755 40.568 80.9762 40.6717 81.8769C41.9765 81.7167 43.2915 81.617 44.5947 81.4513L45.7731 81.3007C46.9509 81.1504 48.1278 81.0028 49.31 80.8784L49.3498 79.0304ZM49.4126 76.0976C49.1616 76.1596 48.8756 76.1565 48.6345 76.1718L48.5899 76.1748C48.1332 76.2095 47.6753 76.2268 47.2176 76.2381C46.3204 76.2602 45.4226 76.2713 44.5252 76.2768L43.9855 76.2801C43.2661 76.2844 42.547 76.2862 41.8274 76.2694C41.3657 76.2587 40.9052 76.2361 40.4439 76.213C40.3057 76.206 40.1645 76.2014 40.0228 76.1943C40.1192 77.0472 40.2166 77.8998 40.3138 78.7525C40.4653 78.7284 40.6176 78.7101 40.7627 78.6856C41.1345 78.6228 41.5055 78.5726 41.88 78.5277C42.691 78.4305 43.5062 78.3606 44.321 78.3015C45.1574 78.2409 45.9946 78.1896 46.8312 78.1309L47.4238 78.0891C47.6213 78.0754 47.8188 78.0621 48.0164 78.05C48.3538 78.0293 48.7461 78.0527 49.0808 77.9792C49.1715 77.9414 49.2721 77.9328 49.3729 77.9543L49.4126 76.0976ZM49.4886 72.6648C49.4018 72.7751 49.2721 72.833 49.1174 72.853C48.3119 72.9575 47.4856 72.9743 46.6732 73.0236L46.53 73.0326C45.6912 73.0879 44.8519 73.1313 44.0124 73.1759C43.1501 73.2217 42.2879 73.2591 41.4249 73.2891C41.0585 73.3019 40.6903 73.3034 40.3233 73.2987L40.1662 73.2963C40.0155 73.2938 39.8576 73.2941 39.6995 73.289C39.787 74.0865 39.8754 74.8839 39.965 75.6811C40.1263 75.6636 40.2875 75.6502 40.4439 75.6336C40.9049 75.5849 41.3653 75.5367 41.8274 75.5003C42.7029 75.4312 43.579 75.3897 44.4561 75.3463C45.3535 75.3019 46.2514 75.2723 47.1489 75.2304C47.5841 75.21 48.0191 75.1847 48.4529 75.1447C48.757 75.1168 49.1182 75.0132 49.4355 75.0512C49.4528 74.2557 49.4708 73.4603 49.4886 72.6648ZM49.5594 69.5897C49.5457 69.6109 49.5296 69.6315 49.5101 69.6507C49.1554 70.0012 48.7183 69.9742 48.2484 70.0109L48.2196 70.0133C47.7589 70.052 47.2981 70.0889 46.8369 70.1221C45.9152 70.1887 44.9916 70.2353 44.0685 70.2768C43.1238 70.3192 42.173 70.3485 41.2274 70.3292C40.6218 70.3168 39.9876 70.319 39.3699 70.2599C39.4648 71.1382 39.5602 72.0165 39.6563 72.8946C39.83 72.8619 40.0048 72.8368 40.1703 72.8107C40.5876 72.745 41.0053 72.679 41.4249 72.6307C42.2635 72.5341 43.1023 72.4438 43.9425 72.3623C44.6611 72.2926 45.3794 72.2218 46.0984 72.1582L46.53 72.1209C47.3879 72.0487 48.2567 71.9296 49.1174 71.912C49.2593 71.9091 49.4197 71.9863 49.501 72.1082C49.52 71.2686 49.5397 70.4291 49.5594 69.5897ZM49.619 67.1002C49.3999 67.1268 49.1638 67.1116 48.9617 67.1183C48.4505 67.135 47.9392 67.1505 47.4279 67.1655L44.3603 67.2561C43.3158 67.2869 42.2677 67.31 41.2229 67.2952C40.7632 67.2888 40.3016 67.288 39.8421 67.263L39.6891 67.2537C39.5 67.2411 39.2679 67.2394 39.0413 67.2163L39.3088 69.6953C39.9235 69.6064 40.557 69.5732 41.1664 69.5211L41.2967 69.5096C42.1955 69.4277 43.0987 69.3735 43.9992 69.3125C44.9229 69.25 45.8453 69.174 46.7678 69.0963C47.2288 69.0576 47.6898 69.0189 48.1505 68.9765L48.2074 68.9709C48.6426 68.9254 49.0519 68.8287 49.4373 69.0854C49.4937 69.1229 49.5379 69.173 49.5681 69.2292C49.5849 68.5195 49.6014 67.8098 49.619 67.1002ZM49.6905 64.2071C47.8222 64.2824 45.9537 64.3394 44.0841 64.3645C43.0317 64.3786 41.9806 64.3687 40.9284 64.3467C40.4721 64.3371 40.012 64.3153 39.5561 64.2803L39.3853 64.2666C39.1686 64.2483 38.9408 64.2351 38.7141 64.2133C38.8078 65.0656 38.9007 65.918 38.993 66.7706C39.2161 66.7291 39.4492 66.71 39.6446 66.685L39.6891 66.6791C40.1748 66.6122 40.665 66.5733 41.1531 66.5303C42.1036 66.4465 43.0587 66.3926 44.0117 66.3467C44.9875 66.2997 45.9638 66.2599 46.9398 66.2165L47.9159 66.1728C48.0786 66.1656 48.2412 66.1585 48.4039 66.1516C48.6364 66.1418 48.8688 66.1325 49.1012 66.1228C49.2158 66.1181 49.335 66.1025 49.4498 66.1084L49.4824 66.104C49.4975 66.1021 49.5108 66.1006 49.523 66.0993C49.5542 66.0755 49.5878 66.0558 49.6234 66.0408L49.645 66.0324L49.6905 64.2071ZM38.4077 61.4655C38.4945 62.2328 38.5803 63.0003 38.6649 63.7678C38.9314 63.7374 39.201 63.7205 39.4555 63.6976C39.9685 63.6516 40.4839 63.6113 40.9985 63.5877L42.0269 63.5399C42.7125 63.5082 43.398 63.4775 44.0841 63.4525C45.9617 63.3839 47.8392 63.3054 49.7157 63.2095C49.7289 62.6889 49.7426 62.1684 49.7565 61.6478C49.6665 61.7443 49.5363 61.8078 49.3653 61.8074C47.3953 61.8021 45.4238 61.8135 43.454 61.7811C42.468 61.7648 41.4831 61.741 40.4983 61.6904C40.0164 61.6656 39.5318 61.6152 39.0536 61.5489C38.8496 61.5207 38.6265 61.5005 38.4077 61.4655ZM38.0924 58.7314C38.185 59.5173 38.2759 60.3036 38.3653 61.0899C38.6099 61.0462 38.8626 61.023 39.0909 60.9919C39.5813 60.9252 40.0748 60.8721 40.5687 60.8442C41.5298 60.7898 42.4915 60.7624 43.454 60.742C45.4236 60.7001 47.3953 60.7004 49.3653 60.6848C49.5504 60.6834 49.6878 60.7566 49.778 60.866C49.7917 60.3751 49.8061 59.8843 49.821 59.3934C49.6307 59.3733 49.442 59.3449 49.2674 59.3327C48.7309 59.2952 48.1941 59.261 47.6572 59.2302C46.5366 59.1659 45.415 59.111 44.2936 59.0622C43.172 59.0133 42.05 58.9656 40.9281 58.9241L40.4374 58.9062C39.6571 58.8771 38.8637 58.8405 38.0924 58.7314ZM37.7396 55.7713C37.836 56.5673 37.931 57.3635 38.0257 58.1598L38.0545 58.4062C38.9929 58.2237 39.9818 58.1703 40.9281 58.13C42.0503 58.0823 43.1705 58.0577 44.2936 58.0611C45.4157 58.0645 46.536 58.0911 47.6572 58.1374C48.2174 58.1605 48.7775 58.1873 49.3374 58.2177C49.4913 58.2261 49.6718 58.2216 49.8576 58.2243C49.8616 58.0992 49.865 57.9741 49.8693 57.849C49.8864 57.3422 49.9031 56.8354 49.9205 56.3286C49.5418 56.5232 49.0494 56.6017 48.6689 56.6846L48.6255 56.6942C47.9971 56.8354 47.3555 56.9269 46.7141 56.9828C45.4545 57.0927 44.1818 57.0517 42.9234 56.9452L42.703 56.9263C41.598 56.8305 40.4524 56.709 39.3811 56.4354C38.8708 56.3052 38.3433 56.1228 37.886 55.8586C37.8385 55.8311 37.7894 55.802 37.7396 55.7713ZM48.3796 46.3116C48.3905 46.2685 48.4549 46.2587 48.4761 46.2989C48.6249 46.5817 48.6803 46.9212 48.7836 47.2242C48.8948 47.5499 48.9985 47.8781 49.1212 48.1999C49.3775 48.8723 49.6798 49.5184 50.0402 50.1412C50.3972 50.7579 49.3977 51.1982 49.135 50.523C48.8638 49.8262 48.6409 49.1058 48.5061 48.3695C48.4402 48.0103 48.3815 47.6462 48.3625 47.2812C48.3461 46.9677 48.302 46.6174 48.3796 46.3116Z" fill="currentColor"/>
<path fill-rule="evenodd" clip-rule="evenodd" d="M33.5225 20.9597C33.5215 20.9641 33.523 20.9674 33.524 20.9721C33.5242 20.9707 33.5244 20.97 33.5248 20.9684C33.5239 20.9649 33.5233 20.9625 33.5225 20.9597Z" fill="#4F66AF"/>
<path fill-rule="evenodd" clip-rule="evenodd" d="M33.5223 21.0047C33.5184 21.0006 33.5129 20.9976 33.5074 20.9935C33.5073 20.9936 33.5072 20.9938 33.5071 20.9939C33.5123 20.9973 33.5172 21.0012 33.5223 21.0047Z" fill="#4F66AF"/>
<path fill-rule="evenodd" clip-rule="evenodd" d="M56.3398 23.2136C56.6862 22.9257 57.2317 23.1908 57.1144 23.6647C56.9867 24.1808 56.4338 24.5335 55.9773 24.7455C55.5074 24.9637 55.0498 25.0058 54.5372 24.982L54.5308 24.9805C54.6731 25.5514 54.7539 26.1448 54.8627 26.7191C55.0009 27.4477 55.1368 28.1767 55.2707 28.906C55.4002 29.6109 55.5639 30.3167 55.6634 31.0252C55.7638 31.7403 55.8601 32.4559 55.9587 33.1713C56.1232 34.3661 56.2561 35.5663 56.3961 36.7645L56.4628 37.3316C56.6031 38.5321 56.716 39.734 56.4502 40.9286C56.2011 42.0482 55.64 43.0926 54.9891 44.0272C54.3517 44.9423 53.6397 45.8222 52.8581 46.6182C51.3504 48.1534 49.4912 49.383 47.3112 49.611C46.3726 49.7092 45.37 49.6 44.4876 49.2586L44.429 49.2357C43.5357 48.8829 42.4418 48.2788 42.2093 47.2874C42.0665 46.6793 42.6929 46.2046 43.2422 46.4931C43.4966 46.6269 43.688 46.7796 43.8969 46.9712L43.9339 47.0054C44.1046 47.164 44.1703 47.2128 44.3673 47.3368C44.7713 47.5911 45.0741 47.7114 45.533 47.827C46.3791 48.0399 47.2922 48.0062 48.151 47.7544C49.9746 47.2198 51.3892 45.8249 52.6011 44.4263C53.2591 43.6667 53.8837 42.87 54.3654 41.9848C54.8708 41.0561 55.1041 40.081 55.0901 39.0242C55.0743 37.8318 54.9096 36.6348 54.8015 35.4481C54.6913 34.2383 54.5895 33.0288 54.4998 31.8173C54.4157 30.6812 54.4076 29.5399 54.3782 28.4002L54.3724 28.1865C54.3552 27.5815 54.3432 26.9763 54.3295 26.3711C54.3159 25.7677 54.2681 25.1566 54.3303 24.5557C54.3347 24.512 54.3936 24.5009 54.408 24.5452C54.4446 24.6577 54.4767 24.7721 54.507 24.8871C54.5116 24.8835 54.5168 24.8804 54.5231 24.8782C54.9248 24.7401 55.2948 24.4644 55.5962 24.1671C55.8838 23.8834 56.034 23.4678 56.3398 23.2136ZM34.3626 14.7598C34.6149 13.723 35.7504 13.4914 36.5901 13.9907C36.9939 14.2308 37.3173 14.5771 37.6946 14.8523C38.0696 15.1259 38.4841 15.3456 38.9215 15.5008C39.7905 15.8091 40.7071 15.9212 41.6255 15.9252C43.8607 15.935 46.0502 15.3066 48.2887 15.3767C50.0208 15.4309 51.8593 15.943 53.1157 17.1956C53.7925 17.8704 54.2287 18.7379 54.4626 19.6589C54.5719 20.0894 54.6534 20.5302 54.7177 20.9701L54.7334 21.08C54.7694 21.3371 54.8272 21.6093 54.8325 21.8691C54.8374 22.1024 54.7784 22.3466 54.7464 22.5775C54.679 23.0643 53.9253 23.0089 53.817 22.5775C53.5703 21.5954 53.6736 20.5817 53.3722 19.603C53.1049 18.735 52.587 17.9762 51.8365 17.4571C48.6703 15.2676 44.6101 17.1012 41.1217 16.9308C40.2691 16.8892 39.4039 16.7574 38.5997 16.4637C38.185 16.3122 37.7767 16.1275 37.4007 15.8951C37.0562 15.6824 36.7577 15.4151 36.4389 15.1691L36.2982 15.0622C36.0795 14.8976 35.7074 14.6404 35.4868 14.858C35.3908 14.9528 35.385 15.167 35.3868 15.3306L35.3879 15.4045C35.3979 16.099 35.5394 16.7922 35.2796 17.4632C35.161 17.7692 34.8317 17.9622 34.5184 17.7889L34.5022 17.7796C33.8396 17.3853 32.9691 18.1776 33.4781 18.8334L33.4939 18.8533C33.7803 19.2014 33.6276 19.8146 33.1151 19.813L33.0966 19.8127C32.1834 19.7842 31.7782 20.926 32.5653 21.4248L32.5896 21.4398C33.2287 21.8224 32.6681 22.7422 32.0131 22.4264C32.0686 22.4532 31.9721 22.4528 31.9169 22.5269C31.8639 22.5981 31.8599 22.6597 31.8725 22.7496C31.9108 23.0219 32.1502 23.2515 32.3441 23.4238C32.7847 23.8153 33.3308 24.0856 33.8936 24.2502C36.1478 24.9094 38.4605 24.103 40.6568 23.616C42.9466 23.1082 45.5328 22.9037 47.5297 24.3445C47.5534 24.3615 47.5327 24.3996 47.5064 24.3844C46.0733 23.5519 44.3181 23.6258 42.7515 23.9671C40.6973 24.4147 38.661 25.2479 36.5572 25.4675C37.1478 26.5105 37.395 27.7425 37.2372 28.9356C37.1286 29.7569 36.8019 30.4693 36.416 31.1912L36.3424 31.3288C35.9983 31.9768 35.7318 32.5889 35.7275 33.3396C35.7234 34.0855 34.615 34.2427 34.4271 33.5158C34.0006 31.8648 35.5545 30.5643 36.1885 29.2029C36.7304 28.039 36.7471 26.6821 36.3086 25.4904C35.8138 25.5302 35.3151 25.5344 34.8115 25.4894C34.3789 25.4508 33.9338 25.3728 33.5 25.2493L33.3264 25.9792C33.0965 26.9514 32.8835 27.9229 32.8189 28.9326C32.7714 29.6746 32.7739 30.4202 32.8463 31.1604C32.9088 31.7997 33.0408 32.4162 33.1751 33.0403C33.2903 33.1923 33.3491 33.425 33.3168 33.6104C34.0646 33.8258 34.6529 34.4162 34.8678 35.1981C34.8809 35.2457 34.8143 35.2725 34.7894 35.2312C34.2794 34.3848 32.9663 34.0734 32.1357 34.6325C31.3425 35.1664 31.0296 36.2443 31.4786 37.0976C31.7148 37.5462 32.0649 37.8615 32.5165 38.0786L32.6072 38.1213C32.8439 38.2333 33.0611 38.3554 33.2132 38.5803C33.4106 38.8721 33.4173 39.1806 33.3986 39.514L33.3906 39.6492C33.3781 39.8727 33.3753 40.1028 33.4418 40.3178L33.4569 40.3656C33.4745 40.4192 33.4929 40.4665 33.525 40.5177C33.5346 40.5329 33.6244 40.6211 33.6537 40.653L33.6906 40.6642L33.7319 40.6659C33.7777 40.6666 33.8378 40.6467 33.8181 40.6605L33.8235 40.6574C33.8408 40.6466 33.8568 40.6352 33.8703 40.625L33.8958 40.605C33.9556 40.5186 34.0306 40.4471 34.1225 40.3927L34.2103 40.3536C34.4384 40.1126 34.8292 40.2392 34.9927 40.4792C35.1104 40.6519 35.1737 40.8273 35.1789 41.0004C35.1973 40.9709 35.2382 40.9548 35.2641 40.9878L35.4192 41.1855C36.0124 41.9437 36.5954 42.7067 37.2694 43.3979C37.6408 43.7787 38.0402 44.1366 38.4577 44.4662C38.8142 44.7477 39.4904 45.0185 39.5008 45.5312C39.504 45.6976 39.3859 45.8154 39.2414 45.8719C38.7711 46.0557 38.1899 45.4305 37.8502 45.1263L37.8225 45.1018C37.4067 44.7375 37.0272 44.3376 36.6771 43.91C35.997 43.0793 35.4284 42.1232 35.1777 41.0715C35.166 41.255 35.0872 41.4348 34.934 41.6045C34.73 41.8304 34.4508 41.9888 34.1525 42.054C33.4768 42.2018 32.8171 41.9585 32.4151 41.3952C32.0752 40.9191 31.9752 40.2903 32.019 39.715L32.0244 39.646C32.0306 39.5537 32.0385 39.3844 32.0623 39.3124L31.8496 39.1955C31.5887 39.0567 31.347 38.8746 31.13 38.6745C30.2579 37.8703 29.8204 36.5632 30.2191 35.4195C30.4684 34.704 30.9925 34.0814 31.6634 33.7578C31.5513 33.4985 31.5138 33.1906 31.4715 32.9182L31.4644 32.8731C31.3926 32.4262 31.3325 31.9736 31.3096 31.5213C31.2668 30.6766 31.3189 29.824 31.4515 28.9891C31.667 27.633 32.1132 26.1949 32.9309 25.0572C32.307 24.8094 31.7328 24.4506 31.2896 23.9524C30.8264 23.4317 30.5311 22.6864 30.8893 22.0252C30.9806 21.8567 31.0995 21.715 31.2362 21.6025C30.9991 21.1547 30.9225 20.6255 31.0687 20.1197C31.2435 19.5149 31.7181 19.0433 32.2914 18.823C32.1522 18.2501 32.266 17.6338 32.6914 17.1563C33.1134 16.6825 33.7687 16.51 34.3751 16.6183C34.408 16.0089 34.2163 15.3608 34.3626 14.7598ZM32.6615 36.1554C33.2176 35.8832 33.8766 35.9265 34.432 36.1845L34.4697 36.2023C35.0761 36.4965 35.8792 37.1838 35.6865 37.9148C35.5737 38.3423 35.0989 38.4882 34.7307 38.3037C34.4232 38.1495 34.353 37.8738 34.1987 37.5969C34.0896 37.4011 33.9548 37.248 33.7964 37.0905C33.4625 36.7588 33.0875 36.5123 32.6615 36.3151C32.6001 36.2867 32.6022 36.1845 32.6615 36.1554ZM46.6724 21.38C46.6203 21.3562 46.6581 21.2745 46.7106 21.2895C48.1078 21.6886 49.4106 22.5846 50.189 23.8283C50.2365 23.9041 50.2438 24.029 50.189 24.1041L50.1638 24.1382C50.1281 24.1849 50.0929 24.2193 50.0258 24.2297C49.8996 24.2493 49.7899 24.2164 49.7173 24.1041C48.9504 22.9188 47.9678 21.9727 46.6724 21.38ZM56.0263 21.6147C56.1447 21.4141 56.4586 21.4545 56.521 21.6794L56.5301 21.699C56.5638 21.7756 56.5485 21.7913 56.4855 21.7479C56.6413 21.8763 56.7118 22.0675 56.6642 22.2731C56.407 23.3834 55.1499 24.1762 54.054 24.0671C53.9584 24.0576 53.9453 23.94 54.032 23.9049C54.4536 23.7341 54.8279 23.4568 55.1288 23.1164C55.4212 22.7856 55.5443 22.4071 55.7016 22.0075C55.7606 21.8575 55.8524 21.7495 55.9818 21.6906C55.9989 21.6669 56.0139 21.6417 56.0263 21.6147ZM49.7941 20.9012L49.8017 20.9017C50.3648 20.9744 50.8519 21.2524 51.2473 21.6598C51.6282 22.0521 52.1088 22.6994 52.0676 23.275C52.0404 23.6566 51.498 23.8748 51.2956 23.4842C51.1748 23.2512 51.1474 22.9957 51.0628 22.7493C50.9852 22.5234 50.878 22.309 50.7497 22.1079C50.4856 21.6935 50.1223 21.3424 49.7504 21.0257C49.7068 20.9886 49.7372 20.9014 49.7941 20.9012ZM35.3515 20.7321C35.2267 20.6132 35.3565 20.4104 35.5153 20.4506C36.3528 20.6627 37.1823 20.9207 38.0531 20.9463C38.488 20.9591 38.9205 20.9248 39.3513 20.8685L39.5694 20.8395C39.9054 20.7956 40.2472 20.7612 40.5793 20.8302C40.8007 20.8762 40.8439 21.1615 40.7059 21.3104C40.0545 22.0134 38.7978 21.9462 37.9338 21.8277C36.9956 21.6989 36.0489 21.3967 35.3515 20.7321ZM50.4758 18.5408C50.4185 18.4612 50.515 18.3357 50.6062 18.371C51.4386 18.6928 52.3109 19.5307 52.5402 20.4073C52.6007 20.6389 52.3088 20.8137 52.1374 20.6418C51.818 20.3215 51.5925 19.9431 51.3225 19.583C51.0534 19.2241 50.7386 18.9053 50.4758 18.5408ZM36.8383 18.9323C36.7715 18.8656 36.8387 18.7327 36.9346 18.7666C37.4765 18.9586 38.0225 19.1247 38.5918 19.2119C39.1749 19.3011 39.7635 19.2333 40.3496 19.2694C40.5867 19.284 40.7482 19.653 40.4846 19.7679C39.3134 20.278 37.7225 19.8154 36.8383 18.9323ZM38.3345 17.788C38.2414 17.7191 38.2944 17.5301 38.4211 17.5828C38.9371 17.7978 39.459 17.8506 40.0128 17.8285C40.2174 17.8202 40.2605 18.1418 40.0611 18.1852C39.4489 18.3185 38.8348 18.1581 38.3345 17.788Z" fill="currentColor"/>
<path fill-rule="evenodd" clip-rule="evenodd" d="M47.7173 42.7579C47.2439 42.5647 46.8215 42.2424 46.5127 41.8307C46.4053 41.6876 46.3775 41.5365 46.4 41.3983C46.4254 41.2428 46.5173 41.102 46.6426 41.0075C46.7684 40.9127 46.9257 40.866 47.0777 40.8898C47.2098 40.9105 47.3414 40.9829 47.4455 41.133L47.4672 41.163C47.6508 41.4115 47.8901 41.6153 48.1627 41.7467C48.4254 41.8734 48.7192 41.9325 49.0233 41.8981C49.6025 41.8327 50.0016 41.5193 50.4259 41.0939C50.4785 41.0401 50.5311 40.9847 50.584 40.9284C50.6174 40.8774 50.6637 40.8446 50.7152 40.8274C50.7723 40.8083 50.837 40.8094 50.8961 40.83C50.9532 40.85 51.0043 40.8877 51.0385 40.938C51.071 40.9858 51.0895 41.0448 51.0835 41.1127C51.0447 41.5536 50.8142 41.9472 50.4869 42.2562C50.1233 42.5994 49.6414 42.8368 49.1877 42.9201C48.6878 43.0118 48.1785 42.9461 47.7173 42.7579ZM49.4235 35.9553C49.9553 36.2786 50.7656 37.0327 50.1935 37.8343C49.5201 38.5412 48.5505 37.7307 48.0728 37.3642C47.6298 37.0801 47.132 37.8107 47.543 38.1424C50.9954 40.6994 52.3965 36.0398 49.6925 35.5751C49.3947 35.5238 49.2842 35.8552 49.4235 35.9553ZM43.2368 32.9808C43.2956 32.2512 44.4063 32.0855 44.5168 32.8075C44.6157 33.4542 44.4993 34.0483 44.2081 34.6306C43.9298 35.1869 43.2305 34.9273 43.1776 34.4208C43.1067 33.7418 43.2002 33.4347 43.2368 32.9808ZM51.692 32.6578C51.8468 32.4549 52.0704 32.3164 52.3383 32.3947C53.1753 32.6393 52.9286 33.828 52.6347 34.4066C52.4749 34.7209 51.9587 34.8005 51.7254 34.5239C51.3451 34.0727 51.163 33.1717 51.6464 32.7273C51.6595 32.7044 51.6741 32.6812 51.692 32.6578ZM44.1963 29.7883L44.3285 29.7651C44.7375 29.6944 45.246 29.6264 45.5354 29.9553C45.6888 30.1298 45.7416 30.454 45.5354 30.6209C45.1725 30.9147 44.7714 30.8009 44.3366 30.8257C43.9783 30.8463 43.634 30.9056 43.2888 31.0043C42.5316 31.2208 41.9147 31.616 41.268 32.05C41.1831 32.1069 41.0965 31.9984 41.137 31.919C41.5103 31.1875 42.2337 30.5866 42.9584 30.2204C43.3451 30.0249 43.7684 29.8627 44.1963 29.7883ZM50.929 29.4606L51.0302 29.4813C52.1314 29.7116 53.5622 30.1716 54.0836 31.2537C54.1035 31.4067 54.0825 31.4395 54.0654 31.4609L54.0598 31.468C54.0457 31.4863 54.0345 31.5115 53.9682 31.5324C53.9498 31.528 53.9312 31.5233 53.9124 31.5184C53.6734 31.4558 53.4843 31.3694 53.3012 31.2798L53.1026 31.182C52.8723 31.069 52.64 30.9602 52.3937 30.8798C51.8682 30.7083 51.3277 30.5875 50.7788 30.523C50.6598 30.5091 50.5453 30.4689 50.4549 30.4001C50.3691 30.3347 50.3036 30.2442 50.2737 30.124C50.235 29.9684 50.2461 29.8505 50.3296 29.7101C50.3923 29.6047 50.4821 29.5316 50.5852 29.4896C50.6904 29.4469 50.8101 29.4368 50.929 29.4606Z" fill="currentColor"/>
<path fill-rule="evenodd" clip-rule="evenodd" d="M53.1266 25.4596C53.5337 25.3201 53.8583 25.7435 53.7802 26.1126C53.6879 26.5473 53.2344 26.8962 52.9337 27.2026C52.6182 27.5252 52.2964 27.8416 51.9626 28.1459C51.3252 28.7279 50.6647 29.2759 49.9682 29.7867L49.7552 29.9428C49.1168 30.4101 48.4802 30.8665 47.7964 31.2711C47.4259 31.4895 47.052 31.7008 46.6731 31.9044C46.538 31.977 46.3731 32.0889 46.2035 32.1721C46.8238 32.6512 47.3013 33.3825 47.4048 34.0637C47.6612 35.7559 46.571 37.3241 45.0329 37.9476C44.2661 38.2583 43.4126 38.3485 42.5928 38.2548C41.759 38.1596 40.914 37.913 40.3724 37.2297C39.8914 36.6232 39.7182 35.849 39.6837 35.0888C39.6675 34.728 39.671 34.3729 39.7471 34.0538C39.4154 34.0567 39.0837 34.0552 38.7548 34.0588C37.9421 34.0665 37.128 34.0701 36.3147 34.0475C35.4759 34.0235 34.6414 33.9862 33.8055 33.9116C33.4386 33.8784 33.0738 33.8242 32.709 33.772C32.3548 33.722 31.964 33.703 31.633 33.5579C31.6105 33.5487 31.6198 33.5163 31.6393 33.5099C31.9921 33.3958 32.3928 33.4162 32.7605 33.3937L33.1187 33.372C33.4172 33.3541 33.7154 33.3377 34.0147 33.3281C34.7061 33.3054 35.3969 33.2998 36.0881 33.2879L36.3844 33.2824C37.1978 33.2662 38.0112 33.257 38.8245 33.231C39.1619 33.2204 39.4999 33.2007 39.8386 33.1824C39.8781 33.0928 39.9359 33.0111 39.9914 32.9316C40.1576 32.6934 40.3689 32.4835 40.5879 32.2933C41.0364 31.9015 41.5414 31.6106 42.1048 31.4155C42.6631 31.2228 43.4797 31.1271 44.0703 31.1396C44.6609 31.152 45.5026 31.2354 45.7731 31.7184C45.8013 31.7684 46.3161 31.6719 46.4689 31.5549C46.8259 31.2823 47.1766 31.0019 47.5209 30.7145C48.1605 30.1798 48.8181 29.6535 49.4238 29.0815C50.0485 28.4911 50.6682 27.8909 51.2626 27.2709C51.5612 26.9602 51.859 26.6488 52.1485 26.3304C52.4443 26.0056 52.6985 25.6055 53.1266 25.4596Z" fill="currentColor"/>
</g>
</svg>
