<svg width="80" height="108" viewBox="0 0 80 108" fill="none" xmlns="http://www.w3.org/2000/svg">
<g opacity="0.75">
<path fill-rule="evenodd" clip-rule="evenodd" d="M60.2589 67.0192C60.2455 67.0325 60.2315 67.046 60.2181 67.0601C60.2336 67.0382 60.2469 67.0156 60.2589 66.9931V67.0192ZM48.997 63.7305C48.4765 64.3956 47.9258 65.749 47.4202 66.426C47.3477 66.5232 47.2765 66.6205 47.2061 66.7183C46.9962 67.0121 47.2765 67.4616 47.6216 67.4426C48.311 67.4059 48.9998 67.3545 49.6885 67.3024C48.2737 68.8797 47.0991 70.839 45.7998 72.51C45.7117 72.622 45.6251 72.7348 45.5385 72.8475C45.2096 73.2765 45.5392 73.471 45.9885 73.3554C46.0815 73.3315 46.1744 73.3076 46.2674 73.2843C46.9209 73.1167 47.5737 72.949 48.2272 72.782C48.5885 72.689 48.9519 72.5742 49.3181 72.503C49.4688 72.4742 49.6131 72.4981 49.7554 72.5059C49.6871 72.6101 49.5913 72.7982 49.5723 72.827C49.3589 73.1596 49.1441 73.4907 48.9279 73.8204C48.5068 74.4616 48.0836 75.1019 47.6448 75.731C45.9336 78.1841 44.0878 80.5259 42.2582 82.8895C41.7977 83.484 41.3308 84.0724 40.8561 84.655C40.8582 84.6514 40.8596 84.6479 40.8617 84.6444C41.2892 83.8116 41.7167 82.9797 42.1441 82.1469C42.9568 80.5646 43.7617 78.9781 44.5829 77.4C44.6251 77.3176 44.6681 77.2359 44.711 77.1535C44.8815 76.8265 44.6019 76.487 44.2519 76.556C42.5444 76.8925 40.8535 77.306 39.1836 77.7957C39.1084 77.8758 38.9979 77.8993 38.8993 77.8799C38.8322 77.9 38.7648 77.9193 38.6977 77.9397C38.718 77.8975 38.7391 77.8557 38.7596 77.8136C38.6913 77.7543 38.6574 77.6625 38.7017 77.5479C39.6627 75.0675 40.9801 72.673 42.5411 70.48C42.4783 70.4812 42.4156 70.4821 42.3526 70.4839C40.6392 70.5304 38.9582 70.7763 37.3068 71.2433C37.2991 71.0904 37.3913 70.8538 37.4413 70.7411C37.6413 70.2908 37.8709 69.8512 38.0857 69.4081C38.5251 68.4979 38.9646 67.5884 39.404 66.6782C39.8336 65.7891 40.2596 64.8972 40.6639 63.9955C40.8758 63.5227 41.0878 63.0493 41.2991 62.5759C41.4716 62.1905 41.6075 61.8023 41.7505 61.4079C42.1702 61.5311 47.5596 61.5578 48.8695 61.6488C49.1906 61.6713 49.5124 61.6918 49.8343 61.7094C50.0906 61.7242 50.4519 61.7805 50.6286 61.5488L50.6955 61.605C50.1139 62.3011 49.5561 63.0162 48.997 63.7305ZM27.9554 50.7988C27.9822 50.7868 28.0082 50.7748 28.0343 50.7628C28.0477 50.7819 28.0639 50.7995 28.0808 50.8171C28.123 50.8601 28.1646 50.9065 28.2082 50.9488C28.1237 50.8994 28.0392 50.8494 27.9554 50.7988ZM65.6202 90.391C65.5716 89.3646 65.5174 88.338 65.4596 87.3116C65.3455 85.3052 65.2279 83.2988 65.0709 81.2952C64.7519 77.2352 64.4547 73.1765 63.9765 69.1312C63.7758 67.4355 63.4955 65.7525 63.2146 64.0687C63.2505 64.0363 63.2871 64.0039 63.323 63.9722C63.2843 64.4329 63.9096 64.7246 64.2195 64.2652C64.2427 64.2308 64.2653 64.1963 64.2878 64.1603C64.5561 63.7264 65.1744 61.5973 65.1315 61.4169C65.054 61.0922 64.8385 60.8034 64.6702 60.5174C64.523 60.2672 64.3744 60.0171 64.2237 59.7692C63.923 59.2724 63.6131 58.7808 63.2885 58.2995C62.616 57.3034 61.8808 56.3467 61.0146 55.5105C60.1181 54.6439 59.0892 53.9316 58.0265 53.2857C57.516 52.9756 56.9892 52.6946 56.4526 52.4324C55.923 52.1746 55.3434 51.8893 54.773 51.7427C54.7406 51.7343 54.7075 51.7794 54.7371 51.8034C54.8885 51.9232 55.047 52.0358 55.2082 52.1443C54.7716 51.9929 54.3216 51.8836 53.8681 51.8449C52.9899 51.5363 52.1012 51.2539 51.2272 50.9319C50.3681 50.6148 49.5216 50.2584 48.9505 49.5074C48.4624 48.8656 48.154 48.0801 47.9167 47.315C47.6561 46.4717 47.5526 45.5953 47.3117 44.7506C47.2927 44.6822 47.1808 44.6745 47.166 44.7506C46.9941 45.6368 47.0019 46.6331 47.0998 47.5277C47.2026 48.4661 47.4667 49.387 48.0413 50.1499C48.7089 51.0369 49.6146 51.5307 50.6336 51.9245C51.4554 52.243 52.2878 52.567 53.1293 52.8516C53.0195 52.9235 52.9082 52.9953 52.7934 53.0637C52.3371 53.335 51.8624 53.5759 51.3772 53.7922C50.4913 54.1874 49.5582 54.4833 48.6195 54.7235C46.8723 55.1687 45.0808 55.3949 43.2793 55.4245C39.6751 55.4844 36.0308 54.7292 32.7343 53.2709C31.8061 52.8601 30.8998 52.4085 30.0026 51.9344C29.7223 51.7864 29.4406 51.6371 29.1603 51.4835C29.1836 51.4821 29.2075 51.48 29.2308 51.4778C29.8568 51.4187 30.4751 51.2983 31.0808 51.1278C32.3209 50.7776 33.5096 50.2317 34.6772 49.694C35.6674 49.2382 36.6871 48.719 37.292 47.7694C37.6153 47.2615 37.7639 46.6655 37.8843 46.0821C38.0188 45.4326 38.1772 44.7802 38.2751 44.1243C38.3096 43.8947 38.2582 43.584 38.0117 43.4755C37.9131 43.4324 37.8322 43.3972 37.7216 43.3972C37.4772 43.3972 37.2265 43.5748 37.1681 43.8186C37.0237 44.4266 36.9364 45.0515 36.823 45.6657C36.7251 46.1969 36.6357 46.7514 36.3491 47.2184C35.8484 48.0364 34.8667 48.4548 34.0371 48.8529C32.9857 49.3574 31.9336 49.849 30.8413 50.2584C30.3603 50.4387 29.8709 50.6022 29.3744 50.736C29.3941 50.6142 29.3772 50.4859 29.3054 50.3894C29.1857 50.2302 29.0498 50.1245 28.8955 50.0027C28.7279 49.8702 28.5026 49.8012 28.3047 49.8597C28.3047 49.8603 28.304 49.8597 28.304 49.8597C28.2237 49.8421 28.135 49.849 28.0434 49.8906C27.7603 50.0203 27.4779 50.1513 27.1955 50.2845C23.1329 52.1965 19.1857 54.4424 16.1962 57.8627C15.7653 58.3559 15.3617 58.8745 14.9836 59.4091C14.616 59.9284 14.161 60.492 14.0596 61.1358C14.0512 61.1895 14.1293 61.2141 14.1427 61.1591C14.1667 61.0598 14.1991 60.9625 14.2392 60.8681C14.1554 61.1613 14.1603 61.4727 14.2786 61.7791C14.4188 62.1398 14.6758 62.3787 15.0005 62.4737C14.6744 63.9032 14.4554 65.3517 14.2793 66.8162C14.0265 68.9262 13.8469 71.0412 13.7117 73.1617C13.4413 77.3937 13.3209 81.6468 13.4082 85.8864C13.4329 87.0847 13.4737 88.2832 13.5357 89.4808C13.5667 90.0796 13.6005 90.6777 13.6392 91.2765C13.6772 91.8655 13.6462 92.5144 14.1596 92.8251C14.166 92.8483 14.173 92.8708 14.1793 92.894C14.304 93.3287 14.8596 93.1893 14.9117 92.7947C14.9124 92.7906 14.9131 92.7856 14.9139 92.7814C15.3336 92.4608 15.2702 91.9268 15.2392 91.4146C15.2061 90.8616 15.1709 90.3093 15.1413 89.757C15.085 88.6973 15.0371 87.6378 14.9941 86.5775C14.9103 84.4809 14.8631 82.3816 14.8477 80.2835C14.8167 76.0868 15.0589 71.8964 15.3462 67.7117C15.4667 65.961 15.6075 64.218 15.6505 62.4681C15.8751 62.3511 15.9441 62.0187 15.8315 61.7946C18.492 63.6108 20.961 65.782 22.9434 68.3056C23.2744 68.7268 23.5906 69.1608 23.8934 69.6026C23.992 69.7463 24.0857 69.8957 24.18 70.045C24.0885 70.4613 24.0174 70.8847 23.9244 71.2842C23.7329 72.1092 23.6519 72.9651 23.542 73.8036C23.3188 75.5063 23.1617 77.2245 23.0286 78.9365C22.7667 82.3174 22.5723 85.6976 22.511 89.0884C22.4772 91.006 22.4322 92.9356 22.5167 94.8526C22.454 95.2274 22.7913 95.5938 23.1441 95.641C23.4533 95.6825 23.742 95.5219 23.8772 95.2633C24.8406 95.383 25.8293 95.4381 26.7864 95.445C28.0758 95.4542 29.3653 95.4529 30.6547 95.4253C33.2343 95.369 35.8131 95.3028 38.392 95.226C43.5498 95.0738 48.7075 94.921 53.866 94.7681C55.2962 94.7257 56.7265 94.6835 58.1568 94.6413C58.8019 94.6223 59.6061 94.8082 60.1146 94.3102C60.2019 94.2241 60.2695 94.1234 60.3174 94.0156C60.4695 94.0537 60.6561 94.0163 60.7561 93.8987C60.9427 93.6782 61.0801 93.4739 61.073 93.1682C61.0667 92.8821 60.9878 92.5806 60.9469 92.2974C60.8695 91.7655 60.7948 91.2335 60.7237 90.7009C60.5836 89.6484 60.4526 88.5945 60.3322 87.5398C60.0857 85.3834 59.8617 83.222 59.6871 81.0584C59.3406 76.7801 59.2427 72.4791 59.2547 68.1873C59.2561 67.8033 59.2582 67.4194 59.2603 67.0353C59.2765 67.0558 59.2941 67.0748 59.3131 67.0911C59.3286 67.1044 59.3441 67.1178 59.3596 67.1319C59.5399 67.2904 59.8399 67.3722 60.0561 67.2221C60.3216 67.0501 60.5047 66.7923 60.7117 66.5592C60.9293 66.3147 61.1533 66.0765 61.3793 65.8399C61.8174 65.3819 62.2702 64.943 62.7322 64.509C62.7695 64.4745 62.8068 64.4393 62.8441 64.4054C62.847 65.7715 62.8455 67.1369 62.8822 68.5022C62.9371 70.5304 63.0469 72.5566 63.1477 74.582C63.3477 78.5927 63.5547 82.602 63.754 86.612C63.8096 87.7315 63.8624 88.8516 63.9181 89.9711C63.9462 90.5312 63.9737 91.0912 64.0005 91.6514C64.0146 91.9542 64.0286 92.258 64.0427 92.5609C64.0582 92.8864 64.0378 93.2343 64.1477 93.5437C64.3977 94.2509 65.4779 94.351 65.6857 93.5437C65.816 93.0371 65.716 92.4509 65.6927 91.931C65.6688 91.4182 65.6448 90.9045 65.6202 90.391Z" fill="currentColor"/>
<path fill-rule="evenodd" clip-rule="evenodd" d="M58.0173 51.6879C57.787 50.9911 57.4983 50.3155 57.2286 49.6329C57.1716 49.2926 57.1335 48.9495 57.1237 48.6036C57.0863 47.3679 57.3174 46.1216 57.5765 44.9183C58.1032 42.473 58.6617 40.0531 58.942 37.5626C59.4427 33.1081 59.1448 28.476 57.1194 24.4096C55.3645 20.8871 52.3906 18.0064 48.549 16.9271C47.4134 16.6079 46.2446 16.4318 45.0677 16.3615C44.922 16.3384 44.7765 16.3157 44.6318 16.2938C42.9949 16.047 41.3378 15.924 39.6833 16.0304C36.9396 16.207 34.2216 16.9958 31.9365 18.5558C29.6359 20.1267 28.0013 22.3292 27.2406 25.0157C26.4494 27.8104 26.5165 30.8372 25.1501 33.4574C24.7464 34.2315 24.2752 34.9674 23.8258 35.7156C22.6335 37.0465 21.339 38.526 21.0554 40.3559C20.7054 42.6174 22.0061 44.5288 23.237 46.2935C24.3497 47.8871 25.8596 50.088 24.7145 52.05C24.1744 52.9757 23.3089 53.6682 22.6589 54.5122C21.9849 55.3886 21.4589 56.3947 21.187 57.4697C20.6765 59.4888 21.1462 61.5932 22.5117 63.1713C23.223 63.9927 24.1363 64.5359 25.1251 64.9593C26.137 65.3918 27.1258 65.8026 27.9624 66.5388C28.3448 66.8748 28.6948 67.2433 29.0258 67.6293C29.3342 68.1119 29.6934 68.5628 30.0983 68.9756C30.5441 69.43 31.4173 68.808 31.0082 68.2733C30.9779 68.2338 30.9483 68.1951 30.918 68.1556C30.6187 67.7653 30.318 67.375 30.0032 66.9974C29.0645 65.5094 28.7032 63.6877 29.1701 61.9496C29.2913 61.4981 29.4617 61.0697 29.6737 60.6653C29.7187 60.783 29.768 60.8992 29.8201 61.0141C30.023 61.4593 30.3075 61.9869 30.6694 62.4379C30.6835 62.7471 30.7301 63.0536 30.8201 63.3537C31.3779 65.2143 33.2427 66.1323 34.9244 66.8466C35.0892 66.9171 35.2518 66.9847 35.4117 67.0516C35.8511 67.2355 36.3159 66.6092 36.042 66.2315C35.9701 66.1323 35.9004 66.0308 35.8342 65.928C35.0455 64.7064 34.6701 63.2452 34.8828 61.7897C35.1068 60.2504 36.0138 58.9767 36.9145 57.7543C37.799 56.5525 38.749 55.3259 39.1448 53.8599C39.5828 52.2402 39.1842 50.6255 38.5082 49.1348C37.8892 47.7707 37.0646 46.5133 36.3731 45.1868C36.6099 45.423 36.8542 45.6514 37.1058 45.8718C37.3889 46.1197 37.6796 46.4033 38.0151 46.578C38.2631 46.7071 38.5115 46.398 38.3151 46.189C38.057 45.9144 37.7266 45.7022 37.4399 45.4571C37.1647 45.2218 36.8975 44.9772 36.6368 44.7259C36.3159 44.4165 36.0106 44.0926 35.7163 43.7589C35.4807 43.1586 35.2866 42.5421 35.1286 41.9165C34.9138 41.0697 34.7152 40.1686 34.7307 39.2908C34.7462 38.3904 35.2138 37.7599 35.8363 37.1554C36.1 36.8995 36.3662 36.6466 36.6319 36.3932C37.1978 35.9776 37.7316 35.5133 38.2501 35.0503C39.1741 34.2253 40.0677 33.3532 40.9212 32.4556C41.1501 32.2148 41.3772 31.9713 41.6014 31.725C42.3849 30.9208 43.132 30.081 43.8363 29.2122C44.5363 28.9572 45.2089 28.6197 45.8399 28.2224C45.5652 28.5006 45.2877 28.7754 45.0117 29.0523C44.3969 29.6694 43.7582 30.2894 43.0455 30.7923C42.9723 30.8445 43.0166 30.9551 43.1068 30.9375C44.0131 30.7565 44.861 30.4549 45.6525 29.9745C46.4575 29.4855 47.1666 28.8212 47.8286 28.1547C48.2032 27.9857 48.5646 27.768 48.8948 27.5538C48.9124 27.5425 48.93 27.5306 48.9476 27.5192C48.6223 28.5507 48.1449 29.7187 47.1272 30.0865C47.0941 30.0985 47.0962 30.1534 47.1356 30.1513C47.993 30.101 48.682 29.7151 49.2259 29.1527C49.6634 28.8378 50.0808 28.5041 50.4792 28.1408C50.8651 27.7888 51.2307 27.4113 51.5779 27.0205C51.0927 27.9821 50.5492 28.9223 50.0131 29.8519C49.9849 29.9012 50.0441 29.9681 50.0948 29.9336C51.2265 29.1671 52.0849 28.178 52.787 27.0084C52.8907 26.8363 52.9896 26.6613 53.0861 26.4849C53.0133 26.7609 52.9338 27.0351 52.8487 27.3079C52.6945 27.8016 52.5427 28.2966 52.3883 28.7901C52.3051 29.0561 52.2036 29.3162 52.0923 29.5718C52.0125 29.7547 51.9082 29.9372 51.892 30.1378C51.8909 30.1511 51.9054 30.1598 51.917 30.1569C52.3683 30.0441 52.7885 29.5292 53.1101 29.2103C53.2892 29.0327 53.4569 28.8378 53.6112 28.6322C53.6399 29.8162 53.6596 31.0004 53.6335 32.188C53.585 34.3691 53.4442 36.5496 53.2638 38.7236C53.1046 40.6455 52.987 42.6625 51.9152 44.3329C51.0856 45.6257 49.7406 46.5203 48.2793 46.9536C48.1504 46.9924 48.0208 47.0269 47.8906 47.0579C45.7751 47.5602 43.668 46.991 41.7976 45.985C41.2356 45.6827 40.7554 46.5027 41.2976 46.8401C43.3272 48.1041 45.8997 48.5345 48.1969 47.9681C48.1244 50.6825 49.4617 53.2575 50.792 55.5598C51.5363 56.8484 52.2814 58.1284 52.8075 59.5255C53.2539 60.7118 53.5575 61.9426 53.6596 63.2086C53.7807 64.7007 53.6617 66.2013 53.4532 67.6808C53.442 67.761 53.4307 67.8421 53.4187 67.9223C53.3723 68.2401 53.6575 68.5064 53.9666 68.3437C55.3335 67.6251 55.923 66.0935 56.2814 64.6775C56.6166 63.3509 56.8441 61.9983 56.9708 60.6365C57.1568 61.15 57.3075 61.6763 57.4244 62.2131C57.4406 62.2899 57.4561 62.3667 57.4715 62.4435C57.5603 62.8923 58.2392 62.8606 58.3476 62.4435C58.3673 62.3681 58.3863 62.2927 58.4039 62.2167C58.9638 59.9517 59.1145 57.5895 58.8187 55.2737C58.6631 54.0557 58.4032 52.8538 58.0173 51.6879Z" fill="currentColor"/>
<path fill-rule="evenodd" clip-rule="evenodd" d="M47.7173 42.7579C47.2439 42.5647 46.8215 42.2424 46.5127 41.8307C46.4053 41.6876 46.3775 41.5365 46.4 41.3983C46.4254 41.2428 46.5173 41.102 46.6426 41.0075C46.7684 40.9127 46.9257 40.866 47.0777 40.8898C47.2098 40.9105 47.3414 40.9829 47.4455 41.133L47.4672 41.163C47.6508 41.4115 47.8901 41.6153 48.1627 41.7467C48.4254 41.8734 48.7192 41.9325 49.0233 41.8981C49.6025 41.8327 50.0016 41.5193 50.4259 41.0939C50.4785 41.0401 50.5311 40.9847 50.584 40.9284C50.6174 40.8774 50.6637 40.8446 50.7152 40.8274C50.7723 40.8083 50.837 40.8094 50.8961 40.83C50.9532 40.85 51.0043 40.8877 51.0385 40.938C51.071 40.9858 51.0895 41.0448 51.0835 41.1127C51.0447 41.5536 50.8142 41.9472 50.4869 42.2562C50.1233 42.5994 49.6414 42.8368 49.1877 42.9201C48.6878 43.0118 48.1785 42.9461 47.7173 42.7579ZM49.4235 35.9553C49.9553 36.2786 50.7656 37.0327 50.1935 37.8343C49.5201 38.5412 48.5505 37.7307 48.0728 37.3642C47.6298 37.0801 47.132 37.8107 47.543 38.1424C50.9954 40.6994 52.3965 36.0398 49.6925 35.5751C49.3947 35.5238 49.2842 35.8552 49.4235 35.9553ZM43.2368 32.9808C43.2956 32.2512 44.4063 32.0855 44.5168 32.8075C44.6157 33.4542 44.4993 34.0483 44.2081 34.6306C43.9298 35.1869 43.2305 34.9273 43.1776 34.4208C43.1067 33.7418 43.2002 33.4347 43.2368 32.9808ZM51.692 32.6578C51.8468 32.4549 52.0704 32.3164 52.3383 32.3947C53.1753 32.6393 52.9286 33.828 52.6347 34.4066C52.4749 34.7209 51.9587 34.8005 51.7254 34.5239C51.3451 34.0727 51.163 33.1717 51.6464 32.7273C51.6595 32.7044 51.6741 32.6812 51.692 32.6578ZM44.1963 29.7883L44.3285 29.7651C44.7375 29.6944 45.246 29.6264 45.5354 29.9553C45.6888 30.1298 45.7416 30.454 45.5354 30.6209C45.1725 30.9147 44.7714 30.8009 44.3366 30.8257C43.9783 30.8463 43.634 30.9056 43.2888 31.0043C42.5316 31.2208 41.9147 31.616 41.268 32.05C41.1831 32.1069 41.0965 31.9984 41.137 31.919C41.5103 31.1875 42.2337 30.5866 42.9584 30.2204C43.3451 30.0249 43.7684 29.8627 44.1963 29.7883ZM50.929 29.4606L51.0302 29.4813C52.1314 29.7116 53.5622 30.1716 54.0836 31.2537C54.1035 31.4067 54.0825 31.4395 54.0654 31.4609L54.0598 31.468C54.0457 31.4863 54.0345 31.5115 53.9682 31.5324C53.9498 31.528 53.9312 31.5233 53.9124 31.5184C53.6734 31.4558 53.4843 31.3694 53.3012 31.2798L53.1026 31.182C52.8723 31.069 52.64 30.9602 52.3937 30.8798C51.8682 30.7083 51.3277 30.5875 50.7788 30.523C50.6598 30.5091 50.5453 30.4689 50.4549 30.4001C50.3691 30.3347 50.3036 30.2442 50.2737 30.124C50.235 29.9684 50.2461 29.8505 50.3296 29.7101C50.3923 29.6047 50.4821 29.5316 50.5852 29.4896C50.6904 29.4469 50.8101 29.4368 50.929 29.4606Z" fill="currentColor"/>
</g>
</svg>
