<svg width="80" height="108" viewBox="0 0 80 108" fill="none" xmlns="http://www.w3.org/2000/svg">
<g opacity="0.75">
<path fill-rule="evenodd" clip-rule="evenodd" d="M60.73 71.1355C60.6371 71.587 60.5068 72.0386 60.3335 72.4663C60.1666 72.8791 59.9152 73.249 59.7421 73.6569C59.7188 73.7118 59.6808 73.7534 59.6349 73.7851L59.6492 73.896L59.6624 74.007C59.7488 74.7558 59.8459 75.5025 59.9301 76.2512L59.9709 76.6257C60.1364 78.1889 60.3976 79.7445 60.6004 81.3035C60.799 82.8302 61.0012 84.3568 61.2173 85.8814C61.4406 87.4531 61.668 89.0227 61.9335 90.5881C62.0456 91.2493 62.1626 91.9098 62.2845 92.5699L62.3786 93.075C63.3476 93.3082 63.6124 94.6595 62.6258 95.1582C62.178 95.3837 61.6026 95.3294 61.2335 94.9751C60.85 94.6059 60.8341 93.94 60.7451 93.4399L60.6593 92.9752C60.0177 89.4806 59.4608 85.9458 59.2004 82.4018C59.1335 81.4868 59.0772 80.5709 59.0406 79.6543C59.0058 78.7922 59.0224 77.9301 59.0091 77.0679L59.0047 76.8328C58.9843 75.9134 59.0011 74.9954 59.0251 74.076C59.0279 73.964 59.0328 73.852 59.0385 73.7393C59.0061 73.7013 58.9828 73.6562 58.973 73.6125L58.9603 73.5547C58.9286 73.4061 58.9645 73.2321 59.0787 73.1257C59.1279 72.4994 59.1927 71.8738 59.2103 71.2482C59.2117 71.1968 59.2857 71.1982 59.29 71.2482C59.3315 71.7808 59.4145 72.3148 59.4976 72.8481C60.0321 72.4184 60.4272 71.7096 60.6603 71.1164C60.6772 71.0735 60.74 71.089 60.73 71.1355ZM48.0835 46.2369C48.1723 46.6427 48.3476 47.007 48.5828 47.3459C48.6949 47.5079 48.8223 47.6587 48.9751 47.7848C49.1061 47.8925 49.2554 47.963 49.3948 48.0567C49.5976 48.025 49.8096 48.1018 49.9518 48.2511L49.9294 48.0328C49.9223 47.9623 50.0392 47.9482 50.0526 48.0165C50.6687 51.1249 51.2306 54.2353 51.717 57.3661L51.9302 58.7488L52.1308 60.0468C52.4639 62.2097 52.786 64.3718 53.0287 66.5505C53.3519 69.4581 53.6237 72.3733 53.8223 75.2927C54.0216 78.2326 54.1442 81.1746 54.2315 84.1201C54.2532 84.8627 54.2766 85.6045 54.299 86.347L54.4494 85.4593C54.5996 84.5714 54.7468 83.6826 54.873 82.7907C55.3258 79.5987 55.6878 76.3839 55.8645 73.1644C56.0266 70.2182 55.9723 67.2135 55.223 64.3433C55.0342 63.6212 54.8032 62.9104 54.5244 62.2178C54.254 61.5444 53.885 60.9202 53.5941 60.2566C53.2561 59.4845 53.1547 58.756 53.3287 57.9247C53.4808 57.2005 53.7477 56.5192 53.7955 55.7738C53.885 54.3902 53.4349 53.0502 52.7991 51.8392C52.6314 51.5201 52.4547 51.2052 52.2701 50.893C51.7118 49.9497 51.0821 49.0409 50.4287 48.1695C50.3935 48.123 50.468 48.0715 50.5061 48.1096C51.1018 48.6985 51.7532 49.2776 52.2892 49.9209C52.5497 50.2336 52.8039 50.5527 53.0448 50.8804C55.6871 51.3221 57.9575 52.9685 59.5096 55.1426C61.2709 57.6098 62.1617 60.5792 62.8209 63.5036C63.554 66.7535 64.1723 70.0329 64.8308 73.2989C65.5124 76.6785 66.1906 80.058 66.8765 83.4368C67.2173 85.1141 67.5583 86.7916 67.8983 88.4697C68.0709 89.3194 68.2519 90.1669 68.4413 91.0137C68.5385 91.4477 68.6428 91.8809 68.7329 92.3163C68.8342 92.8073 68.7399 93.1215 68.4075 93.4823C68.2849 93.6161 68.0913 93.614 67.9392 93.5428L67.8916 93.5204L67.8457 93.4982C67.6574 93.4057 67.5099 93.3098 67.3928 93.1039C67.2638 92.8778 67.2434 92.627 67.1991 92.3755C67.1173 91.9126 67.0364 91.4498 66.9547 90.9862C66.8327 90.293 66.7 89.6017 66.5649 88.9107L65.8871 85.457C65.7064 84.5361 65.5254 83.6153 65.3434 82.6949C64.6934 79.4035 64.0427 76.1128 63.3921 72.8221C62.7673 69.6623 62.2145 66.4809 61.5033 63.3394L61.4629 63.1624L61.4218 62.9857C60.7858 60.2776 59.8972 57.6579 58.2849 55.3631C57.0441 53.5983 55.3209 52.0224 53.2913 51.2248C53.4343 51.4306 53.5716 51.6405 53.7026 51.8547C54.5251 53.1989 55.1258 54.7946 54.9849 56.3952C54.916 57.1772 54.6188 57.9458 54.6469 58.7342C54.673 59.4344 55.1061 60.0495 55.4054 60.6588C56.0849 62.0397 56.5766 63.5072 56.8935 65.0126C57.5294 68.0356 57.5273 71.1461 57.3082 74.2148C57.0701 77.5507 56.6181 80.8858 56.1033 84.1891C55.8392 85.8834 55.4878 87.5637 55.2187 89.2552C55.0857 90.0893 54.9047 90.9214 54.7462 91.7513L54.6707 92.1478C54.6284 92.3678 54.5845 92.5872 54.5339 92.8042L54.5026 92.9341V92.9573C54.5012 93.1173 54.4575 93.2498 54.387 93.3554C54.2906 93.6646 54.1709 93.9662 54.0118 94.2558C53.9301 94.4037 53.8117 94.4868 53.6828 94.5172C53.5532 94.8138 53.2596 95.042 52.909 95.0406L48.2969 95.023C45.618 95.0124 42.9392 94.9948 40.2603 94.98C39.5843 94.9765 38.9089 94.9638 38.2336 94.9462C37.6005 94.9286 36.9935 94.8525 36.3674 94.7736C35.6603 94.6848 35.2773 94.1839 35.3829 93.4773C35.4061 93.3216 35.4314 93.1666 35.4554 93.0117C35.3146 93.0581 35.147 93.0363 35.0336 92.9257L34.9273 92.8216C34.7799 92.6758 34.6482 92.5326 34.5547 92.3381C34.4582 92.1381 34.38 91.9267 34.2948 91.7224C34.111 91.2828 33.9322 90.8418 33.7582 90.3987C33.4097 89.5124 33.0611 88.6226 32.737 87.7271C32.0956 85.9539 31.5279 84.1539 31.0343 82.3335C30.154 79.0858 29.5173 75.7753 29.1159 72.4353L29.0199 71.6392L28.992 71.4041C28.8398 70.1095 28.7117 68.7949 28.7723 67.5031C28.8097 66.6942 28.9349 65.8792 29.2371 65.1239C29.5159 64.4272 29.9462 63.8312 30.3554 63.2084L30.4022 63.1366L30.4492 63.0629C30.8071 62.4973 31.0918 61.9059 31.1061 61.2189C31.1205 60.5218 30.9175 59.8434 30.6905 59.1908L30.6339 59.0298L30.596 58.9233C30.1131 57.5744 29.5636 56.2447 29.7448 54.777C30.0125 52.6156 31.3223 50.8733 32.9702 49.5299C31.5047 49.8201 30.054 50.3935 28.7737 51.1206C27.2617 51.9801 25.9004 53.1144 24.7265 54.3944C22.5082 56.8136 20.9244 59.7162 19.628 62.7132C18.2708 65.8496 17.2645 69.1361 16.5061 72.4656C15.7435 75.8141 15.2329 79.2161 14.8842 82.6315C14.7104 84.3315 14.5737 86.0356 14.4604 87.7406C14.4026 88.6142 14.3589 89.4891 14.2913 90.3613C14.2237 91.2328 14.1934 92.1176 13.9807 92.9659C13.8814 93.3611 13.2117 93.4012 13.1399 92.9659C12.9807 91.9935 13.0252 90.988 13.0696 90.0034L13.0737 89.914C13.1174 88.9333 13.1744 87.9533 13.242 86.9734C13.3801 84.9705 13.5645 82.9704 13.8054 80.9767C14.6497 73.9781 16.2068 67.0163 19.2611 60.6279C20.6991 57.6189 22.5449 54.6953 25.1125 52.5226C26.3349 51.489 27.7131 50.664 29.1983 50.0667C30.5266 49.532 31.8758 49.2791 33.2871 49.2798C33.9949 48.7373 34.7547 48.2646 35.5138 47.8608C35.5596 47.8362 35.6075 47.8954 35.5695 47.9335C35.5498 47.9525 35.5307 47.9721 35.5111 47.9905C35.597 47.9962 35.6856 48.0363 35.7652 48.1201C36.0442 48.4124 36.2794 48.7782 36.4899 49.1578C36.8103 49.558 37.1159 49.9715 37.4357 50.3674C37.9476 51.0015 38.4716 51.6264 39.0019 52.2463C39.8926 53.2883 40.8122 54.3104 41.7713 55.2915L41.9315 55.4546C42.4286 55.9584 42.9322 56.5614 43.5201 56.9602L43.5515 56.981C43.7996 57.1427 43.9755 57.1721 44.187 56.9306C44.3794 56.7108 44.5394 56.4558 44.704 56.2135L44.742 56.1578C45.5822 54.9369 46.3611 53.6709 47.066 52.3676C47.3873 51.7745 47.693 51.1727 47.983 50.5643L48.0695 50.3816C48.2273 50.0463 48.3984 49.7173 48.5286 49.372C48.5589 49.291 48.5885 49.21 48.6173 49.1297C48.1737 48.8387 47.8301 48.2089 47.7054 47.7158C47.5759 47.2036 47.6413 46.678 47.8723 46.2095C47.9159 46.1215 48.0624 46.1432 48.0835 46.2369ZM26.197 67.05C26.1356 68.9973 26.0984 70.9467 26.0068 72.8925L25.9751 73.5568C26.118 73.7161 26.2018 73.8999 26.1349 74.1522C26.109 74.2487 26.0321 74.3361 25.9363 74.3685L25.9065 74.9861C25.7706 77.765 25.6113 80.5381 25.3201 83.31C24.9561 86.7789 24.5349 90.2422 24.1146 93.7049C24.0547 94.1952 23.7138 94.584 23.1835 94.5123C22.647 94.4396 22.4294 93.9725 22.4998 93.4857C22.7766 91.5759 23.0427 89.6645 23.2759 87.7483L23.5413 85.5652C23.8742 82.8361 24.215 80.1075 24.6075 77.3872C24.7716 76.2502 24.942 75.1138 25.1131 73.9774L25.0533 73.8999C24.8089 73.5822 24.5561 73.2715 24.3061 72.9587C23.8259 72.3557 23.3519 71.7575 22.9118 71.1263C22.8899 71.0946 22.9343 71.0481 22.9659 71.0721C23.5828 71.5279 24.1667 72.0154 24.754 72.5107L25.2681 72.946C25.5639 70.9826 25.8568 69.0184 26.118 67.05C26.1244 67.0008 26.1984 66.9972 26.197 67.05ZM35.0709 48.4146C34.6997 48.7647 34.3202 49.1072 33.9462 49.4552L33.8092 49.5833L33.6728 49.7119C33.0155 50.3355 32.3858 50.9846 31.8611 51.73C30.8977 53.0989 30.3237 54.7677 30.7244 56.4389C31.0568 57.8232 31.8195 59.078 32.0244 60.4968C32.1272 61.2077 32.0773 61.922 31.8096 62.5933C31.5363 63.2782 31.0997 63.865 30.7075 64.4829C29.8554 65.8257 29.7392 67.2995 29.8237 68.855C29.9125 70.4796 30.099 72.1048 30.3294 73.7147C30.7955 76.9765 31.4983 80.2045 32.4286 83.3656C32.8942 84.9486 33.4441 86.4978 33.9913 88.0534C34.2638 88.8276 34.5815 89.5836 34.9089 90.3359C35.0814 90.7319 35.2582 91.1256 35.4378 91.5187C35.3715 90.9637 35.3715 90.3937 35.3392 89.8421C35.2927 89.0517 35.2335 88.2626 35.1793 87.4729C35.0688 85.8701 34.9702 84.266 34.8822 82.6618C34.5702 76.9413 34.3406 71.2158 34.3575 65.4861C34.366 62.6209 34.4244 59.7557 34.5477 56.8932C34.6054 55.5453 34.7173 54.1986 34.8184 52.8526L34.8399 52.5641C34.9294 51.3559 35.0364 50.1449 35.2201 48.9472C35.1657 48.8244 35.1185 48.7001 35.0835 48.5725L35.0709 48.5245L35.0801 48.5259C35.0716 48.4885 35.0688 48.4513 35.0709 48.4146ZM38.2808 43.4916C38.2885 43.4585 38.3357 43.4613 38.3441 43.4916C38.5533 44.1961 38.4793 44.971 38.2991 45.6797C38.2019 46.0637 38.0639 46.4364 37.897 46.7957L37.8386 46.9214C37.6956 47.2274 37.5346 47.5427 37.2561 47.7334C37.1399 47.813 36.9321 47.8179 36.8159 47.7334L36.7567 47.6884C36.7469 47.6808 36.7373 47.673 36.7279 47.665C36.6195 47.5741 36.5659 47.3734 36.6159 47.2409C36.7448 46.8992 37.0371 46.6484 37.2392 46.3441C37.4181 46.0736 37.5766 45.7882 37.7082 45.4916C37.992 44.8498 38.1195 44.1686 38.2808 43.4916Z" fill="currentColor"/>
<path fill-rule="evenodd" clip-rule="evenodd" d="M56.2884 30.6683C56.2083 31.6806 55.7794 32.5916 55.4203 33.535C55.4595 32.9768 55.4411 32.3958 55.4801 31.8162C55.0625 28.1864 50.1282 27.2328 48.2127 24.4881C48.2853 24.3331 48.3114 22.9473 48.0258 23.337C46.9178 28.1872 40.3325 30.6204 35.8239 30.6298C35.483 30.3487 34.8067 30.6457 34.9344 31.206C35.6087 34.1629 35.7563 37.256 35.3233 40.2605C35.1193 41.3214 35.0849 42.5979 34.4486 43.5121C33.7732 44.1547 34.5851 44.2062 35.032 44.0612C35.1565 44.2364 35.288 44.4065 35.42 44.576C34.7782 45.0196 33.8417 44.7777 33.1774 44.4824C32.4384 44.0911 32.0161 43.3329 31.4806 42.7251C31.1883 42.1365 30.7449 41.7982 30.1749 41.4794C27.0039 39.3233 27.0858 34.5937 27.541 31.1754C28.8675 21.0034 40.1531 16.0954 49.2102 19.6292C54.1015 20.8804 56.3932 25.9396 56.2884 30.6683ZM26.7881 24.9095C24.8538 22.9824 25.2432 19.6134 26.4591 17.3919C28.8956 12.7501 35.8159 12.901 36.6446 18.5272C33.1155 19.7367 30.1376 22.33 28.3646 25.6046C27.7874 25.5429 27.2294 25.2857 26.7881 24.9095ZM56.3996 26.3938C55.0119 17.9978 44.4162 16.4841 37.5116 18.2513C37.3844 16.6362 36.3674 15.2092 35.0982 14.2704C29.7069 10.3895 23.3242 16.9787 24.602 22.6575C24.8313 24.3778 26.2059 26.3409 28.1292 26.0465C25.7117 30.6235 24.767 39.8526 30.0935 42.7056C30.6074 43.0715 30.6927 43.8145 31.0882 44.2908C31.7302 45.0593 34.4732 46.0382 35.9572 45.2537C36.31 45.6867 38.3126 47.0037 38.1666 45.7127C38.0193 45.3649 37.5641 45.2742 37.261 45.1023C36.6239 44.7505 36.0705 44.2546 35.6356 43.6722C37.0015 39.8195 36.8974 35.5295 36.1323 31.5625C40.7048 31.3324 46.0852 29.3274 48.102 24.9246C49.4654 28.1287 53.6934 28.541 54.7615 32.1233C54.8259 34.0049 54.4226 35.8585 54.7151 37.7409C54.8009 39.5847 55.7752 41.4163 55.2119 43.248C53.6382 47.2424 47.9732 47.8285 44.2305 47.6615C43.3415 47.5881 42.6037 47.1075 41.8728 46.6512C41.4348 46.4432 40.9134 46.8783 41.1818 47.3426C42.2065 48.7731 44.3142 48.8981 45.9326 48.8466C50.1328 48.5975 56.203 47.3561 56.421 42.1676C56.2825 40.1108 55.4757 38.1424 55.4168 36.0648C55.5896 35.863 55.5992 35.5827 55.6423 35.3275C55.8294 34.4228 56.2384 33.5833 56.4428 32.6812C56.9004 30.6335 56.821 28.4458 56.3996 26.3938Z" fill="currentColor"/>
<path fill-rule="evenodd" clip-rule="evenodd" d="M44.1749 41.2041C44.1823 40.4279 44.8547 40.294 45.4934 40.3975C46.5747 40.5725 47.6601 40.6957 48.7561 40.7179L48.9449 40.7212C48.9754 40.6768 49.0262 40.6431 49.0952 40.6357C49.7028 40.5701 50.3234 40.5807 50.9342 40.5627C51.4671 40.547 52.0147 40.4937 52.5475 40.5355L52.59 40.5393C53.2412 40.6023 53.9284 40.9348 53.8497 41.6994C53.7774 42.4073 53.1009 43.034 52.5607 43.4274C52.4515 43.5063 52.3398 43.5802 52.2249 43.6475C52.1888 43.6935 52.1362 43.7256 52.0754 43.7321C51.5435 44.0196 50.9565 44.1896 50.3489 44.2463C49.0607 44.3662 47.5632 44.2364 46.3259 43.678C45.9237 43.4964 45.5485 43.2697 45.2168 42.9913C44.7053 42.5618 44.1692 41.9104 44.1749 41.2041ZM49.2504 42.7432C48.734 42.7277 48.2184 42.7999 47.7266 42.9593C47.3932 43.0669 47.0894 43.2738 46.7701 43.4176C47.8464 43.8282 49.0968 43.9178 50.2011 43.843C50.6855 43.8102 51.1551 43.6985 51.5928 43.5063C51.5246 43.457 51.4556 43.4069 51.3833 43.3633C51.165 43.2311 50.9367 43.1186 50.6986 43.029C50.2348 42.855 49.7454 42.7589 49.2504 42.7432ZM49.4234 35.9554C49.2841 35.8553 49.3947 35.524 49.6924 35.5752C52.3964 36.0399 50.9954 40.6996 47.543 38.1425C47.132 37.8108 47.6297 37.0802 48.0727 37.3643L48.23 37.4856C48.7414 37.8778 49.5874 38.4706 50.1934 37.8345C50.7655 37.0328 49.9552 36.2787 49.4234 35.9554ZM51.254 32.4288C51.8288 31.9382 52.5498 32.2997 52.9729 32.7967L53.0475 32.8855C53.1322 32.9869 53.2259 33.105 53.2823 33.2312C53.7512 32.8318 54.3871 32.5507 54.9956 32.7331C55.5858 32.9107 55.9223 33.4743 55.821 34.0794C55.706 34.7675 55.1856 35.23 54.6264 35.5877L54.4678 35.6884C53.7958 36.117 53.167 36.5487 52.614 37.1378C52.5237 37.2335 52.3287 37.2208 52.2696 37.0934L52.222 36.9908L52.1738 36.8883C51.7815 36.0514 51.3611 35.22 51.016 34.3634C50.7604 33.7286 50.6773 32.9205 51.254 32.4288ZM44.7017 32.8732L44.7893 32.7719C45.2104 32.2816 45.9238 31.9533 46.4865 32.4288C47.0857 32.9354 46.9681 33.773 46.7012 34.419C46.3798 35.1982 46.0044 35.9602 45.6438 36.7245L45.5667 36.8883C45.5343 36.9567 45.5026 37.025 45.471 37.0933C45.4118 37.2208 45.2161 37.2335 45.1266 37.1377C44.5907 36.5671 43.9845 36.1448 43.3369 35.7298L43.1414 35.6054C42.5731 35.2447 42.0357 34.779 41.9188 34.0795C41.8188 33.4757 42.1533 32.9086 42.7442 32.7331C43.354 32.5521 43.9886 32.8311 44.4583 33.2313C44.5143 33.1018 44.6107 32.9799 44.7017 32.8732ZM45.4723 29.3555C45.678 29.6226 45.4583 30.0592 45.158 30.1283C44.786 30.2139 44.4102 30.1618 44.045 30.268C43.7104 30.3653 43.3898 30.5602 43.103 30.7545C42.7758 30.976 42.4746 31.2233 42.1977 31.505C42.0331 31.6726 41.8256 32.0697 41.5717 32.0771C41.3192 32.0845 41.6581 31.2946 41.6861 31.2263C41.8852 30.7398 42.1649 30.2922 42.5146 29.9001C43.2049 29.1263 44.6666 28.3099 45.4723 29.3555ZM53.1801 29.1417L53.3524 29.1896C53.7788 29.3081 54.2339 29.4538 54.5997 29.7095L54.6284 29.7298L54.6727 29.7622C55.1319 30.1047 55.7814 30.7881 55.4561 31.3842C55.4337 31.4253 55.3861 31.4294 55.3478 31.4126C54.9151 31.223 54.5943 30.8444 54.1341 30.6861L54.0492 30.6571C53.6035 30.5069 53.0521 30.349 52.5723 30.3634C52.235 30.4731 51.7795 30.3822 51.6917 29.9715L51.6877 29.9513L51.6801 29.9088C51.6295 29.6281 51.7047 29.2703 51.9948 29.135C52.3923 28.9497 52.78 29.0322 53.1801 29.1417Z" fill="currentColor"/>
</g>
</svg>
