<svg width="80" height="108" viewBox="0 0 80 108" fill="none" xmlns="http://www.w3.org/2000/svg">
<g opacity="0.75">
<path fill-rule="evenodd" clip-rule="evenodd" d="M31.5659 49.4956C31.9241 49.4801 32.2893 49.538 32.6466 49.5732C32.6777 49.5762 32.6896 49.6243 32.6545 49.6316C32.015 49.7652 31.3825 49.9481 30.7545 50.1337L30.4856 50.2134C29.7773 50.423 29.0899 50.6392 28.4042 50.9187C27.0377 51.4758 25.7399 52.2278 24.5455 53.0917C19.9461 56.4185 16.6172 61.4552 14.5165 66.67C13.946 68.0862 13.4626 69.5376 13.0711 71.0135C12.9758 71.3726 12.8863 71.7331 12.8013 72.0947C12.7764 72.2007 12.6677 72.4722 12.7273 72.5807C12.78 72.6766 12.9848 72.7358 13.0799 72.7857L13.4011 72.9523C14.0277 73.2754 15.0713 73.8064 15.176 73.8581L15.3392 73.9385C18.009 75.2478 20.8616 76.3581 23.8659 76.435L23.8894 76.1783C24.0234 74.7594 24.1992 73.3329 24.5828 71.9576C24.6034 71.8837 24.6975 71.9086 24.7061 71.9743C24.9198 73.6024 24.8515 75.2433 24.7769 76.879C24.6449 79.7761 24.4695 82.6715 24.3137 85.5674C24.2356 87.0161 24.1348 88.4638 24.0437 89.9116C23.9525 91.3624 23.923 92.8481 23.7148 94.2869C23.6684 94.6076 23.2929 94.782 23.0085 94.7482C22.6939 94.7107 22.4518 94.4335 22.4503 94.1157C22.4465 93.2775 22.5518 92.4294 22.6103 91.5933C22.6659 90.7989 22.7256 90.0049 22.7867 89.2109C23.0101 86.3133 23.267 83.419 23.5047 80.5225C23.5889 79.4952 23.6799 78.4689 23.7736 77.4425C20.591 77.3399 17.6177 76.1606 14.7812 74.7828C14.7401 75.7153 14.641 76.6462 14.545 77.5748C14.277 80.1664 14.0408 82.757 13.8639 85.3566C13.7746 86.6696 13.7096 87.9842 13.653 89.2989C13.6252 89.9451 13.6025 90.5914 13.5851 91.2379C13.5793 91.4534 13.5741 91.6689 13.5694 91.8845L13.5597 92.3782C13.5518 92.691 13.52 92.9808 13.2569 93.2086C12.9896 93.4399 12.6287 93.4522 12.3641 93.2086C12.0101 92.8824 12.0727 92.438 12.0832 91.9999C12.0919 91.6304 12.1024 91.261 12.1146 90.8916C12.139 90.1528 12.1702 89.4142 12.2082 88.6759C12.341 86.095 12.6064 83.5243 12.9532 80.9639L13.0886 79.9756C13.3414 78.1382 13.619 76.2591 14.1842 74.4891C13.9641 74.3797 13.7447 74.2694 13.5261 74.1586C13.1384 73.9622 12.7375 73.7779 12.3606 73.5612C12.0615 73.3892 11.8037 73.1533 11.7204 72.8052C11.6276 72.4174 11.7695 71.9932 11.8638 71.6149L11.872 71.5817C11.9645 71.2007 12.0641 70.8214 12.1691 70.4437C12.5952 68.9122 13.122 67.4105 13.7386 65.9455C14.9731 63.0125 16.5665 60.2262 18.513 57.7068C20.265 55.439 22.3347 53.3824 24.7605 51.84C25.9464 51.0859 27.2102 50.4667 28.5468 50.0289C29.1715 49.8243 29.8512 49.6464 30.5053 49.5731C30.8581 49.5337 31.2114 49.511 31.5659 49.4956ZM37.9119 44.848C38.3376 44.3908 39.1832 44.864 38.9788 45.4694C38.4981 46.8938 37.7326 48.1932 36.538 49.1292C35.415 50.0091 34.076 50.5805 32.6338 50.4586C32.6227 50.4576 32.6131 50.4547 32.6045 50.4507L32.7288 50.6194C33.7045 51.9397 34.7338 53.2417 35.9744 54.3209C38.5021 56.5197 41.9436 57.7057 45.2669 56.862C47.8815 56.1983 50.185 54.13 50.8625 51.494C50.7654 51.5376 50.65 51.5524 50.5233 51.5249C49.9812 51.4072 49.4446 50.8369 49.095 50.428C48.7169 49.9856 48.4215 49.508 48.205 48.968C47.8088 47.9799 47.6818 46.7076 48.2228 45.7504C48.2895 45.6324 48.4435 45.6986 48.4566 45.8138L48.4772 45.9936C48.5815 46.8906 48.7114 47.7584 49.1342 48.5762C49.3411 48.9764 49.5891 49.3669 49.891 49.7021C50.0526 49.8814 50.2277 50.0527 50.4168 50.203C50.6011 50.3495 50.8241 50.4554 50.9892 50.6235L51.0195 50.6557L51.0203 50.65C51.0621 50.2948 51.311 50.1384 51.5546 50.1481C51.7903 50.1576 52.0672 50.2614 52.1745 50.3111L52.1846 50.3159C53.8291 51.1057 55.3437 52.135 56.7691 53.2771C59.7167 55.6388 61.9252 58.7263 62.9952 62.3621C63.5204 64.1465 63.8218 65.9852 64.1399 67.8153L64.3358 68.9366C64.6327 70.6261 64.9644 72.3488 65.6347 73.9205C65.8081 74.327 65.6744 74.7083 65.2493 74.8682C64.7184 75.0678 64.1856 75.2611 63.6519 75.4521C63.914 76.5767 64.0738 77.7402 64.2701 78.8704C64.6874 81.2727 65.1988 83.6596 65.6372 86.0587C65.8614 87.2854 66.0636 88.5161 66.2876 89.7429C66.3954 90.3337 66.5079 90.9237 66.6174 91.5142C66.6763 91.8326 66.7298 92.152 66.786 92.4709L66.7958 92.5238C66.828 92.692 66.8685 92.866 66.8223 93.0344C66.7695 93.2263 66.6198 93.362 66.486 93.4996C66.3759 93.613 66.2169 93.6137 66.082 93.5518L66.0376 93.5313C65.7968 93.4186 65.6081 93.3062 65.5226 93.0344C65.4686 92.8623 65.4491 92.6684 65.4137 92.4911C65.3459 92.1511 65.2816 91.8108 65.2209 91.4695C65.0995 90.7866 64.9809 90.1032 64.8651 89.4193L64.757 88.7789C64.3858 86.5717 64.0334 84.3512 63.8552 82.1207C63.7761 81.1312 63.6924 80.1426 63.6078 79.1537L63.5443 78.412C63.4641 77.4733 63.366 76.5108 63.3521 75.5594L63.033 75.6727L61.4759 76.2234C61.0898 76.3598 60.5983 76.6395 60.1828 76.5886C59.9794 76.5637 59.8243 76.4997 59.7046 76.3833C59.848 78.4075 60.0421 80.4282 60.3007 82.4387C60.5361 84.268 60.797 86.0948 61.1052 87.9133C61.2578 88.8138 61.4146 89.7135 61.585 90.6107C61.6701 91.0594 61.758 91.5075 61.8486 91.9551C61.8937 92.1785 61.9474 92.402 61.9826 92.6272C62.0229 92.885 61.9519 93.0437 61.8079 93.2558C61.6897 93.43 61.4531 93.5195 61.2614 93.3992C61.0074 93.2398 60.875 93.1017 60.8002 92.8114C60.7324 92.5477 60.6911 92.2724 60.6386 92.0053C60.5416 91.5123 60.4479 91.0187 60.3574 90.5244C60.1681 89.4908 59.9937 88.4546 59.8379 87.4153C59.289 83.7541 58.9407 80.0622 58.7648 76.3644C58.6779 74.5399 58.6511 72.7139 58.6665 70.8875C58.6744 69.9514 58.705 69.0126 58.7712 68.0788C58.8382 67.1335 58.9776 66.2072 59.1021 65.271C59.1065 65.2381 59.153 65.2362 59.155 65.271C59.2139 66.3206 59.3063 67.369 59.3516 68.4213C59.3948 69.4254 59.4138 70.4311 59.4481 71.4356C59.4933 72.7559 59.5559 74.0771 59.6388 75.3973C59.7888 75.2331 60.015 75.1384 60.2414 75.1754C60.5693 75.1066 60.9222 74.9345 61.2348 74.83L62.4133 74.4362C63.0328 74.2292 63.6523 74.0236 64.274 73.8242C63.7181 71.9536 63.3374 70.055 63.0123 68.1288L62.8673 67.2625C62.5802 65.5573 62.2708 63.8513 61.7509 62.2C61.2043 60.464 60.3864 58.85 59.3014 57.3884C58.2319 55.9479 56.9307 54.6795 55.591 53.4931C54.444 52.4775 53.2171 51.5605 52.0472 50.5728C52.0595 50.6383 52.0621 50.7103 52.0513 50.7895C51.8026 52.6107 50.8529 54.3066 49.5295 55.568C46.8707 58.1022 42.935 58.6279 39.532 57.4396C36.2402 56.2901 33.3299 53.5678 32.3017 50.1991C32.2841 50.1415 32.3612 50.1186 32.3922 50.1609C32.4493 50.2391 32.5066 50.3173 32.564 50.3955C32.5601 50.3644 32.5762 50.3306 32.6145 50.3158C33.8143 49.8524 34.9924 49.1952 35.8917 48.2654C36.33 47.8122 36.7125 47.2988 37.0145 46.7451C37.1591 46.4798 37.2891 46.2051 37.3927 45.9213L37.4191 45.8478C37.5447 45.4923 37.6497 45.1297 37.9119 44.848Z" fill="currentColor"/>
<path fill-rule="evenodd" clip-rule="evenodd" d="M42.6458 13.6644C42.8433 13.4405 43.1475 13.5173 43.3322 13.6943C43.4524 13.7297 43.5689 13.7824 43.6789 13.8522C43.9275 13.8203 44.1881 13.8203 44.4319 13.8292C44.491 13.796 44.5544 13.7665 44.6234 13.7411C45.1164 13.5609 45.5529 13.6524 45.913 13.8938C46.0865 13.7297 46.3053 13.6267 46.585 13.6422C46.8346 13.6562 47.0125 13.7737 47.165 13.9285C47.317 13.7092 47.5628 13.5527 47.869 13.5309C48.297 13.5005 48.7084 13.6722 49.0494 13.938C49.248 13.71 49.5189 13.579 49.8207 13.5777C50.0193 13.5416 50.2289 13.5559 50.4182 13.6131C50.6932 13.6961 50.9346 13.8518 51.1268 14.0537C51.431 13.7623 51.8033 13.5527 52.2326 13.5833C52.7882 13.6234 53.2488 14.0321 53.4629 14.5351C53.8389 14.6858 54.1861 14.9008 54.4763 15.2072C54.4917 15.2233 54.5065 15.2403 54.522 15.2572C54.6784 15.3149 54.8256 15.3967 54.9551 15.5044C55.3657 15.8462 55.4572 16.3408 55.3213 16.8254C55.3403 16.9029 55.3565 16.9818 55.3713 17.0607C55.7558 17.1192 56.1051 17.3411 56.3037 17.7026C56.5756 18.1985 56.522 18.8522 56.2277 19.3257C56.1011 19.5294 55.9405 19.701 55.7601 19.8511C55.9641 20.3146 55.8662 20.8678 55.5372 21.2427C55.4571 21.372 55.3587 21.4887 55.248 21.5943C55.3702 22.0736 55.1529 22.568 54.7191 22.8241L54.682 22.917C54.6757 22.9325 54.6694 22.9478 54.6629 22.9631C54.6581 22.9828 54.6522 23.0019 54.6463 23.0211C54.636 23.1912 54.58 23.3581 54.4689 23.5153C54.2414 23.8376 53.9594 24.0477 53.8098 24.4239L53.7948 24.4634C53.7306 24.6415 53.5229 24.7671 53.346 24.7121C54.3282 26.7299 54.8432 28.9751 55.1967 31.1754C55.373 32.2731 55.509 33.3745 55.6193 34.4803L55.7275 35.5814C55.8227 36.5601 55.9074 37.542 55.9079 38.524C55.9094 40.7454 55.2741 42.8821 53.9108 44.6497C52.6213 46.3207 50.7967 47.5318 48.7354 48.0087C46.6072 48.5004 44.1108 48.3067 42.2023 47.1809C41.6396 46.8499 42.1326 46.0537 42.7051 46.3201C43.7889 46.8245 44.8903 47.1993 46.0917 47.2831C47.2629 47.3655 48.4368 47.219 49.5474 46.8357C51.3847 46.201 52.9481 44.8716 53.953 43.2161C54.4481 42.4002 54.8065 41.5147 54.9974 40.579C55.2349 39.4129 55.1992 38.2075 55.1119 37.0265L55.1058 36.946C54.9333 34.6704 54.7058 32.3808 54.3382 30.1278C54.0133 28.1356 53.5137 26.1837 52.865 24.275C52.6109 24.0512 52.3267 23.8661 52.0225 23.7255C49.7953 23.6324 47.564 23.6596 45.3396 23.8133C43.4426 23.9453 41.5548 24.1685 39.6812 24.4939L39.4805 24.5292C39.0657 24.6031 38.6051 24.6453 38.2143 24.8124C37.8791 24.9561 37.7432 25.2323 37.6586 25.5718C37.446 26.4305 37.4136 27.3704 37.3777 28.251C37.3425 29.1119 37.422 29.9799 37.353 30.8379C37.2946 31.5558 37.1108 32.2906 36.5791 32.8099C36.3009 33.0817 35.9586 33.2304 35.6375 33.4368C35.4298 33.57 35.3417 33.7073 35.3685 33.9539C35.4263 34.4936 35.8608 35.1734 35.3727 35.6356C35.2868 35.7166 35.1382 35.7271 35.0537 35.6356C34.8523 35.4165 34.5741 35.2495 34.3354 35.0727C34.2354 34.9995 34.3185 34.8572 34.4319 34.9078C34.5812 34.9748 34.7333 35.0537 34.8889 35.1227C34.5453 34.8395 34.0565 34.7007 33.6495 34.6183C33.4446 34.5774 33.2291 34.5654 33.0157 34.5845C32.8579 34.6598 32.6967 34.7296 32.5354 34.7979C32.3305 34.8839 32.1234 34.9621 31.915 35.0361C31.1917 35.6257 30.8467 36.5846 30.9974 37.5223C31.0798 38.04 31.3185 38.603 31.7685 38.9052C32.3016 39.2631 33.0157 39.1094 33.5917 39.3751C34.1312 39.6237 34.4594 40.1261 34.7051 40.646L34.8076 40.8625C35.0357 41.3418 35.2702 41.8083 35.5819 42.2445C35.9425 42.7496 36.384 43.2033 36.8657 43.593C37.0994 43.7815 37.3484 43.9512 37.6059 44.1056L37.6763 44.1474C37.9368 44.3003 38.1234 44.446 38.141 44.7694C38.1467 44.8821 38.0756 44.985 37.984 45.0435C37.5896 45.2936 37.1974 44.9808 36.8692 44.7624C36.515 44.5271 36.1763 44.2622 35.8629 43.9734C35.2671 43.4253 34.7516 42.7743 34.3551 42.0676C34.053 41.5295 33.8812 40.7721 33.4037 40.3551C33.1122 40.1007 32.7002 40.0986 32.3361 40.0521C31.9974 40.0085 31.677 39.938 31.3756 39.771C30.1495 39.0898 29.803 37.4406 30.0939 36.1661C30.1432 35.9512 30.2122 35.7419 30.2974 35.5404C29.841 35.6165 29.3284 35.1446 29.5136 34.6683C29.5277 34.6323 29.5439 34.5986 29.5594 34.564C29.2586 34.366 29.0213 34.066 28.9086 33.6735C28.8509 33.4706 28.8425 33.2656 28.8727 33.0676C28.727 32.9698 28.6065 32.8352 28.5291 32.6696C28.2868 32.5576 28.072 32.39 27.9439 32.1505C27.7664 31.82 27.7889 31.5156 27.9241 31.2416C27.9051 31.2071 27.8868 31.1719 27.8692 31.1359C27.3727 30.8211 27.0263 30.2785 27.0657 29.6769C27.0784 29.4775 27.1277 29.2979 27.2037 29.1359C27.1974 29.1155 27.191 29.0943 27.1854 29.0738C26.7699 28.8625 26.4263 28.5152 26.3037 28.0517C26.1812 27.5852 26.3256 27.1203 26.6143 26.7624C26.1917 26.4532 25.9375 26.0213 26.0917 25.3682C26.1544 25.1026 26.2805 24.8609 26.4509 24.6573C26.4502 24.651 26.4488 24.6447 26.4474 24.6383L26.4078 24.6076C25.8862 24.1958 25.5864 23.6711 25.9065 23.0257C26.0502 22.7355 26.2551 22.5332 26.496 22.4001L26.5079 22.3621C26.3354 21.9922 26.277 21.5815 26.396 21.1496C26.4932 20.7939 26.7234 20.5106 27.0178 20.3226C26.9981 20.1633 27.0009 19.9936 27.0326 19.8096C27.0854 19.499 27.2396 19.2278 27.465 19.0355C27.4734 18.9945 27.484 18.9545 27.496 18.9142C27.572 18.6684 27.7143 18.4014 27.8791 18.2034C28.015 18.0392 28.1671 17.9794 28.353 17.973C28.3417 17.8216 28.3495 17.668 28.3805 17.5123C28.4756 17.0319 28.7812 16.5802 29.234 16.3752C29.4199 16.2914 29.6157 16.2668 29.8044 16.2871C29.965 15.949 30.2784 15.7039 30.6636 15.651C30.8136 15.6299 30.953 15.6312 31.0812 15.6503C31.1537 15.6165 31.2291 15.5862 31.3079 15.5587C31.3601 15.5404 31.4129 15.5235 31.4657 15.5066C31.6439 15.2854 31.8784 15.1085 32.1523 15.0022C32.4685 14.8789 32.7903 14.8915 33.0756 14.9951L33.1664 14.9761C33.3086 14.7295 33.5354 14.5386 33.884 14.4519C34.2798 14.354 34.6861 14.4907 34.9974 14.7394C34.9988 14.7394 35.0002 14.7394 35.0023 14.7386C35.165 14.3744 35.4432 14.1208 35.9101 14.1384C36.2009 14.1497 36.4636 14.2942 36.6664 14.4999C36.7791 14.4857 36.8917 14.473 37.0051 14.4604C37.1248 14.3202 37.2579 14.1892 37.4051 14.0716C37.646 13.8785 37.9594 13.894 38.1368 14.1659C38.1756 14.2251 38.2115 14.2849 38.2474 14.3448L38.4101 14.3336C38.6016 14.075 38.8629 13.9003 39.2206 13.8863C39.5488 13.8728 39.7826 14.0335 39.9608 14.2582C40.1058 14.2547 40.2516 14.2519 40.3974 14.2497C40.5671 14.0532 40.7671 13.8799 40.9953 13.7361C41.1699 13.6262 41.4277 13.6636 41.5692 13.8102C41.6648 13.9098 41.7539 14.0138 41.8366 14.1214C42.0499 13.8822 42.338 13.7246 42.6458 13.6644ZM32.2812 36.0358C32.6101 35.8484 33.0523 36.0513 33.3706 36.2105C33.7586 36.4042 34.1439 36.6966 34.3812 37.0629C34.7044 37.5617 33.9446 37.9647 33.6044 37.5173C33.3953 37.2419 33.2284 36.9643 32.9748 36.7233C32.7432 36.5021 32.4072 36.3542 32.2741 36.0625C32.2692 36.0527 32.2706 36.0414 32.2812 36.0358ZM32.5122 23.9288L32.5184 23.9112C32.6119 23.6553 32.2037 23.545 32.111 23.7988C31.9704 24.1835 32.1325 24.6018 32.5123 24.7679C32.6176 24.814 32.7379 24.798 32.8013 24.6921C32.8546 24.603 32.8299 24.4486 32.7256 24.403C32.5118 24.3095 32.4402 24.1445 32.5122 23.9288ZM28.9959 23.2132C29.2002 23.0328 28.9004 22.7347 28.6971 22.9143C28.5074 23.0818 28.3667 23.3094 28.4032 23.5711C28.4405 23.8378 28.6415 24.0262 28.8616 24.1592C29.0948 24.3003 29.3075 23.935 29.0748 23.7942L29.0487 23.7782C28.9511 23.7176 28.8368 23.6342 28.8203 23.5148C28.8027 23.388 28.91 23.289 28.9959 23.2132ZM30.1556 20.0308L30.1701 20.0201C30.3895 19.8635 30.1787 19.4967 29.9567 19.6551C29.7532 19.8005 29.59 19.9893 29.5728 20.2497C29.5561 20.5027 29.6848 20.7221 29.8532 20.9001C30.0404 21.0982 30.3389 20.7989 30.152 20.6013C29.9698 20.4087 29.9343 20.1985 30.1556 20.0308Z" fill="currentColor"/>
<path fill-rule="evenodd" clip-rule="evenodd" d="M47.7173 42.7579C47.2439 42.5647 46.8215 42.2424 46.5127 41.8307C46.4053 41.6876 46.3775 41.5365 46.4 41.3983C46.4254 41.2428 46.5173 41.102 46.6426 41.0075C46.7684 40.9127 46.9257 40.866 47.0777 40.8898C47.2098 40.9105 47.3414 40.9829 47.4455 41.133L47.4672 41.163C47.6508 41.4115 47.8901 41.6153 48.1627 41.7467C48.4254 41.8734 48.7192 41.9325 49.0233 41.8981C49.6025 41.8327 50.0016 41.5193 50.4259 41.0939C50.4785 41.0401 50.5311 40.9847 50.584 40.9284C50.6174 40.8774 50.6637 40.8446 50.7152 40.8274C50.7723 40.8083 50.837 40.8094 50.8961 40.83C50.9532 40.85 51.0043 40.8877 51.0385 40.938C51.071 40.9858 51.0895 41.0448 51.0835 41.1127C51.0447 41.5536 50.8142 41.9472 50.4869 42.2562C50.1233 42.5994 49.6414 42.8368 49.1877 42.9201C48.6878 43.0118 48.1785 42.9461 47.7173 42.7579ZM49.4235 35.9553C49.9553 36.2786 50.7656 37.0327 50.1935 37.8343C49.5201 38.5412 48.5505 37.7307 48.0728 37.3642C47.6298 37.0801 47.132 37.8107 47.543 38.1424C50.9954 40.6994 52.3965 36.0398 49.6925 35.5751C49.3947 35.5238 49.2842 35.8552 49.4235 35.9553ZM43.2368 32.9808C43.2956 32.2512 44.4063 32.0855 44.5168 32.8075C44.6157 33.4542 44.4993 34.0483 44.2081 34.6306C43.9298 35.1869 43.2305 34.9273 43.1776 34.4208C43.1067 33.7418 43.2002 33.4347 43.2368 32.9808ZM51.692 32.6578C51.8468 32.4549 52.0704 32.3164 52.3383 32.3947C53.1753 32.6393 52.9286 33.828 52.6347 34.4066C52.4749 34.7209 51.9587 34.8005 51.7254 34.5239C51.3451 34.0727 51.163 33.1717 51.6464 32.7273C51.6595 32.7044 51.6741 32.6812 51.692 32.6578ZM44.1963 29.7883L44.3285 29.7651C44.7375 29.6944 45.246 29.6264 45.5354 29.9553C45.6888 30.1298 45.7416 30.454 45.5354 30.6209C45.1725 30.9147 44.7714 30.8009 44.3366 30.8257C43.9783 30.8463 43.634 30.9056 43.2888 31.0043C42.5316 31.2208 41.9147 31.616 41.268 32.05C41.1831 32.1069 41.0965 31.9984 41.137 31.919C41.5103 31.1875 42.2337 30.5866 42.9584 30.2204C43.3451 30.0249 43.7684 29.8627 44.1963 29.7883ZM50.929 29.4606L51.0302 29.4813C52.1314 29.7116 53.5622 30.1716 54.0836 31.2537C54.1035 31.4067 54.0825 31.4395 54.0654 31.4609L54.0598 31.468C54.0457 31.4863 54.0345 31.5115 53.9682 31.5324C53.9498 31.528 53.9312 31.5233 53.9124 31.5184C53.6734 31.4558 53.4843 31.3694 53.3012 31.2798L53.1026 31.182C52.8723 31.069 52.64 30.9602 52.3937 30.8798C51.8682 30.7083 51.3277 30.5875 50.7788 30.523C50.6598 30.5091 50.5453 30.4689 50.4549 30.4001C50.3691 30.3347 50.3036 30.2442 50.2737 30.124C50.235 29.9684 50.2461 29.8505 50.3296 29.7101C50.3923 29.6047 50.4821 29.5316 50.5852 29.4896C50.6904 29.4469 50.8101 29.4368 50.929 29.4606Z" fill="currentColor"/>
<path fill-rule="evenodd" clip-rule="evenodd" d="M55.591 38.7985C55.4971 38.518 55.0141 38.5424 55.0438 38.8726C55.0778 39.2499 54.9488 39.6706 54.5875 39.8538C54.2092 40.0455 53.7835 39.8731 53.5528 39.5441C53.3521 39.2582 53.2138 38.9471 52.9613 38.6977C52.7266 38.4658 52.4411 38.287 52.1288 38.1808C51.8855 38.0981 51.6332 38.0762 51.3885 38.1033C50.7786 37.9654 50.072 38.279 49.6919 38.7547C49.6674 38.7853 49.6447 38.8168 49.6227 38.8486C49.585 38.7973 49.5456 38.7465 49.5038 38.6964C49.3962 38.5673 49.2625 38.5397 49.1418 38.5748C48.4544 38.0634 47.4911 37.9956 46.7104 38.4572C46.0849 38.827 45.5675 39.372 44.7983 39.4144C44.1891 39.448 43.5255 39.1002 43.4826 38.4305C43.46 38.0807 42.9837 37.7892 42.7164 38.113C42.1546 38.7938 42.0422 39.6982 42.3531 40.5214C42.6811 41.39 43.3494 42.0019 44.1956 42.3618C45.1094 42.7505 46.1802 42.8854 47.1688 42.8547C48.1543 42.8239 49.0503 42.4448 49.6443 41.6384C49.7152 41.5422 49.7776 41.4444 49.8322 41.3455C50.409 42.0801 51.3131 42.3889 52.2339 42.4111C53.1973 42.4342 54.3362 42.2651 55.0173 41.5166C55.6737 40.7952 55.9002 39.7224 55.591 38.7985Z" fill="currentColor"/>
</g>
</svg>
